M48
; DRILL file {KiCad 6.0.11+dfsg-1~bpo11+1} date So 22 Okt 2023 15:16:12 CEST
; FORMAT={-:-/ absolute / metric / decimal}
; #@! TF.CreationDate,2023-10-22T15:16:12+02:00
; #@! TF.GenerationSoftware,Kicad,Pcbnew,6.0.11+dfsg-1~bpo11+1
; #@! TF.FileFunction,Plated,1,2,PTH
FMAT,2
METRIC
; #@! TA.AperFunction,Plated,PTH,ViaDrill
T1C0.300
; #@! TA.AperFunction,Plated,PTH,ComponentDrill
T2C0.600
; #@! TA.AperFunction,Plated,PTH,ComponentDrill
T3C1.000
; #@! TA.AperFunction,Plated,PTH,ComponentDrill
T4C1.190
; #@! TA.AperFunction,Plated,PTH,ComponentDrill
T5C1.200
; #@! TA.AperFunction,Plated,PTH,ComponentDrill
T6C1.800
%
G90
G05
T1
X104.292Y-87.833
X104.343Y-97.942
X104.394Y-92.761
X104.394Y-104.242
X104.394Y-107.696
X104.4Y-56.072
X104.4Y-61.152
X104.445Y-67.158
X104.445Y-82.753
X104.496Y-71.882
X104.496Y-77.927
X105.766Y-109.576
X109.372Y-57.404
X109.626Y-109.372
X112.522Y-55.575
X114.402Y-58.014
X114.56Y-45.912
X114.656Y-109.423
X119.64Y-45.912
X119.685Y-109.372
X120.275Y-57.342
X120.955Y-104.8
X121.006Y-95.199
X121.006Y-100.381
X121.996Y-64.897
X121.996Y-68.351
X121.996Y-71.78
X121.996Y-75.26
X121.996Y-78.725
X121.996Y-92.583
X121.998Y-82.179
X121.998Y-85.634
X121.998Y-89.139
X122.022Y-61.366
X122.809Y-64.897
X122.809Y-68.351
X122.809Y-71.78
X122.809Y-75.26
X122.809Y-78.725
X122.809Y-92.583
X122.811Y-82.179
X122.811Y-85.634
X122.811Y-89.139
X122.834Y-61.366
X123.114Y-95.468
X123.85Y-110.033
X124.206Y-57.556
X124.612Y-61.57
X124.72Y-45.912
X125.578Y-96.723
X126.644Y-105.867
X127.254Y-82.931
X127.254Y-85.852
X127.381Y-88.392
X127.711Y-109.982
X127.762Y-73.203
X127.762Y-78.932
X128.27Y-94.793
X128.524Y-61.468
X128.53Y-75.376
X128.778Y-90.221
X128.88Y-57.556
X129.235Y-100.94
X129.489Y-64.567
X129.8Y-45.912
X129.8Y-68.264
X130.175Y-92.583
X130.404Y-70.51
X130.435Y-58.612
X130.658Y-104.902
X131.578Y-60.771
X131.832Y-67.756
X131.832Y-70.296
X131.832Y-73.344
X131.832Y-83.504
X131.928Y-98.501
X131.978Y-105.461
X132.086Y-65.47
X132.74Y-110.033
X133.102Y-61.787
X133.102Y-84.774
X133.198Y-93.066
X133.356Y-71.566
X133.553Y-108.356
X133.858Y-89.789
X133.858Y-97.892
X133.864Y-68.01
X133.864Y-81.218
X133.864Y-86.044
X134.214Y-99.924
X134.315Y-57.81
X134.372Y-65.47
X134.499Y-74.36
X134.88Y-45.912
X135.134Y-82.488
X135.89Y-57.201
X135.89Y-73.762
X135.992Y-89.764
X136.15Y-86.044
X136.195Y-92.558
X136.195Y-101.194
X136.347Y-75.032
X136.398Y-98.552
X136.55Y-110.084
X136.785Y-60.771
X136.785Y-65.47
X136.855Y-108.661
X136.912Y-85.028
X137.293Y-78.424
X137.324Y-77.123
X137.389Y-75.853
X137.547Y-89.473
X137.617Y-74.778
X137.668Y-100.99
X137.928Y-86.044
X138.328Y-103.429
X138.379Y-95.047
X138.436Y-81.218
X138.684Y-98.806
X138.938Y-94.539
X139.706Y-75.853
X139.706Y-77.123
X139.706Y-83.25
X139.809Y-78.781
X139.833Y-81.98
X139.96Y-45.912
X139.96Y-57.85
X139.96Y-84.266
X139.96Y-89.473
X139.96Y-96.204
X140.36Y-98.704
X140.462Y-102.108
X140.564Y-73.457
X140.564Y-110.084
X140.595Y-60.771
X140.976Y-93.918
X141.275Y-105.512
X141.529Y-100.228
X141.611Y-67.756
X141.783Y-53.391
X141.865Y-66.105
X141.986Y-72.136
X142.088Y-102.26
X142.24Y-50.648
X142.697Y-99.263
X142.748Y-73.558
X142.881Y-76.392
X142.9Y-60.096
X143.002Y-100.94
X143.135Y-85.663
X143.135Y-88.076
X143.135Y-90.489
X143.51Y-58.064
X143.77Y-78.17
X143.915Y-81.328
X144.12Y-72.136
X144.272Y-98.857
X144.272Y-108.509
X144.526Y-73.979
X144.659Y-78.932
X144.786Y-56.072
X145.085Y-106.578
X145.294Y-97.855
X145.39Y-101.448
X145.548Y-85.663
X145.548Y-90.489
X145.593Y-109.576
X145.683Y-53.921
X145.694Y-103.124
X145.802Y-70.169
X145.802Y-77.154
X145.802Y-79.186
X146.183Y-73.471
X146.253Y-98.755
X146.31Y-93.918
X146.31Y-96.458
X146.627Y-78.361
X147.072Y-53.786
X147.32Y-64.643
X147.326Y-95.95
X147.389Y-67.057
X147.389Y-68.962
X147.389Y-70.74
X147.676Y-101.092
X147.777Y-98.196
X147.824Y-82.879
X147.834Y-80.583
X147.961Y-85.663
X147.961Y-88.076
X147.961Y-90.489
X148.031Y-96.977
X148.088Y-94.426
X148.209Y-64.643
X148.539Y-95.606
X148.723Y-68.01
X148.723Y-73.344
X148.723Y-76.138
X148.85Y-66.232
X148.85Y-80.202
X148.946Y-97.282
X149.352Y-97.892
X149.352Y-98.958
X149.358Y-84.266
X149.454Y-99.873
X150.12Y-80.583
X150.3Y-79.2
X150.374Y-57.215
X150.571Y-98.095
X150.628Y-89.265
X150.93Y-97.329
X151.232Y-100.889
X151.333Y-59.893
X151.333Y-61.366
X151.39Y-79.821
X151.536Y-86.086
X151.74Y-92.05
X151.771Y-77.662
X151.892Y-60.503
X151.898Y-53.786
X151.903Y-84.266
X152.197Y-61.366
X152.212Y-92.627
X152.279Y-68.264
X152.533Y-83.25
X152.914Y-69.534
X153.06Y-92.608
X153.111Y-100.635
X153.168Y-89.346
X153.314Y-57.455
X153.422Y-53.786
X153.422Y-87.568
X153.443Y-86.34
X153.467Y-94.488
X153.549Y-85.536
X153.67Y-91.592
X153.721Y-81.534
X153.822Y-97.892
X153.93Y-69.534
X153.975Y-78.791
X154.051Y-66.675
X154.076Y-84.785
X154.127Y-101.956
X154.311Y-88.584
X154.311Y-89.854
X154.438Y-71.058
X154.686Y-58.776
X154.692Y-75.122
X154.889Y-92.608
X154.94Y-68.072
X155.327Y-89.219
X155.327Y-90.489
X155.327Y-91.632
X155.397Y-86.868
X155.448Y-102.921
X155.6Y-108.001
X155.753Y-56.998
X155.764Y-58.866
X155.815Y-81.472
X155.959Y-60.647
X155.959Y-61.536
X155.962Y-45.912
X156.083Y-65.024
X156.108Y-52.324
X156.21Y-97.892
X156.21Y-100.533
X156.467Y-68.269
X156.515Y-84.582
X156.591Y-66.167
X156.718Y-102.565
X156.718Y-105.562
X157.023Y-83.16
X157.48Y-102.565
X157.48Y-105.562
X157.785Y-57.506
X157.886Y-80.264
X158.547Y-109.423
X158.756Y-94.172
X159.055Y-97.892
X159.137Y-80.329
X160.28Y-81.472
X160.28Y-84.266
X160.426Y-100.736
X160.528Y-58.928
X160.528Y-69.799
X160.782Y-45.912
X160.848Y-84.85
X161.036Y-97.587
X161.042Y-94.426
X161.138Y-63.398
X161.188Y-57.302
X161.188Y-66.345
X161.849Y-82.652
X161.849Y-84.277
X161.849Y-86.309
X161.95Y-88.341
X161.95Y-89.764
X162.458Y-67.31
X162.509Y-89.052
X162.509Y-90.373
X162.56Y-78.13
X162.687Y-58.928
X162.814Y-72.136
X162.865Y-87.274
X163.119Y-95.758
X163.17Y-91.034
X163.17Y-91.999
X163.703Y-58.928
X163.728Y-57.353
X163.779Y-68.174
X164.44Y-81.178
X164.44Y-84.328
X164.44Y-87.274
X164.744Y-75.286
X165.049Y-62.84
X165.1Y-58.039
X165.1Y-109.474
X165.151Y-69.85
X165.202Y-93.421
X165.202Y-99.416
X165.862Y-45.912
X166.827Y-67.564
X167.183Y-72.39
X167.488Y-78.842
X167.64Y-57.556
X167.894Y-86.258
X167.894Y-100.787
X167.945Y-102.362
X168.097Y-75.082
X168.148Y-81.788
X168.91Y-69.088
X168.91Y-89.611
X169.062Y-105.867
X169.062Y-106.731
X169.164Y-66.04
X169.17Y-57.215
X169.367Y-99.924
X169.418Y-93.167
X169.418Y-95.707
X169.418Y-98.095
X169.52Y-103.48
X169.875Y-71.476
X169.875Y-77.673
X169.926Y-84.379
X170.79Y-105.512
X170.79Y-106.578
X170.891Y-98.095
X171.399Y-109.474
X171.501Y-62.941
X171.958Y-65.532
X172.161Y-69.037
X172.161Y-72.085
X172.161Y-76.251
X172.161Y-79.248
X172.161Y-83.312
X172.161Y-86.309
X172.212Y-90.272
X172.212Y-93.523
X172.212Y-100.482
X172.212Y-104.546
X172.466Y-57.506
X172.974Y-65.43
X173.025Y-69.088
X173.025Y-72.136
X173.025Y-76.251
X173.025Y-79.248
X173.025Y-86.309
X173.076Y-83.312
X173.126Y-90.272
X173.126Y-93.472
X173.177Y-100.482
X173.177Y-104.597
X173.685Y-62.332
X173.685Y-65.43
X174.498Y-62.332
X174.904Y-45.974
X175.463Y-57.76
X175.565Y-74.473
X175.565Y-81.534
X175.616Y-67.361
X175.616Y-88.697
X175.616Y-109.474
X175.641Y-95.542
X175.641Y-102.794
X177.14Y-57.861
X177.394Y-60.858
X178.568Y-57.088
X180.188Y-109.525
X180.34Y-46.039
X180.594Y-52.516
X180.854Y-56.834
X182.931Y-90.17
X182.931Y-97.231
X182.931Y-104.343
X182.982Y-83.058
X183.017Y-76.083
X183.236Y-69.037
X183.451Y-57.213
X183.947Y-62.179
X183.998Y-109.525
X184.302Y-46.177
X184.302Y-50.19
X184.34Y-58.102
X185.293Y-59.055
X186.284Y-55.677
X188.468Y-109.525
X192.481Y-56.083
X194.767Y-59.741
X194.92Y-65.176
X194.97Y-63.551
X195.275Y-109.525
X195.986Y-61.468
X195.986Y-107.798
X196.088Y-78.638
X196.088Y-86.614
X196.088Y-93.675
X196.088Y-101.041
X196.393Y-46.228
X196.393Y-54.153
X196.393Y-57.455
X196.444Y-63.551
X196.444Y-68.885
T3
X130.099Y-95.809
X132.639Y-95.809
X135.179Y-95.809
X142.5Y-46.674
X152.857Y-96.114
X155.073Y-83.504
X155.397Y-96.114
X157.937Y-96.114
T4
X106.446Y-78.994
X106.446Y-81.534
X106.446Y-84.074
X106.446Y-86.614
X106.446Y-89.154
X106.446Y-91.694
X106.446Y-94.234
X106.446Y-96.774
X106.446Y-99.314
T5
X119.018Y-49.28
X119.018Y-54.28
X122.518Y-49.28
X122.518Y-54.28
X126.018Y-49.28
X126.018Y-54.28
X129.518Y-49.28
X129.518Y-54.28
X133.018Y-49.28
X133.018Y-54.28
X136.518Y-49.28
X136.518Y-54.28
X160.792Y-49.28
X160.792Y-54.28
X164.292Y-49.28
X164.292Y-54.28
X167.792Y-49.28
X167.792Y-54.28
X171.292Y-49.28
X171.292Y-54.28
X174.792Y-49.28
X174.792Y-54.28
X178.292Y-49.28
X178.292Y-54.28
T6
X113.001Y-61.786
X113.001Y-65.746
X113.001Y-69.706
X113.001Y-73.666
X113.001Y-77.626
X113.001Y-81.586
X113.001Y-85.546
X113.001Y-89.506
X113.001Y-93.466
X113.001Y-97.426
X113.001Y-101.386
X113.001Y-105.346
X190.072Y-69.607
X190.072Y-73.567
X190.072Y-77.527
X190.072Y-81.487
X190.072Y-85.447
X190.072Y-89.407
X190.072Y-93.367
X190.072Y-97.327
X190.072Y-101.287
X190.072Y-105.247
T2
X145.292Y-48.185G85X145.292Y-47.585
G05
X145.292Y-52.615G85X145.292Y-51.515
G05
X153.932Y-48.185G85X153.932Y-47.585
G05
X153.932Y-52.615G85X153.932Y-51.515
G05
T0
M30
