%TF.GenerationSoftware,KiCad,Pcbnew,6.0.11+dfsg-1~bpo11+1*%
%TF.CreationDate,2023-10-22T15:16:06+02:00*%
%TF.ProjectId,Out_8x10,4f75745f-3878-4313-902e-6b696361645f,0.2.0*%
%TF.SameCoordinates,Original*%
%TF.FileFunction,Legend,Top*%
%TF.FilePolarity,Positive*%
%FSLAX46Y46*%
G04 Gerber Fmt 4.6, Leading zero omitted, Abs format (unit mm)*
G04 Created by KiCad (PCBNEW 6.0.11+dfsg-1~bpo11+1) date 2023-10-22 15:16:06*
%MOMM*%
%LPD*%
G01*
G04 APERTURE LIST*
G04 Aperture macros list*
%AMRoundRect*
0 Rectangle with rounded corners*
0 $1 Rounding radius*
0 $2 $3 $4 $5 $6 $7 $8 $9 X,Y pos of 4 corners*
0 Add a 4 corners polygon primitive as box body*
4,1,4,$2,$3,$4,$5,$6,$7,$8,$9,$2,$3,0*
0 Add four circle primitives for the rounded corners*
1,1,$1+$1,$2,$3*
1,1,$1+$1,$4,$5*
1,1,$1+$1,$6,$7*
1,1,$1+$1,$8,$9*
0 Add four rect primitives between the rounded corners*
20,1,$1+$1,$2,$3,$4,$5,0*
20,1,$1+$1,$4,$5,$6,$7,0*
20,1,$1+$1,$6,$7,$8,$9,0*
20,1,$1+$1,$8,$9,$2,$3,0*%
%AMFreePoly0*
4,1,9,3.862500,-0.866500,0.737500,-0.866500,0.737500,-0.450000,-0.737500,-0.450000,-0.737500,0.450000,0.737500,0.450000,0.737500,0.866500,3.862500,0.866500,3.862500,-0.866500,3.862500,-0.866500,$1*%
G04 Aperture macros list end*
%ADD10C,0.000000*%
%ADD11C,0.300000*%
%ADD12C,0.250000*%
%ADD13C,0.150000*%
%ADD14C,0.120000*%
%ADD15RoundRect,0.140000X-0.140000X-0.170000X0.140000X-0.170000X0.140000X0.170000X-0.140000X0.170000X0*%
%ADD16C,2.000000*%
%ADD17RoundRect,0.140000X0.170000X-0.140000X0.170000X0.140000X-0.170000X0.140000X-0.170000X-0.140000X0*%
%ADD18RoundRect,0.140000X-0.170000X0.140000X-0.170000X-0.140000X0.170000X-0.140000X0.170000X0.140000X0*%
%ADD19C,2.400000*%
%ADD20RoundRect,0.200000X0.200000X0.275000X-0.200000X0.275000X-0.200000X-0.275000X0.200000X-0.275000X0*%
%ADD21RoundRect,0.200000X-0.275000X0.200000X-0.275000X-0.200000X0.275000X-0.200000X0.275000X0.200000X0*%
%ADD22RoundRect,0.225000X0.225000X0.250000X-0.225000X0.250000X-0.225000X-0.250000X0.225000X-0.250000X0*%
%ADD23R,0.600000X0.450000*%
%ADD24RoundRect,0.150000X-0.587500X-0.150000X0.587500X-0.150000X0.587500X0.150000X-0.587500X0.150000X0*%
%ADD25RoundRect,0.150000X-0.512500X-0.150000X0.512500X-0.150000X0.512500X0.150000X-0.512500X0.150000X0*%
%ADD26RoundRect,0.200000X0.275000X-0.200000X0.275000X0.200000X-0.275000X0.200000X-0.275000X-0.200000X0*%
%ADD27RoundRect,0.250000X-1.500000X-0.550000X1.500000X-0.550000X1.500000X0.550000X-1.500000X0.550000X0*%
%ADD28R,1.300000X0.900000*%
%ADD29FreePoly0,180.000000*%
%ADD30RoundRect,0.150000X0.587500X0.150000X-0.587500X0.150000X-0.587500X-0.150000X0.587500X-0.150000X0*%
%ADD31RoundRect,0.150000X-0.150000X0.512500X-0.150000X-0.512500X0.150000X-0.512500X0.150000X0.512500X0*%
%ADD32RoundRect,0.200000X-0.200000X-0.275000X0.200000X-0.275000X0.200000X0.275000X-0.200000X0.275000X0*%
%ADD33RoundRect,0.135000X0.185000X-0.135000X0.185000X0.135000X-0.185000X0.135000X-0.185000X-0.135000X0*%
%ADD34C,5.500000*%
%ADD35RoundRect,0.225000X0.250000X-0.225000X0.250000X0.225000X-0.250000X0.225000X-0.250000X-0.225000X0*%
%ADD36R,2.500000X1.800000*%
%ADD37RoundRect,0.135000X0.135000X0.185000X-0.135000X0.185000X-0.135000X-0.185000X0.135000X-0.185000X0*%
%ADD38C,1.000000*%
%ADD39RoundRect,0.243750X0.243750X0.456250X-0.243750X0.456250X-0.243750X-0.456250X0.243750X-0.456250X0*%
%ADD40C,0.650000*%
%ADD41R,0.300000X1.150000*%
%ADD42O,1.000000X2.100000*%
%ADD43O,1.000000X1.600000*%
%ADD44RoundRect,0.250000X1.850000X-1.330000X1.850000X1.330000X-1.850000X1.330000X-1.850000X-1.330000X0*%
%ADD45O,4.200000X3.160000*%
%ADD46RoundRect,0.140000X0.140000X0.170000X-0.140000X0.170000X-0.140000X-0.170000X0.140000X-0.170000X0*%
%ADD47RoundRect,0.135000X-0.185000X0.135000X-0.185000X-0.135000X0.185000X-0.135000X0.185000X0.135000X0*%
%ADD48RoundRect,0.250000X-1.850000X1.330000X-1.850000X-1.330000X1.850000X-1.330000X1.850000X1.330000X0*%
%ADD49R,1.700000X1.700000*%
%ADD50O,1.700000X1.700000*%
%ADD51RoundRect,0.135000X-0.135000X-0.185000X0.135000X-0.185000X0.135000X0.185000X-0.135000X0.185000X0*%
%ADD52R,1.100000X1.800000*%
%ADD53RoundRect,0.050000X-0.387500X-0.050000X0.387500X-0.050000X0.387500X0.050000X-0.387500X0.050000X0*%
%ADD54RoundRect,0.050000X-0.050000X-0.387500X0.050000X-0.387500X0.050000X0.387500X-0.050000X0.387500X0*%
%ADD55R,3.200000X3.200000*%
%ADD56RoundRect,0.250000X-0.375000X-0.625000X0.375000X-0.625000X0.375000X0.625000X-0.375000X0.625000X0*%
%ADD57RoundRect,0.150000X-0.825000X-0.150000X0.825000X-0.150000X0.825000X0.150000X-0.825000X0.150000X0*%
%ADD58RoundRect,0.225000X-0.225000X-0.250000X0.225000X-0.250000X0.225000X0.250000X-0.225000X0.250000X0*%
%ADD59R,0.450000X0.600000*%
%ADD60RoundRect,0.250000X0.845000X-0.620000X0.845000X0.620000X-0.845000X0.620000X-0.845000X-0.620000X0*%
%ADD61O,2.190000X1.740000*%
%ADD62R,1.120000X2.440000*%
%ADD63R,1.200000X1.400000*%
%ADD64RoundRect,0.150000X-0.650000X-0.150000X0.650000X-0.150000X0.650000X0.150000X-0.650000X0.150000X0*%
G04 APERTURE END LIST*
D10*
G36*
X130948903Y-85342725D02*
G01*
X131043923Y-85518613D01*
X131143983Y-85680407D01*
X131248531Y-85828671D01*
X131357014Y-85963970D01*
X131468879Y-86086867D01*
X131583573Y-86197929D01*
X131700542Y-86297720D01*
X131819235Y-86386804D01*
X131939097Y-86465745D01*
X132059575Y-86535110D01*
X132180118Y-86595461D01*
X132300171Y-86647365D01*
X132419182Y-86691385D01*
X132536597Y-86728086D01*
X132651864Y-86758033D01*
X132764430Y-86781790D01*
X132873741Y-86799923D01*
X132979245Y-86812995D01*
X133080388Y-86821572D01*
X133267382Y-86827497D01*
X133430297Y-86822215D01*
X133564711Y-86810244D01*
X133666198Y-86796100D01*
X133752696Y-86779365D01*
X133613068Y-86835841D01*
X133474609Y-86884295D01*
X133337520Y-86924838D01*
X133202001Y-86957579D01*
X133068254Y-86982627D01*
X132936479Y-87000093D01*
X132806876Y-87010085D01*
X132679646Y-87012715D01*
X132554989Y-87008091D01*
X132433106Y-86996324D01*
X132314198Y-86977522D01*
X132198466Y-86951796D01*
X132086109Y-86919256D01*
X131977328Y-86880011D01*
X131872324Y-86834171D01*
X131771298Y-86781845D01*
X131674450Y-86723144D01*
X131581980Y-86658178D01*
X131494089Y-86587055D01*
X131410979Y-86509885D01*
X131332848Y-86426779D01*
X131259899Y-86337846D01*
X131192331Y-86243196D01*
X131130345Y-86142939D01*
X131074141Y-86037183D01*
X131023921Y-85926040D01*
X130979884Y-85809619D01*
X130942232Y-85688028D01*
X130911165Y-85561380D01*
X130886883Y-85429782D01*
X130869587Y-85293344D01*
X130859478Y-85152178D01*
X130948903Y-85342725D01*
G37*
G36*
X133410170Y-87901198D02*
G01*
X133910123Y-87901198D01*
X134034477Y-87948823D01*
X135557154Y-86393073D01*
X135562069Y-86387882D01*
X135566643Y-86382489D01*
X135570878Y-86376907D01*
X135574773Y-86371152D01*
X135578331Y-86365238D01*
X135581551Y-86359180D01*
X135584435Y-86352992D01*
X135586982Y-86346689D01*
X135589194Y-86340284D01*
X135591072Y-86333794D01*
X135592616Y-86327232D01*
X135593827Y-86320613D01*
X135594705Y-86313951D01*
X135595252Y-86307261D01*
X135595468Y-86300557D01*
X135595354Y-86293855D01*
X135594910Y-86287168D01*
X135594138Y-86280510D01*
X135593037Y-86273898D01*
X135591610Y-86267345D01*
X135589856Y-86260865D01*
X135587776Y-86254473D01*
X135585371Y-86248184D01*
X135582641Y-86242013D01*
X135579588Y-86235973D01*
X135576212Y-86230079D01*
X135572514Y-86224347D01*
X135568495Y-86218789D01*
X135564155Y-86213422D01*
X135559495Y-86208259D01*
X135554515Y-86203315D01*
X135549217Y-86198605D01*
X135543925Y-86194299D01*
X135538474Y-86190309D01*
X135532877Y-86186636D01*
X135527146Y-86183277D01*
X135521293Y-86180233D01*
X135515329Y-86177501D01*
X135509268Y-86175082D01*
X135503121Y-86172973D01*
X135496901Y-86171175D01*
X135490619Y-86169685D01*
X135484287Y-86168504D01*
X135477919Y-86167630D01*
X135471525Y-86167062D01*
X135465118Y-86166799D01*
X135458710Y-86166841D01*
X135452313Y-86167185D01*
X135445939Y-86167833D01*
X135439601Y-86168781D01*
X135433310Y-86170030D01*
X135427079Y-86171578D01*
X135420920Y-86173425D01*
X135414844Y-86175569D01*
X135408865Y-86178009D01*
X135402993Y-86180745D01*
X135397241Y-86183776D01*
X135391622Y-86187100D01*
X135386147Y-86190717D01*
X135380829Y-86194626D01*
X135375679Y-86198825D01*
X135370710Y-86203314D01*
X135365934Y-86208092D01*
X135361362Y-86213157D01*
X133910123Y-87901198D01*
X133410170Y-87901198D01*
X133038322Y-87737156D01*
X133031897Y-87734511D01*
X133473560Y-87734511D01*
X133556904Y-87766261D01*
X134107237Y-86841542D01*
X134075676Y-86868574D01*
X134043510Y-86895079D01*
X134010755Y-86921026D01*
X133977426Y-86946383D01*
X133943539Y-86971121D01*
X133909110Y-86995207D01*
X133874153Y-87018611D01*
X133838685Y-87041303D01*
X133473560Y-87734511D01*
X133031897Y-87734511D01*
X132996526Y-87719948D01*
X132954050Y-87705034D01*
X132910989Y-87692415D01*
X132867438Y-87682090D01*
X132823491Y-87674059D01*
X132779244Y-87668323D01*
X132734792Y-87664881D01*
X132690229Y-87663734D01*
X132645650Y-87664881D01*
X132601152Y-87668323D01*
X132556827Y-87674059D01*
X132512772Y-87682090D01*
X132469081Y-87692415D01*
X132425850Y-87705034D01*
X132383172Y-87719948D01*
X132341144Y-87737156D01*
X129126457Y-89155323D01*
X129097871Y-89167338D01*
X129069171Y-89178577D01*
X129040366Y-89189042D01*
X129011467Y-89198731D01*
X128982482Y-89207645D01*
X128953421Y-89215784D01*
X128924295Y-89223148D01*
X128895112Y-89229737D01*
X128865883Y-89235551D01*
X128836617Y-89240589D01*
X128807324Y-89244852D01*
X128778013Y-89248341D01*
X128748695Y-89251054D01*
X128719379Y-89252992D01*
X128690074Y-89254154D01*
X128660790Y-89254542D01*
X128602159Y-89252995D01*
X128543903Y-89248372D01*
X128486121Y-89240694D01*
X128428908Y-89229985D01*
X128372362Y-89216269D01*
X128316579Y-89199568D01*
X128261656Y-89179907D01*
X128207691Y-89157307D01*
X128154781Y-89131793D01*
X128103021Y-89103388D01*
X128052509Y-89072115D01*
X128003342Y-89037997D01*
X127955617Y-89001057D01*
X127909431Y-88961319D01*
X127864880Y-88918806D01*
X127822061Y-88873541D01*
X127762598Y-88802146D01*
X127709743Y-88727594D01*
X127663530Y-88650233D01*
X127623996Y-88570408D01*
X127591174Y-88488467D01*
X127565100Y-88404756D01*
X127545809Y-88319624D01*
X127533335Y-88233416D01*
X127533324Y-88233250D01*
X128326092Y-88233250D01*
X128326546Y-88251245D01*
X128327893Y-88269002D01*
X128330110Y-88286497D01*
X128333177Y-88303711D01*
X128337071Y-88320620D01*
X128341772Y-88337203D01*
X128347255Y-88353438D01*
X128353501Y-88369304D01*
X128360488Y-88384778D01*
X128368192Y-88399839D01*
X128376594Y-88414465D01*
X128385670Y-88428633D01*
X128395399Y-88442324D01*
X128405760Y-88455514D01*
X128416730Y-88468181D01*
X128428287Y-88480305D01*
X128440411Y-88491862D01*
X128453079Y-88502832D01*
X128466268Y-88513193D01*
X128479959Y-88522922D01*
X128494128Y-88531998D01*
X128508753Y-88540400D01*
X128523814Y-88548104D01*
X128539288Y-88555091D01*
X128555154Y-88561337D01*
X128571389Y-88566821D01*
X128587972Y-88571521D01*
X128604881Y-88575415D01*
X128622095Y-88578482D01*
X128639590Y-88580699D01*
X128657347Y-88582046D01*
X128675342Y-88582500D01*
X128693337Y-88582046D01*
X128711094Y-88580699D01*
X128728590Y-88578482D01*
X128745803Y-88575415D01*
X128762712Y-88571521D01*
X128779295Y-88566821D01*
X128795530Y-88561337D01*
X128811396Y-88555091D01*
X128826870Y-88548104D01*
X128841931Y-88540400D01*
X128856557Y-88531998D01*
X128870725Y-88522922D01*
X128884416Y-88513193D01*
X128897606Y-88502832D01*
X128910273Y-88491862D01*
X128922397Y-88480305D01*
X128933954Y-88468181D01*
X128944924Y-88455514D01*
X128955285Y-88442324D01*
X128965014Y-88428633D01*
X128974090Y-88414465D01*
X128982492Y-88399839D01*
X128990197Y-88384778D01*
X128997183Y-88369304D01*
X129003429Y-88353438D01*
X129008913Y-88337203D01*
X129013613Y-88320620D01*
X129017507Y-88303711D01*
X129020574Y-88286497D01*
X129022792Y-88269002D01*
X129024138Y-88251245D01*
X129024592Y-88233250D01*
X129024138Y-88215254D01*
X129022792Y-88197498D01*
X129020574Y-88180002D01*
X129017507Y-88162789D01*
X129013613Y-88145880D01*
X129008913Y-88129297D01*
X129003429Y-88113061D01*
X128997183Y-88097196D01*
X128990197Y-88081722D01*
X128982492Y-88066661D01*
X128974091Y-88052035D01*
X128965014Y-88037866D01*
X128955285Y-88024176D01*
X128944924Y-88010986D01*
X128933954Y-87998318D01*
X128922397Y-87986195D01*
X128910273Y-87974637D01*
X128897606Y-87963667D01*
X128884416Y-87953307D01*
X128870726Y-87943577D01*
X128856557Y-87934501D01*
X128841931Y-87926100D01*
X128826870Y-87918395D01*
X128811396Y-87911409D01*
X128795530Y-87905163D01*
X128779295Y-87899679D01*
X128762712Y-87894979D01*
X128745803Y-87891085D01*
X128728590Y-87888018D01*
X128711094Y-87885800D01*
X128693337Y-87884453D01*
X128675342Y-87884000D01*
X128657347Y-87884453D01*
X128639590Y-87885800D01*
X128622095Y-87888018D01*
X128604881Y-87891085D01*
X128587972Y-87894979D01*
X128571389Y-87899679D01*
X128555154Y-87905163D01*
X128539288Y-87911409D01*
X128523814Y-87918395D01*
X128508754Y-87926100D01*
X128494128Y-87934501D01*
X128479959Y-87943577D01*
X128466268Y-87953307D01*
X128453079Y-87963667D01*
X128440411Y-87974637D01*
X128428288Y-87986195D01*
X128416730Y-87998319D01*
X128405760Y-88010986D01*
X128395399Y-88024176D01*
X128385670Y-88037866D01*
X128376594Y-88052035D01*
X128368192Y-88066661D01*
X128360488Y-88081722D01*
X128353501Y-88097196D01*
X128347255Y-88113062D01*
X128341772Y-88129297D01*
X128337071Y-88145880D01*
X128333177Y-88162789D01*
X128330110Y-88180002D01*
X128327893Y-88197498D01*
X128326546Y-88215254D01*
X128326092Y-88233250D01*
X127533324Y-88233250D01*
X127527713Y-88146479D01*
X127528978Y-88059160D01*
X127537166Y-87971807D01*
X127552310Y-87884765D01*
X127574447Y-87798383D01*
X127603609Y-87713006D01*
X127638681Y-87631655D01*
X129844958Y-87631655D01*
X129845140Y-87638135D01*
X129845630Y-87644586D01*
X129846422Y-87650995D01*
X129847515Y-87657350D01*
X129848905Y-87663640D01*
X129850588Y-87669853D01*
X129852562Y-87675977D01*
X129854824Y-87681999D01*
X129857370Y-87687909D01*
X129860197Y-87693694D01*
X129863303Y-87699342D01*
X129866683Y-87704842D01*
X129870335Y-87710182D01*
X129874256Y-87715349D01*
X129878442Y-87720332D01*
X129882891Y-87725119D01*
X129887599Y-87729699D01*
X129892562Y-87734058D01*
X129897779Y-87738186D01*
X129903246Y-87742071D01*
X129908959Y-87745700D01*
X129914915Y-87749062D01*
X130719248Y-88182979D01*
X130936206Y-88098312D01*
X130051175Y-87518874D01*
X130045031Y-87515095D01*
X130038760Y-87511692D01*
X130032378Y-87508662D01*
X130025898Y-87506002D01*
X130019333Y-87503708D01*
X130012698Y-87501777D01*
X130006006Y-87500205D01*
X129999271Y-87498989D01*
X129992508Y-87498127D01*
X129985729Y-87497613D01*
X129978948Y-87497445D01*
X129972180Y-87497620D01*
X129965438Y-87498134D01*
X129958736Y-87498984D01*
X129952088Y-87500166D01*
X129945507Y-87501677D01*
X129939008Y-87503513D01*
X129932604Y-87505672D01*
X129926309Y-87508150D01*
X129920137Y-87510943D01*
X129914101Y-87514047D01*
X129908216Y-87517461D01*
X129902495Y-87521180D01*
X129896952Y-87525200D01*
X129891601Y-87529519D01*
X129886456Y-87534133D01*
X129881530Y-87539039D01*
X129876837Y-87544233D01*
X129872392Y-87549711D01*
X129868207Y-87555472D01*
X129864297Y-87561510D01*
X129860675Y-87567823D01*
X129857621Y-87573949D01*
X129854904Y-87580163D01*
X129852522Y-87586455D01*
X129850472Y-87592811D01*
X129848750Y-87599221D01*
X129847353Y-87605673D01*
X129846279Y-87612154D01*
X129845524Y-87618652D01*
X129845084Y-87625157D01*
X129844958Y-87631655D01*
X127638681Y-87631655D01*
X127639834Y-87628982D01*
X127683155Y-87546657D01*
X128403997Y-86297988D01*
X129764598Y-86297988D01*
X129764659Y-86304407D01*
X129765025Y-86310817D01*
X129765698Y-86317207D01*
X129766678Y-86323566D01*
X129767966Y-86329881D01*
X129769560Y-86336140D01*
X129771463Y-86342333D01*
X129773673Y-86348445D01*
X129776191Y-86354467D01*
X129779018Y-86360386D01*
X129782153Y-86366190D01*
X129785597Y-86371868D01*
X129789350Y-86377407D01*
X129793413Y-86382795D01*
X129797785Y-86388021D01*
X129802467Y-86393073D01*
X131327790Y-87950146D01*
X131453467Y-87902521D01*
X130541092Y-86841542D01*
X131252383Y-86841542D01*
X131804040Y-87768906D01*
X131887384Y-87737156D01*
X131656089Y-87297948D01*
X132104342Y-87297948D01*
X132152959Y-87459509D01*
X132199592Y-87618093D01*
X132226050Y-87607510D01*
X132284259Y-87583698D01*
X132283637Y-87581052D01*
X133076686Y-87581052D01*
X133144154Y-87608833D01*
X133161352Y-87615448D01*
X133207985Y-87457690D01*
X133256602Y-87297949D01*
X133226837Y-87305844D01*
X133197071Y-87313493D01*
X133167306Y-87320645D01*
X133152423Y-87323957D01*
X133137540Y-87327052D01*
X133106617Y-87455045D01*
X133076686Y-87581052D01*
X132283637Y-87581052D01*
X132254327Y-87456367D01*
X132234793Y-87374677D01*
X132640123Y-87374677D01*
X132642769Y-87512261D01*
X132648166Y-87511824D01*
X132653456Y-87511496D01*
X132658652Y-87511261D01*
X132663770Y-87511103D01*
X132673837Y-87510958D01*
X132683779Y-87510938D01*
X132724790Y-87512261D01*
X132727435Y-87374677D01*
X132640123Y-87374677D01*
X132234793Y-87374677D01*
X132223404Y-87327052D01*
X132193080Y-87320086D01*
X132163377Y-87312996D01*
X132133921Y-87305658D01*
X132104342Y-87297948D01*
X131656089Y-87297948D01*
X131520935Y-87041303D01*
X131485522Y-87018611D01*
X131450697Y-86995207D01*
X131416430Y-86971121D01*
X131382691Y-86946383D01*
X131349447Y-86921026D01*
X131316669Y-86895079D01*
X131284325Y-86868574D01*
X131252383Y-86841542D01*
X130541092Y-86841542D01*
X129999582Y-86211833D01*
X129994755Y-86206535D01*
X129989709Y-86201556D01*
X129984459Y-86196896D01*
X129979017Y-86192556D01*
X129973398Y-86188536D01*
X129967616Y-86184838D01*
X129961683Y-86181462D01*
X129955615Y-86178409D01*
X129949425Y-86175680D01*
X129943127Y-86173275D01*
X129936734Y-86171195D01*
X129930260Y-86169441D01*
X129923720Y-86168013D01*
X129917126Y-86166913D01*
X129910494Y-86166141D01*
X129903835Y-86165697D01*
X129897166Y-86165583D01*
X129890498Y-86165799D01*
X129883846Y-86166346D01*
X129877225Y-86167224D01*
X129870646Y-86168435D01*
X129864126Y-86169979D01*
X129857676Y-86171857D01*
X129851312Y-86174069D01*
X129845046Y-86176616D01*
X129838893Y-86179500D01*
X129832866Y-86182720D01*
X129826980Y-86186277D01*
X129821247Y-86190173D01*
X129815683Y-86194408D01*
X129810300Y-86198982D01*
X129805113Y-86203896D01*
X129800303Y-86208828D01*
X129795796Y-86213942D01*
X129791591Y-86219226D01*
X129787690Y-86224668D01*
X129784092Y-86230256D01*
X129780797Y-86235978D01*
X129777807Y-86241824D01*
X129775120Y-86247780D01*
X129772737Y-86253835D01*
X129770659Y-86259976D01*
X129768886Y-86266193D01*
X129767417Y-86272473D01*
X129766254Y-86278805D01*
X129765396Y-86285176D01*
X129764844Y-86291574D01*
X129764598Y-86297988D01*
X128403997Y-86297988D01*
X129298018Y-84749332D01*
X130029958Y-84749332D01*
X130030065Y-84755783D01*
X130030480Y-84762242D01*
X130031208Y-84768697D01*
X130032249Y-84775136D01*
X130033606Y-84781549D01*
X130035282Y-84787922D01*
X130037279Y-84794245D01*
X130039600Y-84800507D01*
X130042247Y-84806694D01*
X130045223Y-84812797D01*
X130048529Y-84818802D01*
X130556529Y-85672083D01*
X130544437Y-85614787D01*
X130533957Y-85557010D01*
X130525089Y-85498769D01*
X130517834Y-85440077D01*
X130512191Y-85380952D01*
X130508160Y-85321407D01*
X130505742Y-85261460D01*
X130504936Y-85201125D01*
X130504942Y-85194511D01*
X130688821Y-85194511D01*
X130691420Y-85297309D01*
X130699134Y-85398750D01*
X130711836Y-85498709D01*
X130729400Y-85597060D01*
X130751702Y-85693678D01*
X130778615Y-85788439D01*
X130810014Y-85881218D01*
X130845773Y-85971889D01*
X130885766Y-86060328D01*
X130929868Y-86146410D01*
X130977952Y-86230009D01*
X131029894Y-86311000D01*
X131085566Y-86389260D01*
X131144845Y-86464661D01*
X131207603Y-86537081D01*
X131273716Y-86606393D01*
X131343057Y-86672473D01*
X131415501Y-86735195D01*
X131490922Y-86794435D01*
X131569194Y-86850068D01*
X131650192Y-86901968D01*
X131733790Y-86950012D01*
X131819862Y-86994072D01*
X131908282Y-87034026D01*
X131998925Y-87069747D01*
X132091665Y-87101111D01*
X132186376Y-87127992D01*
X132282933Y-87150267D01*
X132381210Y-87167809D01*
X132481081Y-87180494D01*
X132582421Y-87188196D01*
X132685103Y-87190791D01*
X132787781Y-87188196D01*
X132889110Y-87180494D01*
X132988963Y-87167809D01*
X133087218Y-87150267D01*
X133183747Y-87127992D01*
X133278427Y-87101111D01*
X133371132Y-87069747D01*
X133461737Y-87034026D01*
X133550118Y-86994072D01*
X133636149Y-86950012D01*
X133719705Y-86901968D01*
X133800662Y-86850068D01*
X133878894Y-86794435D01*
X133954277Y-86735195D01*
X134026685Y-86672473D01*
X134095993Y-86606393D01*
X134162076Y-86537081D01*
X134224810Y-86464661D01*
X134284070Y-86389260D01*
X134339730Y-86311000D01*
X134391665Y-86230009D01*
X134439751Y-86146410D01*
X134483862Y-86060328D01*
X134523873Y-85971889D01*
X134559660Y-85881218D01*
X134591098Y-85788439D01*
X134618061Y-85693678D01*
X134623059Y-85672083D01*
X134804414Y-85672083D01*
X135311091Y-84820125D01*
X135314506Y-84813872D01*
X135317560Y-84807522D01*
X135320257Y-84801089D01*
X135322599Y-84794584D01*
X135324591Y-84788020D01*
X135326235Y-84781409D01*
X135327536Y-84774764D01*
X135328496Y-84768097D01*
X135329118Y-84761421D01*
X135329407Y-84754747D01*
X135329366Y-84748087D01*
X135328997Y-84741456D01*
X135328305Y-84734864D01*
X135327292Y-84728324D01*
X135325963Y-84721848D01*
X135324320Y-84715450D01*
X135322367Y-84709140D01*
X135320108Y-84702932D01*
X135317545Y-84696838D01*
X135314683Y-84690870D01*
X135311523Y-84685040D01*
X135308071Y-84679362D01*
X135304329Y-84673846D01*
X135300301Y-84668507D01*
X135295990Y-84663355D01*
X135291399Y-84658404D01*
X135286532Y-84653665D01*
X135281392Y-84649151D01*
X135275983Y-84644875D01*
X135270308Y-84640848D01*
X135264371Y-84637084D01*
X135258174Y-84633594D01*
X135252052Y-84630543D01*
X135245849Y-84627837D01*
X135239575Y-84625473D01*
X135233243Y-84623447D01*
X135226863Y-84621755D01*
X135220447Y-84620394D01*
X135214006Y-84619360D01*
X135207552Y-84618649D01*
X135201096Y-84618258D01*
X135194649Y-84618183D01*
X135188224Y-84618421D01*
X135181830Y-84618967D01*
X135175480Y-84619819D01*
X135169185Y-84620972D01*
X135162957Y-84622423D01*
X135156806Y-84624168D01*
X135150744Y-84626204D01*
X135144783Y-84628528D01*
X135138934Y-84631134D01*
X135133208Y-84634021D01*
X135127616Y-84637183D01*
X135122171Y-84640618D01*
X135116884Y-84644322D01*
X135111765Y-84648291D01*
X135106826Y-84652522D01*
X135102079Y-84657010D01*
X135097535Y-84661753D01*
X135093205Y-84666747D01*
X135089101Y-84671988D01*
X135085234Y-84677472D01*
X135081616Y-84683196D01*
X135078258Y-84689156D01*
X134853362Y-85116458D01*
X134853590Y-85137315D01*
X134854189Y-85158296D01*
X134856008Y-85201125D01*
X134855148Y-85261460D01*
X134852597Y-85321407D01*
X134848404Y-85380951D01*
X134842613Y-85440077D01*
X134835273Y-85498768D01*
X134826428Y-85557010D01*
X134816127Y-85614787D01*
X134804414Y-85672083D01*
X134623059Y-85672083D01*
X134640424Y-85597060D01*
X134658063Y-85498709D01*
X134670852Y-85398750D01*
X134678667Y-85297309D01*
X134681383Y-85194511D01*
X134678784Y-85091712D01*
X134671070Y-84990271D01*
X134658368Y-84890313D01*
X134640804Y-84791962D01*
X134618502Y-84695343D01*
X134591589Y-84600582D01*
X134560190Y-84507803D01*
X134524431Y-84417132D01*
X134484438Y-84328693D01*
X134440337Y-84242612D01*
X134392252Y-84159013D01*
X134340311Y-84078021D01*
X134284638Y-83999762D01*
X134225360Y-83924360D01*
X134162601Y-83851940D01*
X134096489Y-83782628D01*
X134027148Y-83716549D01*
X133954704Y-83653826D01*
X133879283Y-83594586D01*
X133801011Y-83538953D01*
X133783348Y-83527636D01*
X134068873Y-83527636D01*
X134091569Y-83546671D01*
X134114017Y-83566062D01*
X134136218Y-83585795D01*
X134158170Y-83605853D01*
X134179874Y-83626222D01*
X134201330Y-83646885D01*
X134222538Y-83667826D01*
X134243498Y-83689032D01*
X134496175Y-83036834D01*
X134500142Y-83025990D01*
X134503373Y-83015057D01*
X134505884Y-83004059D01*
X134507691Y-82993025D01*
X134508808Y-82981980D01*
X134509252Y-82970951D01*
X134509039Y-82959964D01*
X134508184Y-82949046D01*
X134506704Y-82938222D01*
X134504613Y-82927520D01*
X134501927Y-82916966D01*
X134498663Y-82906586D01*
X134494836Y-82896406D01*
X134490462Y-82886454D01*
X134485556Y-82876755D01*
X134480135Y-82867335D01*
X134474213Y-82858222D01*
X134467808Y-82849441D01*
X134460933Y-82841019D01*
X134453607Y-82832983D01*
X134445843Y-82825359D01*
X134437658Y-82818172D01*
X134429067Y-82811451D01*
X134420087Y-82805220D01*
X134410732Y-82799507D01*
X134401020Y-82794337D01*
X134390965Y-82789738D01*
X134380583Y-82785735D01*
X134369890Y-82782356D01*
X134358902Y-82779626D01*
X134347634Y-82777571D01*
X134336102Y-82776219D01*
X134326217Y-82775481D01*
X134316415Y-82775244D01*
X134306709Y-82775497D01*
X134297112Y-82776230D01*
X134287637Y-82777431D01*
X134278298Y-82779091D01*
X134269106Y-82781199D01*
X134260076Y-82783743D01*
X134251220Y-82786714D01*
X134242552Y-82790101D01*
X134234084Y-82793892D01*
X134225830Y-82798078D01*
X134217802Y-82802648D01*
X134210015Y-82807591D01*
X134202480Y-82812896D01*
X134195211Y-82818553D01*
X134188222Y-82824550D01*
X134181524Y-82830879D01*
X134175132Y-82837527D01*
X134169058Y-82844484D01*
X134163315Y-82851739D01*
X134157917Y-82859283D01*
X134152876Y-82867103D01*
X134148206Y-82875190D01*
X134143920Y-82883533D01*
X134140030Y-82892120D01*
X134136551Y-82900943D01*
X134133494Y-82909989D01*
X134130873Y-82919248D01*
X134128702Y-82928710D01*
X134126992Y-82938364D01*
X134125758Y-82948198D01*
X134068873Y-83527636D01*
X133783348Y-83527636D01*
X133720013Y-83487053D01*
X133636415Y-83439010D01*
X133550343Y-83394949D01*
X133461923Y-83354996D01*
X133371280Y-83319274D01*
X133278540Y-83287911D01*
X133183829Y-83261029D01*
X133087272Y-83238755D01*
X132988995Y-83221213D01*
X132889124Y-83208528D01*
X132787785Y-83200825D01*
X132685103Y-83198230D01*
X132582304Y-83200829D01*
X132480863Y-83208542D01*
X132380905Y-83221244D01*
X132282554Y-83238809D01*
X132185935Y-83261111D01*
X132091174Y-83288024D01*
X131998395Y-83319423D01*
X131907724Y-83355182D01*
X131819285Y-83395175D01*
X131733203Y-83439276D01*
X131649604Y-83487361D01*
X131568613Y-83539302D01*
X131490353Y-83594975D01*
X131414951Y-83654254D01*
X131342532Y-83717012D01*
X131273220Y-83783125D01*
X131207140Y-83852466D01*
X131144418Y-83924909D01*
X131085177Y-84000330D01*
X131029545Y-84078603D01*
X130977644Y-84159600D01*
X130929601Y-84243198D01*
X130885540Y-84329270D01*
X130845587Y-84417690D01*
X130809866Y-84508333D01*
X130778502Y-84601073D01*
X130751620Y-84695785D01*
X130729346Y-84792342D01*
X130711804Y-84890618D01*
X130699119Y-84990489D01*
X130691417Y-85091829D01*
X130688821Y-85194511D01*
X130504942Y-85194511D01*
X130504956Y-85180082D01*
X130505101Y-85158792D01*
X130505494Y-85137501D01*
X130506259Y-85116458D01*
X130281363Y-84689156D01*
X130277869Y-84682956D01*
X130274094Y-84677008D01*
X130270050Y-84671316D01*
X130265751Y-84665884D01*
X130261210Y-84660717D01*
X130256440Y-84655819D01*
X130251453Y-84651193D01*
X130246264Y-84646844D01*
X130240885Y-84642776D01*
X130235329Y-84638993D01*
X130229609Y-84635500D01*
X130223738Y-84632300D01*
X130217730Y-84629397D01*
X130211598Y-84626796D01*
X130205353Y-84624500D01*
X130199011Y-84622515D01*
X130192583Y-84620843D01*
X130186084Y-84619489D01*
X130179525Y-84618458D01*
X130172920Y-84617753D01*
X130166282Y-84617378D01*
X130159624Y-84617338D01*
X130152959Y-84617636D01*
X130146301Y-84618277D01*
X130139662Y-84619265D01*
X130133056Y-84620604D01*
X130126495Y-84622298D01*
X130119993Y-84624352D01*
X130113562Y-84626768D01*
X130107216Y-84629552D01*
X130100968Y-84632708D01*
X130094831Y-84636240D01*
X130089007Y-84639842D01*
X130083440Y-84643697D01*
X130078134Y-84647791D01*
X130073091Y-84652115D01*
X130068314Y-84656655D01*
X130063804Y-84661401D01*
X130059565Y-84666341D01*
X130055599Y-84671462D01*
X130051908Y-84676755D01*
X130048494Y-84682206D01*
X130045360Y-84687804D01*
X130042509Y-84693539D01*
X130039943Y-84699397D01*
X130037664Y-84705367D01*
X130035675Y-84711439D01*
X130033977Y-84717599D01*
X130032575Y-84723837D01*
X130031469Y-84730141D01*
X130030663Y-84736499D01*
X130030159Y-84742900D01*
X130029958Y-84749332D01*
X129298018Y-84749332D01*
X130324687Y-82970898D01*
X130850416Y-82970898D01*
X130850831Y-82980325D01*
X130851716Y-82989776D01*
X130853080Y-82999234D01*
X130854928Y-83008684D01*
X130857267Y-83018111D01*
X130860104Y-83027500D01*
X130863446Y-83036834D01*
X131116123Y-83687709D01*
X131137083Y-83666504D01*
X131158291Y-83645562D01*
X131179747Y-83624899D01*
X131201451Y-83604530D01*
X131223403Y-83584472D01*
X131245603Y-83564739D01*
X131268052Y-83545348D01*
X131290748Y-83526313D01*
X131233863Y-82948198D01*
X131232514Y-82936663D01*
X131230471Y-82925385D01*
X131227758Y-82914379D01*
X131224401Y-82903664D01*
X131220425Y-82893254D01*
X131215858Y-82883167D01*
X131210723Y-82873420D01*
X131205048Y-82864028D01*
X131198857Y-82855008D01*
X131192176Y-82846376D01*
X131185031Y-82838150D01*
X131177447Y-82830345D01*
X131169451Y-82822978D01*
X131161068Y-82816066D01*
X131152323Y-82809624D01*
X131143243Y-82803670D01*
X131133852Y-82798219D01*
X131124177Y-82793289D01*
X131114244Y-82788896D01*
X131104077Y-82785056D01*
X131093703Y-82781785D01*
X131083147Y-82779101D01*
X131072436Y-82777020D01*
X131061594Y-82775558D01*
X131050647Y-82774731D01*
X131039622Y-82774556D01*
X131028543Y-82775050D01*
X131017436Y-82776229D01*
X131006328Y-82778110D01*
X130995243Y-82780708D01*
X130984208Y-82784041D01*
X130973248Y-82788125D01*
X130964094Y-82791933D01*
X130955242Y-82796151D01*
X130946699Y-82800764D01*
X130938470Y-82805757D01*
X130930562Y-82811115D01*
X130922984Y-82816821D01*
X130915740Y-82822861D01*
X130908838Y-82829218D01*
X130902286Y-82835878D01*
X130896089Y-82842825D01*
X130890254Y-82850043D01*
X130884788Y-82857516D01*
X130879699Y-82865230D01*
X130874992Y-82873169D01*
X130870674Y-82881317D01*
X130866753Y-82889659D01*
X130863235Y-82898179D01*
X130860127Y-82906862D01*
X130857436Y-82915692D01*
X130855167Y-82924654D01*
X130853330Y-82933733D01*
X130851929Y-82942912D01*
X130850971Y-82952176D01*
X130850465Y-82961510D01*
X130850416Y-82970898D01*
X130324687Y-82970898D01*
X130940190Y-81904701D01*
X132530146Y-81904701D01*
X132530321Y-81912354D01*
X132581915Y-83027573D01*
X132630863Y-83025754D01*
X132655213Y-83025154D01*
X132679811Y-83024927D01*
X132704595Y-83025154D01*
X132729255Y-83025754D01*
X132753667Y-83026601D01*
X132777707Y-83027573D01*
X132829300Y-81912354D01*
X132829449Y-81904213D01*
X132829160Y-81896169D01*
X132828444Y-81888233D01*
X132827313Y-81880416D01*
X132825778Y-81872730D01*
X132823850Y-81865186D01*
X132821540Y-81857795D01*
X132818861Y-81850570D01*
X132815824Y-81843521D01*
X132812439Y-81836660D01*
X132808718Y-81829998D01*
X132804674Y-81823546D01*
X132800316Y-81817316D01*
X132795656Y-81811320D01*
X132790707Y-81805568D01*
X132785479Y-81800072D01*
X132779983Y-81794844D01*
X132774231Y-81789894D01*
X132768234Y-81785235D01*
X132762005Y-81780877D01*
X132755553Y-81776832D01*
X132748891Y-81773111D01*
X132742030Y-81769727D01*
X132734981Y-81766689D01*
X132727755Y-81764010D01*
X132720365Y-81761701D01*
X132712821Y-81759773D01*
X132705135Y-81758237D01*
X132697318Y-81757106D01*
X132689382Y-81756390D01*
X132681337Y-81756101D01*
X132673196Y-81756250D01*
X132665442Y-81756815D01*
X132657814Y-81757756D01*
X132650318Y-81759066D01*
X132642966Y-81760733D01*
X132635764Y-81762748D01*
X132628722Y-81765102D01*
X132621849Y-81767783D01*
X132615153Y-81770782D01*
X132608644Y-81774089D01*
X132602329Y-81777694D01*
X132596217Y-81781588D01*
X132590318Y-81785760D01*
X132584639Y-81790200D01*
X132579191Y-81794899D01*
X132573980Y-81799847D01*
X132569017Y-81805033D01*
X132564309Y-81810447D01*
X132559866Y-81816081D01*
X132555696Y-81821923D01*
X132551809Y-81827964D01*
X132548211Y-81834194D01*
X132544914Y-81840603D01*
X132541924Y-81847181D01*
X132539251Y-81853919D01*
X132536904Y-81860805D01*
X132534891Y-81867831D01*
X132533221Y-81874986D01*
X132531903Y-81882261D01*
X132530945Y-81889645D01*
X132530356Y-81897128D01*
X132530146Y-81904701D01*
X130940190Y-81904701D01*
X131442871Y-81033938D01*
X132339822Y-81033938D01*
X132340275Y-81051933D01*
X132341622Y-81069690D01*
X132343839Y-81087185D01*
X132346906Y-81104399D01*
X132350801Y-81121308D01*
X132355501Y-81137891D01*
X132360985Y-81154126D01*
X132367231Y-81169992D01*
X132374217Y-81185466D01*
X132381922Y-81200526D01*
X132390323Y-81215152D01*
X132399399Y-81229321D01*
X132409129Y-81243011D01*
X132419489Y-81256201D01*
X132430459Y-81268869D01*
X132442017Y-81280992D01*
X132454140Y-81292550D01*
X132466808Y-81303520D01*
X132479998Y-81313881D01*
X132493688Y-81323610D01*
X132507857Y-81332686D01*
X132522483Y-81341087D01*
X132537544Y-81348792D01*
X132553018Y-81355778D01*
X132568883Y-81362024D01*
X132585119Y-81367508D01*
X132601702Y-81372208D01*
X132618611Y-81376103D01*
X132635824Y-81379170D01*
X132653320Y-81381387D01*
X132671076Y-81382734D01*
X132689072Y-81383188D01*
X132707067Y-81382734D01*
X132724823Y-81381387D01*
X132742319Y-81379170D01*
X132759532Y-81376103D01*
X132776441Y-81372208D01*
X132793025Y-81367508D01*
X132809260Y-81362024D01*
X132825125Y-81355778D01*
X132840599Y-81348792D01*
X132855660Y-81341087D01*
X132870286Y-81332686D01*
X132884455Y-81323610D01*
X132898145Y-81313881D01*
X132911335Y-81303520D01*
X132924003Y-81292550D01*
X132936126Y-81280992D01*
X132947684Y-81268869D01*
X132958654Y-81256201D01*
X132969015Y-81243011D01*
X132978744Y-81229321D01*
X132987820Y-81215152D01*
X132996221Y-81200526D01*
X133003926Y-81185466D01*
X133010912Y-81169992D01*
X133017158Y-81154126D01*
X133022642Y-81137891D01*
X133027342Y-81121308D01*
X133031237Y-81104399D01*
X133034304Y-81087185D01*
X133036521Y-81069690D01*
X133037868Y-81051933D01*
X133038322Y-81033938D01*
X133037868Y-81015943D01*
X133036521Y-80998186D01*
X133034304Y-80980690D01*
X133031237Y-80963477D01*
X133027342Y-80946568D01*
X133022642Y-80929985D01*
X133017158Y-80913750D01*
X133010912Y-80897884D01*
X133003926Y-80882410D01*
X132996221Y-80867349D01*
X132987820Y-80852723D01*
X132978744Y-80838555D01*
X132969014Y-80824864D01*
X132958654Y-80811674D01*
X132947684Y-80799007D01*
X132936126Y-80786883D01*
X132924002Y-80775326D01*
X132911335Y-80764356D01*
X132898145Y-80753995D01*
X132884454Y-80744266D01*
X132870285Y-80735189D01*
X132855660Y-80726788D01*
X132840599Y-80719083D01*
X132825125Y-80712097D01*
X132809259Y-80705851D01*
X132793024Y-80700367D01*
X132776441Y-80695667D01*
X132759532Y-80691773D01*
X132742318Y-80688706D01*
X132724823Y-80686488D01*
X132707066Y-80685142D01*
X132689071Y-80684688D01*
X132671076Y-80685142D01*
X132653319Y-80686488D01*
X132635823Y-80688706D01*
X132618610Y-80691773D01*
X132601701Y-80695667D01*
X132585118Y-80700367D01*
X132568883Y-80705851D01*
X132553017Y-80712097D01*
X132537543Y-80719083D01*
X132522482Y-80726788D01*
X132507856Y-80735189D01*
X132493688Y-80744266D01*
X132479997Y-80753995D01*
X132466807Y-80764356D01*
X132454140Y-80775326D01*
X132442016Y-80786883D01*
X132430459Y-80799007D01*
X132419489Y-80811674D01*
X132409128Y-80824864D01*
X132399399Y-80838555D01*
X132390323Y-80852723D01*
X132381921Y-80867349D01*
X132374217Y-80882410D01*
X132367230Y-80897884D01*
X132360985Y-80913750D01*
X132355501Y-80929985D01*
X132350801Y-80946568D01*
X132346906Y-80963477D01*
X132343839Y-80980690D01*
X132341622Y-80998186D01*
X132340275Y-81015943D01*
X132339822Y-81033938D01*
X131442871Y-81033938D01*
X131704822Y-80580178D01*
X131745147Y-80515145D01*
X131789111Y-80453563D01*
X131836540Y-80395535D01*
X131887260Y-80341164D01*
X131941096Y-80290553D01*
X131997873Y-80243803D01*
X132057418Y-80201019D01*
X132119556Y-80162302D01*
X132184112Y-80127755D01*
X132250912Y-80097481D01*
X132319782Y-80071583D01*
X132390547Y-80050164D01*
X132463033Y-80033325D01*
X132537065Y-80021171D01*
X132612470Y-80013803D01*
X132689072Y-80011324D01*
X132727511Y-80011946D01*
X132765674Y-80013803D01*
X132803536Y-80016882D01*
X132841078Y-80021171D01*
X132878276Y-80026656D01*
X132915110Y-80033325D01*
X132951557Y-80041166D01*
X132987596Y-80050164D01*
X133023205Y-80060307D01*
X133058361Y-80071583D01*
X133093044Y-80083979D01*
X133127231Y-80097481D01*
X133160901Y-80112078D01*
X133194031Y-80127755D01*
X133226601Y-80144501D01*
X133258587Y-80162302D01*
X133289969Y-80181145D01*
X133320725Y-80201019D01*
X133350832Y-80221909D01*
X133380270Y-80243803D01*
X133409015Y-80266689D01*
X133437047Y-80290553D01*
X133464344Y-80315382D01*
X133490883Y-80341164D01*
X133516643Y-80367886D01*
X133541603Y-80395535D01*
X133565740Y-80424098D01*
X133589032Y-80453563D01*
X133611458Y-80483916D01*
X133632996Y-80515145D01*
X133653625Y-80547236D01*
X133673321Y-80580178D01*
X137694987Y-87546657D01*
X137717537Y-87587585D01*
X137738309Y-87628982D01*
X137774536Y-87713008D01*
X137803705Y-87798391D01*
X137825853Y-87884786D01*
X137841017Y-87971847D01*
X137849234Y-88059230D01*
X137850540Y-88146590D01*
X137844973Y-88233581D01*
X137832569Y-88319859D01*
X137813365Y-88405079D01*
X137787398Y-88488897D01*
X137754705Y-88570966D01*
X137715322Y-88650942D01*
X137669286Y-88728481D01*
X137616635Y-88803236D01*
X137587840Y-88839463D01*
X137557404Y-88874864D01*
X137492628Y-88941499D01*
X137424035Y-89001947D01*
X137351966Y-89056132D01*
X137276760Y-89103977D01*
X137198755Y-89145403D01*
X137118292Y-89180334D01*
X137035708Y-89208692D01*
X136951343Y-89230398D01*
X136865537Y-89245377D01*
X136778628Y-89253549D01*
X136690955Y-89254839D01*
X136602858Y-89249167D01*
X136514676Y-89236457D01*
X136426748Y-89216632D01*
X136339412Y-89189613D01*
X136253009Y-89155323D01*
X134162862Y-88233250D01*
X136353550Y-88233250D01*
X136354004Y-88251245D01*
X136355350Y-88269002D01*
X136357568Y-88286497D01*
X136360635Y-88303711D01*
X136364529Y-88320620D01*
X136369229Y-88337203D01*
X136374713Y-88353438D01*
X136380959Y-88369304D01*
X136387945Y-88384778D01*
X136395650Y-88399839D01*
X136404052Y-88414465D01*
X136413128Y-88428633D01*
X136422857Y-88442324D01*
X136433218Y-88455514D01*
X136444188Y-88468181D01*
X136455746Y-88480305D01*
X136467869Y-88491862D01*
X136480537Y-88502832D01*
X136493727Y-88513193D01*
X136507417Y-88522922D01*
X136521586Y-88531998D01*
X136536212Y-88540400D01*
X136551272Y-88548104D01*
X136566747Y-88555091D01*
X136582612Y-88561337D01*
X136598847Y-88566821D01*
X136615430Y-88571521D01*
X136632339Y-88575415D01*
X136649553Y-88578482D01*
X136667048Y-88580699D01*
X136684805Y-88582046D01*
X136702800Y-88582500D01*
X136720679Y-88582046D01*
X136738334Y-88580699D01*
X136755742Y-88578482D01*
X136772881Y-88575415D01*
X136789729Y-88571521D01*
X136806262Y-88566821D01*
X136822458Y-88561337D01*
X136838296Y-88555091D01*
X136853751Y-88548104D01*
X136868803Y-88540400D01*
X136883427Y-88531998D01*
X136897602Y-88522922D01*
X136911306Y-88513193D01*
X136924514Y-88502832D01*
X136937206Y-88491862D01*
X136949359Y-88480305D01*
X136960949Y-88468181D01*
X136971955Y-88455514D01*
X136982354Y-88442324D01*
X136992124Y-88428633D01*
X137001241Y-88414465D01*
X137009684Y-88399839D01*
X137017429Y-88384778D01*
X137024455Y-88369304D01*
X137030739Y-88353438D01*
X137036258Y-88337203D01*
X137040989Y-88320620D01*
X137044911Y-88303711D01*
X137048001Y-88286497D01*
X137050236Y-88269002D01*
X137051593Y-88251245D01*
X137052051Y-88233250D01*
X137051597Y-88215254D01*
X137050250Y-88197498D01*
X137048033Y-88180002D01*
X137044966Y-88162789D01*
X137041071Y-88145880D01*
X137036371Y-88129297D01*
X137030887Y-88113061D01*
X137024641Y-88097196D01*
X137017655Y-88081722D01*
X137009950Y-88066661D01*
X137001549Y-88052035D01*
X136992473Y-88037866D01*
X136982743Y-88024176D01*
X136972383Y-88010986D01*
X136961413Y-87998318D01*
X136949855Y-87986195D01*
X136937731Y-87974637D01*
X136925064Y-87963667D01*
X136911874Y-87953307D01*
X136898184Y-87943577D01*
X136884015Y-87934501D01*
X136869389Y-87926100D01*
X136854328Y-87918395D01*
X136838854Y-87911409D01*
X136822988Y-87905163D01*
X136806753Y-87899679D01*
X136790170Y-87894979D01*
X136773261Y-87891085D01*
X136756047Y-87888018D01*
X136738552Y-87885800D01*
X136720795Y-87884453D01*
X136702800Y-87884000D01*
X136684805Y-87884453D01*
X136667048Y-87885800D01*
X136649552Y-87888018D01*
X136632339Y-87891085D01*
X136615430Y-87894979D01*
X136598847Y-87899679D01*
X136582612Y-87905163D01*
X136566746Y-87911409D01*
X136551272Y-87918395D01*
X136536211Y-87926100D01*
X136521585Y-87934501D01*
X136507417Y-87943577D01*
X136493726Y-87953307D01*
X136480536Y-87963667D01*
X136467869Y-87974637D01*
X136455745Y-87986195D01*
X136444188Y-87998319D01*
X136433218Y-88010986D01*
X136422857Y-88024176D01*
X136413128Y-88037866D01*
X136404051Y-88052035D01*
X136395650Y-88066661D01*
X136387945Y-88081722D01*
X136380959Y-88097196D01*
X136374713Y-88113062D01*
X136369229Y-88129297D01*
X136364529Y-88145880D01*
X136360635Y-88162789D01*
X136357568Y-88180002D01*
X136355350Y-88197498D01*
X136354004Y-88215254D01*
X136353550Y-88233250D01*
X134162862Y-88233250D01*
X133853989Y-88096990D01*
X134424737Y-88096990D01*
X134643019Y-88180333D01*
X135443384Y-87749062D01*
X135449697Y-87745441D01*
X135455735Y-87741531D01*
X135461495Y-87737346D01*
X135466974Y-87732901D01*
X135472168Y-87728208D01*
X135477074Y-87723282D01*
X135481688Y-87718137D01*
X135486006Y-87712786D01*
X135490027Y-87707243D01*
X135493746Y-87701522D01*
X135497159Y-87695637D01*
X135500264Y-87689601D01*
X135503057Y-87683429D01*
X135505534Y-87677134D01*
X135507693Y-87670730D01*
X135509529Y-87664231D01*
X135511040Y-87657650D01*
X135512222Y-87651002D01*
X135513072Y-87644300D01*
X135513586Y-87637558D01*
X135513761Y-87630790D01*
X135513593Y-87624009D01*
X135513079Y-87617231D01*
X135512216Y-87610467D01*
X135511001Y-87603732D01*
X135509429Y-87597040D01*
X135507498Y-87590405D01*
X135505204Y-87583841D01*
X135502544Y-87577360D01*
X135499514Y-87570978D01*
X135496111Y-87564708D01*
X135492332Y-87558563D01*
X135488369Y-87552983D01*
X135484176Y-87547653D01*
X135479766Y-87542578D01*
X135475149Y-87537761D01*
X135470337Y-87533204D01*
X135465339Y-87528911D01*
X135460168Y-87524884D01*
X135454835Y-87521128D01*
X135449351Y-87517646D01*
X135443727Y-87514439D01*
X135437974Y-87511512D01*
X135432103Y-87508868D01*
X135426126Y-87506510D01*
X135420053Y-87504440D01*
X135413895Y-87502663D01*
X135407665Y-87501181D01*
X135401373Y-87499998D01*
X135395030Y-87499116D01*
X135388647Y-87498539D01*
X135382235Y-87498269D01*
X135375806Y-87498311D01*
X135369371Y-87498667D01*
X135362941Y-87499340D01*
X135356526Y-87500334D01*
X135350139Y-87501651D01*
X135343790Y-87503295D01*
X135337490Y-87505269D01*
X135331251Y-87507576D01*
X135325084Y-87510219D01*
X135318999Y-87513202D01*
X135313009Y-87516527D01*
X135307123Y-87520198D01*
X134424737Y-88096990D01*
X133853989Y-88096990D01*
X133410170Y-87901198D01*
G37*
G36*
X133647968Y-83817513D02*
G01*
X133651098Y-83818205D01*
X133654304Y-83819300D01*
X133657581Y-83820801D01*
X133660924Y-83822708D01*
X133664329Y-83825023D01*
X133667791Y-83827747D01*
X133671303Y-83830881D01*
X133674861Y-83834426D01*
X133678460Y-83838384D01*
X133682095Y-83842756D01*
X133685761Y-83847542D01*
X133689453Y-83852745D01*
X133693165Y-83858365D01*
X133809582Y-84039605D01*
X133817626Y-84051408D01*
X133826805Y-84062962D01*
X133837016Y-84074207D01*
X133848153Y-84085080D01*
X133860111Y-84095518D01*
X133872787Y-84105461D01*
X133886075Y-84114845D01*
X133899871Y-84123610D01*
X133914069Y-84131692D01*
X133928566Y-84139030D01*
X133943257Y-84145562D01*
X133958037Y-84151226D01*
X133972802Y-84155959D01*
X133987446Y-84159700D01*
X134001866Y-84162388D01*
X134015956Y-84163958D01*
X134230269Y-84181156D01*
X134237024Y-84181745D01*
X134243398Y-84182514D01*
X134249389Y-84183459D01*
X134254996Y-84184575D01*
X134260217Y-84185856D01*
X134265051Y-84187298D01*
X134269497Y-84188896D01*
X134273553Y-84190644D01*
X134277217Y-84192538D01*
X134280488Y-84194571D01*
X134283365Y-84196740D01*
X134285847Y-84199039D01*
X134287931Y-84201463D01*
X134289616Y-84204007D01*
X134290901Y-84206666D01*
X134291784Y-84209434D01*
X134292265Y-84212307D01*
X134292340Y-84215280D01*
X134292010Y-84218347D01*
X134291273Y-84221503D01*
X134290126Y-84224744D01*
X134288569Y-84228064D01*
X134286601Y-84231458D01*
X134284219Y-84234921D01*
X134281422Y-84238448D01*
X134278210Y-84242034D01*
X134274579Y-84245673D01*
X134270530Y-84249362D01*
X134266060Y-84253094D01*
X134261168Y-84256864D01*
X134255853Y-84260668D01*
X134250113Y-84264501D01*
X134068873Y-84379594D01*
X134057070Y-84387638D01*
X134045515Y-84396818D01*
X134034270Y-84407029D01*
X134023397Y-84418166D01*
X134012959Y-84430124D01*
X134003016Y-84442800D01*
X133993632Y-84456088D01*
X133984867Y-84469883D01*
X133976785Y-84484082D01*
X133969447Y-84498579D01*
X133962915Y-84513270D01*
X133957251Y-84528050D01*
X133952518Y-84542815D01*
X133948776Y-84557460D01*
X133946089Y-84571879D01*
X133944518Y-84585970D01*
X133927321Y-84800282D01*
X133926612Y-84807037D01*
X133925731Y-84813411D01*
X133924681Y-84819403D01*
X133923468Y-84825011D01*
X133922098Y-84830235D01*
X133920574Y-84835073D01*
X133918903Y-84839524D01*
X133917089Y-84843587D01*
X133915137Y-84847260D01*
X133913053Y-84850542D01*
X133910842Y-84853432D01*
X133908508Y-84855930D01*
X133906057Y-84858033D01*
X133903494Y-84859740D01*
X133900824Y-84861050D01*
X133898051Y-84861963D01*
X133895182Y-84862476D01*
X133892221Y-84862589D01*
X133889174Y-84862301D01*
X133886044Y-84861609D01*
X133882838Y-84860513D01*
X133879561Y-84859013D01*
X133876218Y-84857105D01*
X133872813Y-84854790D01*
X133869351Y-84852066D01*
X133865839Y-84848932D01*
X133862281Y-84845387D01*
X133858682Y-84841429D01*
X133855047Y-84837058D01*
X133851381Y-84832271D01*
X133847689Y-84827069D01*
X133843977Y-84821449D01*
X133728883Y-84640209D01*
X133720839Y-84628406D01*
X133711660Y-84616851D01*
X133701449Y-84605606D01*
X133690312Y-84594733D01*
X133678353Y-84584295D01*
X133665678Y-84574352D01*
X133652390Y-84564968D01*
X133638594Y-84556203D01*
X133624395Y-84548121D01*
X133609898Y-84540783D01*
X133595207Y-84534251D01*
X133580427Y-84528588D01*
X133565662Y-84523854D01*
X133551018Y-84520113D01*
X133536598Y-84517426D01*
X133522508Y-84515855D01*
X133308195Y-84498657D01*
X133301440Y-84497948D01*
X133295066Y-84497067D01*
X133289074Y-84496017D01*
X133283466Y-84494804D01*
X133278242Y-84493433D01*
X133273404Y-84491910D01*
X133268953Y-84490239D01*
X133264891Y-84488425D01*
X133261218Y-84486473D01*
X133257935Y-84484389D01*
X133255045Y-84482178D01*
X133252548Y-84479844D01*
X133250445Y-84477393D01*
X133248738Y-84474830D01*
X133247427Y-84472159D01*
X133246515Y-84469387D01*
X133246001Y-84466518D01*
X133245888Y-84463557D01*
X133246177Y-84460509D01*
X133246869Y-84457380D01*
X133247964Y-84454174D01*
X133249465Y-84450897D01*
X133251372Y-84447553D01*
X133253687Y-84444148D01*
X133256411Y-84440687D01*
X133259545Y-84437175D01*
X133263091Y-84433617D01*
X133267048Y-84430018D01*
X133271420Y-84426382D01*
X133276207Y-84422717D01*
X133281409Y-84419025D01*
X133287029Y-84415313D01*
X133468269Y-84300219D01*
X133480072Y-84292175D01*
X133491627Y-84282996D01*
X133502872Y-84272785D01*
X133513745Y-84261648D01*
X133524183Y-84249689D01*
X133534126Y-84237014D01*
X133543510Y-84223726D01*
X133552274Y-84209930D01*
X133560357Y-84195731D01*
X133567695Y-84181234D01*
X133574227Y-84166543D01*
X133579890Y-84151763D01*
X133584624Y-84136999D01*
X133588365Y-84122354D01*
X133591053Y-84107935D01*
X133592624Y-84093844D01*
X133609821Y-83879532D01*
X133610530Y-83872776D01*
X133611411Y-83866402D01*
X133612461Y-83860410D01*
X133613674Y-83854802D01*
X133615044Y-83849578D01*
X133616568Y-83844740D01*
X133618239Y-83840289D01*
X133620053Y-83836227D01*
X133622005Y-83832554D01*
X133624089Y-83829271D01*
X133626300Y-83826381D01*
X133628634Y-83823884D01*
X133631085Y-83821781D01*
X133633648Y-83820074D01*
X133636319Y-83818763D01*
X133639091Y-83817851D01*
X133641960Y-83817337D01*
X133644921Y-83817224D01*
X133647968Y-83817513D01*
G37*
D11*
X118456971Y-84245485D02*
X118456971Y-84531200D01*
X118528400Y-84674057D01*
X118599828Y-84745485D01*
X118814114Y-84888342D01*
X119099828Y-84959771D01*
X119671257Y-84959771D01*
X119814114Y-84888342D01*
X119885542Y-84816914D01*
X119956971Y-84674057D01*
X119956971Y-84388342D01*
X119885542Y-84245485D01*
X119814114Y-84174057D01*
X119671257Y-84102628D01*
X119314114Y-84102628D01*
X119171257Y-84174057D01*
X119099828Y-84245485D01*
X119028400Y-84388342D01*
X119028400Y-84674057D01*
X119099828Y-84816914D01*
X119171257Y-84888342D01*
X119314114Y-84959771D01*
X198036571Y-97516914D02*
X198036571Y-98374057D01*
X198036571Y-97945485D02*
X196536571Y-97945485D01*
X196750857Y-98088342D01*
X196893714Y-98231200D01*
X196965142Y-98374057D01*
X196536571Y-97016914D02*
X196536571Y-96016914D01*
X198036571Y-96659771D01*
X119049028Y-73701257D02*
X118977600Y-73844114D01*
X118906171Y-73915542D01*
X118763314Y-73986971D01*
X118691885Y-73986971D01*
X118549028Y-73915542D01*
X118477600Y-73844114D01*
X118406171Y-73701257D01*
X118406171Y-73415542D01*
X118477600Y-73272685D01*
X118549028Y-73201257D01*
X118691885Y-73129828D01*
X118763314Y-73129828D01*
X118906171Y-73201257D01*
X118977600Y-73272685D01*
X119049028Y-73415542D01*
X119049028Y-73701257D01*
X119120457Y-73844114D01*
X119191885Y-73915542D01*
X119334742Y-73986971D01*
X119620457Y-73986971D01*
X119763314Y-73915542D01*
X119834742Y-73844114D01*
X119906171Y-73701257D01*
X119906171Y-73415542D01*
X119834742Y-73272685D01*
X119763314Y-73201257D01*
X119620457Y-73129828D01*
X119334742Y-73129828D01*
X119191885Y-73201257D01*
X119120457Y-73272685D01*
X119049028Y-73415542D01*
X133157542Y-45816057D02*
X133371828Y-45887485D01*
X133443257Y-45958914D01*
X133514685Y-46101771D01*
X133514685Y-46316057D01*
X133443257Y-46458914D01*
X133371828Y-46530342D01*
X133228971Y-46601771D01*
X132657542Y-46601771D01*
X132657542Y-45101771D01*
X133157542Y-45101771D01*
X133300400Y-45173200D01*
X133371828Y-45244628D01*
X133443257Y-45387485D01*
X133443257Y-45530342D01*
X133371828Y-45673200D01*
X133300400Y-45744628D01*
X133157542Y-45816057D01*
X132657542Y-45816057D01*
X122943257Y-45173200D02*
X122800400Y-45101771D01*
X122586114Y-45101771D01*
X122371828Y-45173200D01*
X122228971Y-45316057D01*
X122157542Y-45458914D01*
X122086114Y-45744628D01*
X122086114Y-45958914D01*
X122157542Y-46244628D01*
X122228971Y-46387485D01*
X122371828Y-46530342D01*
X122586114Y-46601771D01*
X122728971Y-46601771D01*
X122943257Y-46530342D01*
X123014685Y-46458914D01*
X123014685Y-45958914D01*
X122728971Y-45958914D01*
X101888171Y-88766685D02*
X102888171Y-88766685D01*
X101316742Y-89123828D02*
X102388171Y-89480971D01*
X102388171Y-88552400D01*
X119956971Y-104930628D02*
X119956971Y-105787771D01*
X119956971Y-105359200D02*
X118456971Y-105359200D01*
X118671257Y-105502057D01*
X118814114Y-105644914D01*
X118885542Y-105787771D01*
D12*
X170545238Y-45324780D02*
X170069047Y-45324780D01*
X170021428Y-45800971D01*
X170069047Y-45753352D01*
X170164285Y-45705733D01*
X170402380Y-45705733D01*
X170497619Y-45753352D01*
X170545238Y-45800971D01*
X170592857Y-45896209D01*
X170592857Y-46134304D01*
X170545238Y-46229542D01*
X170497619Y-46277161D01*
X170402380Y-46324780D01*
X170164285Y-46324780D01*
X170069047Y-46277161D01*
X170021428Y-46229542D01*
X170783333Y-46420019D02*
X171545238Y-46420019D01*
X171783333Y-46324780D02*
X171783333Y-45324780D01*
X172259523Y-46324780D02*
X172259523Y-45324780D01*
X172830952Y-46324780D01*
X172830952Y-45324780D01*
D11*
X129960228Y-90707871D02*
X129960228Y-89207871D01*
X130531657Y-89207871D01*
X130674514Y-89279300D01*
X130745942Y-89350728D01*
X130817371Y-89493585D01*
X130817371Y-89707871D01*
X130745942Y-89850728D01*
X130674514Y-89922157D01*
X130531657Y-89993585D01*
X129960228Y-89993585D01*
X131460228Y-90707871D02*
X131460228Y-89207871D01*
X132031657Y-89207871D01*
X132174514Y-89279300D01*
X132245942Y-89350728D01*
X132317371Y-89493585D01*
X132317371Y-89707871D01*
X132245942Y-89850728D01*
X132174514Y-89922157D01*
X132031657Y-89993585D01*
X131460228Y-89993585D01*
X132960228Y-89207871D02*
X132960228Y-90422157D01*
X133031657Y-90565014D01*
X133103085Y-90636442D01*
X133245942Y-90707871D01*
X133531657Y-90707871D01*
X133674514Y-90636442D01*
X133745942Y-90565014D01*
X133817371Y-90422157D01*
X133817371Y-89207871D01*
X135388800Y-90565014D02*
X135317371Y-90636442D01*
X135103085Y-90707871D01*
X134960228Y-90707871D01*
X134745942Y-90636442D01*
X134603085Y-90493585D01*
X134531657Y-90350728D01*
X134460228Y-90065014D01*
X134460228Y-89850728D01*
X134531657Y-89565014D01*
X134603085Y-89422157D01*
X134745942Y-89279300D01*
X134960228Y-89207871D01*
X135103085Y-89207871D01*
X135317371Y-89279300D01*
X135388800Y-89350728D01*
X128067371Y-91622871D02*
X128353085Y-91622871D01*
X128495942Y-91694300D01*
X128638800Y-91837157D01*
X128710228Y-92122871D01*
X128710228Y-92622871D01*
X128638800Y-92908585D01*
X128495942Y-93051442D01*
X128353085Y-93122871D01*
X128067371Y-93122871D01*
X127924514Y-93051442D01*
X127781657Y-92908585D01*
X127710228Y-92622871D01*
X127710228Y-92122871D01*
X127781657Y-91837157D01*
X127924514Y-91694300D01*
X128067371Y-91622871D01*
X129995942Y-92122871D02*
X129995942Y-93122871D01*
X129353085Y-92122871D02*
X129353085Y-92908585D01*
X129424514Y-93051442D01*
X129567371Y-93122871D01*
X129781657Y-93122871D01*
X129924514Y-93051442D01*
X129995942Y-92980014D01*
X130495942Y-92122871D02*
X131067371Y-92122871D01*
X130710228Y-91622871D02*
X130710228Y-92908585D01*
X130781657Y-93051442D01*
X130924514Y-93122871D01*
X131067371Y-93122871D01*
X131210228Y-93265728D02*
X132353085Y-93265728D01*
X132924514Y-92265728D02*
X132781657Y-92194300D01*
X132710228Y-92122871D01*
X132638800Y-91980014D01*
X132638800Y-91908585D01*
X132710228Y-91765728D01*
X132781657Y-91694300D01*
X132924514Y-91622871D01*
X133210228Y-91622871D01*
X133353085Y-91694300D01*
X133424514Y-91765728D01*
X133495942Y-91908585D01*
X133495942Y-91980014D01*
X133424514Y-92122871D01*
X133353085Y-92194300D01*
X133210228Y-92265728D01*
X132924514Y-92265728D01*
X132781657Y-92337157D01*
X132710228Y-92408585D01*
X132638800Y-92551442D01*
X132638800Y-92837157D01*
X132710228Y-92980014D01*
X132781657Y-93051442D01*
X132924514Y-93122871D01*
X133210228Y-93122871D01*
X133353085Y-93051442D01*
X133424514Y-92980014D01*
X133495942Y-92837157D01*
X133495942Y-92551442D01*
X133424514Y-92408585D01*
X133353085Y-92337157D01*
X133210228Y-92265728D01*
X133995942Y-93122871D02*
X134781657Y-92122871D01*
X133995942Y-92122871D02*
X134781657Y-93122871D01*
X136138800Y-93122871D02*
X135281657Y-93122871D01*
X135710228Y-93122871D02*
X135710228Y-91622871D01*
X135567371Y-91837157D01*
X135424514Y-91980014D01*
X135281657Y-92051442D01*
X137067371Y-91622871D02*
X137210228Y-91622871D01*
X137353085Y-91694300D01*
X137424514Y-91765728D01*
X137495942Y-91908585D01*
X137567371Y-92194300D01*
X137567371Y-92551442D01*
X137495942Y-92837157D01*
X137424514Y-92980014D01*
X137353085Y-93051442D01*
X137210228Y-93122871D01*
X137067371Y-93122871D01*
X136924514Y-93051442D01*
X136853085Y-92980014D01*
X136781657Y-92837157D01*
X136710228Y-92551442D01*
X136710228Y-92194300D01*
X136781657Y-91908585D01*
X136853085Y-91765728D01*
X136924514Y-91694300D01*
X137067371Y-91622871D01*
X198036571Y-89541314D02*
X198036571Y-90398457D01*
X198036571Y-89969885D02*
X196536571Y-89969885D01*
X196750857Y-90112742D01*
X196893714Y-90255600D01*
X196965142Y-90398457D01*
X196536571Y-88184171D02*
X196536571Y-88898457D01*
X197250857Y-88969885D01*
X197179428Y-88898457D01*
X197108000Y-88755600D01*
X197108000Y-88398457D01*
X197179428Y-88255600D01*
X197250857Y-88184171D01*
X197393714Y-88112742D01*
X197750857Y-88112742D01*
X197893714Y-88184171D01*
X197965142Y-88255600D01*
X198036571Y-88398457D01*
X198036571Y-88755600D01*
X197965142Y-88898457D01*
X197893714Y-88969885D01*
X101388171Y-83737485D02*
X101388171Y-84023200D01*
X101459600Y-84166057D01*
X101531028Y-84237485D01*
X101745314Y-84380342D01*
X102031028Y-84451771D01*
X102602457Y-84451771D01*
X102745314Y-84380342D01*
X102816742Y-84308914D01*
X102888171Y-84166057D01*
X102888171Y-83880342D01*
X102816742Y-83737485D01*
X102745314Y-83666057D01*
X102602457Y-83594628D01*
X102245314Y-83594628D01*
X102102457Y-83666057D01*
X102031028Y-83737485D01*
X101959600Y-83880342D01*
X101959600Y-84166057D01*
X102031028Y-84308914D01*
X102102457Y-84380342D01*
X102245314Y-84451771D01*
X118609371Y-89965257D02*
X118609371Y-90679542D01*
X119323657Y-90750971D01*
X119252228Y-90679542D01*
X119180800Y-90536685D01*
X119180800Y-90179542D01*
X119252228Y-90036685D01*
X119323657Y-89965257D01*
X119466514Y-89893828D01*
X119823657Y-89893828D01*
X119966514Y-89965257D01*
X120037942Y-90036685D01*
X120109371Y-90179542D01*
X120109371Y-90536685D01*
X120037942Y-90679542D01*
X119966514Y-90750971D01*
X101438971Y-92143200D02*
X101438971Y-91214628D01*
X102010400Y-91714628D01*
X102010400Y-91500342D01*
X102081828Y-91357485D01*
X102153257Y-91286057D01*
X102296114Y-91214628D01*
X102653257Y-91214628D01*
X102796114Y-91286057D01*
X102867542Y-91357485D01*
X102938971Y-91500342D01*
X102938971Y-91928914D01*
X102867542Y-92071771D01*
X102796114Y-92143200D01*
D12*
X167040038Y-45324780D02*
X166563847Y-45324780D01*
X166516228Y-45800971D01*
X166563847Y-45753352D01*
X166659085Y-45705733D01*
X166897180Y-45705733D01*
X166992419Y-45753352D01*
X167040038Y-45800971D01*
X167087657Y-45896209D01*
X167087657Y-46134304D01*
X167040038Y-46229542D01*
X166992419Y-46277161D01*
X166897180Y-46324780D01*
X166659085Y-46324780D01*
X166563847Y-46277161D01*
X166516228Y-46229542D01*
X167278133Y-46420019D02*
X168040038Y-46420019D01*
X168278133Y-46324780D02*
X168278133Y-45324780D01*
X168754323Y-46324780D02*
X168754323Y-45324780D01*
X169325752Y-46324780D01*
X169325752Y-45324780D01*
D11*
X161225657Y-45173200D02*
X161082800Y-45101771D01*
X160868514Y-45101771D01*
X160654228Y-45173200D01*
X160511371Y-45316057D01*
X160439942Y-45458914D01*
X160368514Y-45744628D01*
X160368514Y-45958914D01*
X160439942Y-46244628D01*
X160511371Y-46387485D01*
X160654228Y-46530342D01*
X160868514Y-46601771D01*
X161011371Y-46601771D01*
X161225657Y-46530342D01*
X161297085Y-46458914D01*
X161297085Y-45958914D01*
X161011371Y-45958914D01*
X197985771Y-69881714D02*
X197985771Y-70738857D01*
X197985771Y-70310285D02*
X196485771Y-70310285D01*
X196700057Y-70453142D01*
X196842914Y-70596000D01*
X196914342Y-70738857D01*
X197985771Y-68453142D02*
X197985771Y-69310285D01*
X197985771Y-68881714D02*
X196485771Y-68881714D01*
X196700057Y-69024571D01*
X196842914Y-69167428D01*
X196914342Y-69310285D01*
X102888171Y-98936228D02*
X102888171Y-99793371D01*
X102888171Y-99364800D02*
X101388171Y-99364800D01*
X101602457Y-99507657D01*
X101745314Y-99650514D01*
X101816742Y-99793371D01*
X101980228Y-79086057D02*
X101908800Y-79228914D01*
X101837371Y-79300342D01*
X101694514Y-79371771D01*
X101623085Y-79371771D01*
X101480228Y-79300342D01*
X101408800Y-79228914D01*
X101337371Y-79086057D01*
X101337371Y-78800342D01*
X101408800Y-78657485D01*
X101480228Y-78586057D01*
X101623085Y-78514628D01*
X101694514Y-78514628D01*
X101837371Y-78586057D01*
X101908800Y-78657485D01*
X101980228Y-78800342D01*
X101980228Y-79086057D01*
X102051657Y-79228914D01*
X102123085Y-79300342D01*
X102265942Y-79371771D01*
X102551657Y-79371771D01*
X102694514Y-79300342D01*
X102765942Y-79228914D01*
X102837371Y-79086057D01*
X102837371Y-78800342D01*
X102765942Y-78657485D01*
X102694514Y-78586057D01*
X102551657Y-78514628D01*
X102265942Y-78514628D01*
X102123085Y-78586057D01*
X102051657Y-78657485D01*
X101980228Y-78800342D01*
X198036571Y-77755714D02*
X198036571Y-78612857D01*
X198036571Y-78184285D02*
X196536571Y-78184285D01*
X196750857Y-78327142D01*
X196893714Y-78470000D01*
X196965142Y-78612857D01*
X196679428Y-77184285D02*
X196608000Y-77112857D01*
X196536571Y-76970000D01*
X196536571Y-76612857D01*
X196608000Y-76470000D01*
X196679428Y-76398571D01*
X196822285Y-76327142D01*
X196965142Y-76327142D01*
X197179428Y-76398571D01*
X198036571Y-77255714D01*
X198036571Y-76327142D01*
X163189942Y-45244628D02*
X163261371Y-45173200D01*
X163404228Y-45101771D01*
X163761371Y-45101771D01*
X163904228Y-45173200D01*
X163975657Y-45244628D01*
X164047085Y-45387485D01*
X164047085Y-45530342D01*
X163975657Y-45744628D01*
X163118514Y-46601771D01*
X164047085Y-46601771D01*
X165404228Y-45101771D02*
X164689942Y-45101771D01*
X164618514Y-45816057D01*
X164689942Y-45744628D01*
X164832800Y-45673200D01*
X165189942Y-45673200D01*
X165332800Y-45744628D01*
X165404228Y-45816057D01*
X165475657Y-45958914D01*
X165475657Y-46316057D01*
X165404228Y-46458914D01*
X165332800Y-46530342D01*
X165189942Y-46601771D01*
X164832800Y-46601771D01*
X164689942Y-46530342D01*
X164618514Y-46458914D01*
X136193257Y-46173200D02*
X136907542Y-46173200D01*
X136050400Y-46601771D02*
X136550400Y-45101771D01*
X137050400Y-46601771D01*
X118680800Y-59703542D02*
X118609371Y-59846400D01*
X118609371Y-60060685D01*
X118680800Y-60274971D01*
X118823657Y-60417828D01*
X118966514Y-60489257D01*
X119252228Y-60560685D01*
X119466514Y-60560685D01*
X119752228Y-60489257D01*
X119895085Y-60417828D01*
X120037942Y-60274971D01*
X120109371Y-60060685D01*
X120109371Y-59917828D01*
X120037942Y-59703542D01*
X119966514Y-59632114D01*
X119466514Y-59632114D01*
X119466514Y-59917828D01*
X119906171Y-69881714D02*
X119906171Y-69596000D01*
X119834742Y-69453142D01*
X119763314Y-69381714D01*
X119549028Y-69238857D01*
X119263314Y-69167428D01*
X118691885Y-69167428D01*
X118549028Y-69238857D01*
X118477600Y-69310285D01*
X118406171Y-69453142D01*
X118406171Y-69738857D01*
X118477600Y-69881714D01*
X118549028Y-69953142D01*
X118691885Y-70024571D01*
X119049028Y-70024571D01*
X119191885Y-69953142D01*
X119263314Y-69881714D01*
X119334742Y-69738857D01*
X119334742Y-69453142D01*
X119263314Y-69310285D01*
X119191885Y-69238857D01*
X119049028Y-69167428D01*
X118701428Y-101774571D02*
X118630000Y-101703142D01*
X118558571Y-101560285D01*
X118558571Y-101203142D01*
X118630000Y-101060285D01*
X118701428Y-100988857D01*
X118844285Y-100917428D01*
X118987142Y-100917428D01*
X119201428Y-100988857D01*
X120058571Y-101846000D01*
X120058571Y-100917428D01*
X198036571Y-101377714D02*
X198036571Y-102234857D01*
X198036571Y-101806285D02*
X196536571Y-101806285D01*
X196750857Y-101949142D01*
X196893714Y-102092000D01*
X196965142Y-102234857D01*
X197179428Y-100520571D02*
X197108000Y-100663428D01*
X197036571Y-100734857D01*
X196893714Y-100806285D01*
X196822285Y-100806285D01*
X196679428Y-100734857D01*
X196608000Y-100663428D01*
X196536571Y-100520571D01*
X196536571Y-100234857D01*
X196608000Y-100092000D01*
X196679428Y-100020571D01*
X196822285Y-99949142D01*
X196893714Y-99949142D01*
X197036571Y-100020571D01*
X197108000Y-100092000D01*
X197179428Y-100234857D01*
X197179428Y-100520571D01*
X197250857Y-100663428D01*
X197322285Y-100734857D01*
X197465142Y-100806285D01*
X197750857Y-100806285D01*
X197893714Y-100734857D01*
X197965142Y-100663428D01*
X198036571Y-100520571D01*
X198036571Y-100234857D01*
X197965142Y-100092000D01*
X197893714Y-100020571D01*
X197750857Y-99949142D01*
X197465142Y-99949142D01*
X197322285Y-100020571D01*
X197250857Y-100092000D01*
X197179428Y-100234857D01*
X118855371Y-93592685D02*
X119855371Y-93592685D01*
X118283942Y-93949828D02*
X119355371Y-94306971D01*
X119355371Y-93378400D01*
X126443257Y-45173200D02*
X126300400Y-45101771D01*
X126086114Y-45101771D01*
X125871828Y-45173200D01*
X125728971Y-45316057D01*
X125657542Y-45458914D01*
X125586114Y-45744628D01*
X125586114Y-45958914D01*
X125657542Y-46244628D01*
X125728971Y-46387485D01*
X125871828Y-46530342D01*
X126086114Y-46601771D01*
X126228971Y-46601771D01*
X126443257Y-46530342D01*
X126514685Y-46458914D01*
X126514685Y-45958914D01*
X126228971Y-45958914D01*
X101388171Y-86206057D02*
X101388171Y-86920342D01*
X102102457Y-86991771D01*
X102031028Y-86920342D01*
X101959600Y-86777485D01*
X101959600Y-86420342D01*
X102031028Y-86277485D01*
X102102457Y-86206057D01*
X102245314Y-86134628D01*
X102602457Y-86134628D01*
X102745314Y-86206057D01*
X102816742Y-86277485D01*
X102888171Y-86420342D01*
X102888171Y-86777485D01*
X102816742Y-86920342D01*
X102745314Y-86991771D01*
X198087371Y-85782114D02*
X198087371Y-86639257D01*
X198087371Y-86210685D02*
X196587371Y-86210685D01*
X196801657Y-86353542D01*
X196944514Y-86496400D01*
X197015942Y-86639257D01*
X197087371Y-84496400D02*
X198087371Y-84496400D01*
X196515942Y-84853542D02*
X197587371Y-85210685D01*
X197587371Y-84282114D01*
X101480228Y-97253371D02*
X101408800Y-97181942D01*
X101337371Y-97039085D01*
X101337371Y-96681942D01*
X101408800Y-96539085D01*
X101480228Y-96467657D01*
X101623085Y-96396228D01*
X101765942Y-96396228D01*
X101980228Y-96467657D01*
X102837371Y-97324800D01*
X102837371Y-96396228D01*
D12*
X119906171Y-66484476D02*
X119906171Y-67055904D01*
X119906171Y-66770190D02*
X118406171Y-66770190D01*
X118620457Y-66865428D01*
X118763314Y-66960666D01*
X118834742Y-67055904D01*
X118406171Y-65865428D02*
X118406171Y-65770190D01*
X118477600Y-65674952D01*
X118549028Y-65627333D01*
X118691885Y-65579714D01*
X118977600Y-65532095D01*
X119334742Y-65532095D01*
X119620457Y-65579714D01*
X119763314Y-65627333D01*
X119834742Y-65674952D01*
X119906171Y-65770190D01*
X119906171Y-65865428D01*
X119834742Y-65960666D01*
X119763314Y-66008285D01*
X119620457Y-66055904D01*
X119334742Y-66103523D01*
X118977600Y-66103523D01*
X118691885Y-66055904D01*
X118549028Y-66008285D01*
X118477600Y-65960666D01*
X118406171Y-65865428D01*
D11*
X198036571Y-93554514D02*
X198036571Y-94411657D01*
X198036571Y-93983085D02*
X196536571Y-93983085D01*
X196750857Y-94125942D01*
X196893714Y-94268800D01*
X196965142Y-94411657D01*
X196536571Y-92268800D02*
X196536571Y-92554514D01*
X196608000Y-92697371D01*
X196679428Y-92768800D01*
X196893714Y-92911657D01*
X197179428Y-92983085D01*
X197750857Y-92983085D01*
X197893714Y-92911657D01*
X197965142Y-92840228D01*
X198036571Y-92697371D01*
X198036571Y-92411657D01*
X197965142Y-92268800D01*
X197893714Y-92197371D01*
X197750857Y-92125942D01*
X197393714Y-92125942D01*
X197250857Y-92197371D01*
X197179428Y-92268800D01*
X197108000Y-92411657D01*
X197108000Y-92697371D01*
X197179428Y-92840228D01*
X197250857Y-92911657D01*
X197393714Y-92983085D01*
X196679428Y-107449714D02*
X196608000Y-107378285D01*
X196536571Y-107235428D01*
X196536571Y-106878285D01*
X196608000Y-106735428D01*
X196679428Y-106664000D01*
X196822285Y-106592571D01*
X196965142Y-106592571D01*
X197179428Y-106664000D01*
X198036571Y-107521142D01*
X198036571Y-106592571D01*
X196536571Y-105664000D02*
X196536571Y-105521142D01*
X196608000Y-105378285D01*
X196679428Y-105306857D01*
X196822285Y-105235428D01*
X197108000Y-105164000D01*
X197465142Y-105164000D01*
X197750857Y-105235428D01*
X197893714Y-105306857D01*
X197965142Y-105378285D01*
X198036571Y-105521142D01*
X198036571Y-105664000D01*
X197965142Y-105806857D01*
X197893714Y-105878285D01*
X197750857Y-105949714D01*
X197465142Y-106021142D01*
X197108000Y-106021142D01*
X196822285Y-105949714D01*
X196679428Y-105878285D01*
X196608000Y-105806857D01*
X196536571Y-105664000D01*
X196536571Y-104735428D02*
X198036571Y-104235428D01*
X196536571Y-103735428D01*
X119355857Y-45159000D02*
X119213000Y-45087571D01*
X118998714Y-45087571D01*
X118784428Y-45159000D01*
X118641571Y-45301857D01*
X118570142Y-45444714D01*
X118498714Y-45730428D01*
X118498714Y-45944714D01*
X118570142Y-46230428D01*
X118641571Y-46373285D01*
X118784428Y-46516142D01*
X118998714Y-46587571D01*
X119141571Y-46587571D01*
X119355857Y-46516142D01*
X119427285Y-46444714D01*
X119427285Y-45944714D01*
X119141571Y-45944714D01*
D12*
X176606438Y-45420019D02*
X176654057Y-45372400D01*
X176749295Y-45324780D01*
X176987390Y-45324780D01*
X177082628Y-45372400D01*
X177130247Y-45420019D01*
X177177866Y-45515257D01*
X177177866Y-45610495D01*
X177130247Y-45753352D01*
X176558819Y-46324780D01*
X177177866Y-46324780D01*
X177796914Y-45324780D02*
X177892152Y-45324780D01*
X177987390Y-45372400D01*
X178035009Y-45420019D01*
X178082628Y-45515257D01*
X178130247Y-45705733D01*
X178130247Y-45943828D01*
X178082628Y-46134304D01*
X178035009Y-46229542D01*
X177987390Y-46277161D01*
X177892152Y-46324780D01*
X177796914Y-46324780D01*
X177701676Y-46277161D01*
X177654057Y-46229542D01*
X177606438Y-46134304D01*
X177558819Y-45943828D01*
X177558819Y-45705733D01*
X177606438Y-45515257D01*
X177654057Y-45420019D01*
X177701676Y-45372400D01*
X177796914Y-45324780D01*
X178320723Y-46420019D02*
X179082628Y-46420019D01*
X179320723Y-46324780D02*
X179320723Y-45324780D01*
X179796914Y-46324780D02*
X179796914Y-45324780D01*
X180368342Y-46324780D01*
X180368342Y-45324780D01*
D11*
X198036571Y-81667314D02*
X198036571Y-82524457D01*
X198036571Y-82095885D02*
X196536571Y-82095885D01*
X196750857Y-82238742D01*
X196893714Y-82381600D01*
X196965142Y-82524457D01*
X196536571Y-81167314D02*
X196536571Y-80238742D01*
X197108000Y-80738742D01*
X197108000Y-80524457D01*
X197179428Y-80381600D01*
X197250857Y-80310171D01*
X197393714Y-80238742D01*
X197750857Y-80238742D01*
X197893714Y-80310171D01*
X197965142Y-80381600D01*
X198036571Y-80524457D01*
X198036571Y-80953028D01*
X197965142Y-81095885D01*
X197893714Y-81167314D01*
X101388171Y-81983200D02*
X101388171Y-80983200D01*
X102888171Y-81626057D01*
X175225657Y-45173200D02*
X175082800Y-45101771D01*
X174868514Y-45101771D01*
X174654228Y-45173200D01*
X174511371Y-45316057D01*
X174439942Y-45458914D01*
X174368514Y-45744628D01*
X174368514Y-45958914D01*
X174439942Y-46244628D01*
X174511371Y-46387485D01*
X174654228Y-46530342D01*
X174868514Y-46601771D01*
X175011371Y-46601771D01*
X175225657Y-46530342D01*
X175297085Y-46458914D01*
X175297085Y-45958914D01*
X175011371Y-45958914D01*
X127586114Y-46530342D02*
X127800400Y-46601771D01*
X128157542Y-46601771D01*
X128300400Y-46530342D01*
X128371828Y-46458914D01*
X128443257Y-46316057D01*
X128443257Y-46173200D01*
X128371828Y-46030342D01*
X128300400Y-45958914D01*
X128157542Y-45887485D01*
X127871828Y-45816057D01*
X127728971Y-45744628D01*
X127657542Y-45673200D01*
X127586114Y-45530342D01*
X127586114Y-45387485D01*
X127657542Y-45244628D01*
X127728971Y-45173200D01*
X127871828Y-45101771D01*
X128228971Y-45101771D01*
X128443257Y-45173200D01*
X129086114Y-46601771D02*
X129086114Y-45101771D01*
X129086114Y-45816057D02*
X129943257Y-45816057D01*
X129943257Y-46601771D02*
X129943257Y-45101771D01*
X130657542Y-46601771D02*
X130657542Y-45101771D01*
X131014685Y-45101771D01*
X131228971Y-45173200D01*
X131371828Y-45316057D01*
X131443257Y-45458914D01*
X131514685Y-45744628D01*
X131514685Y-45958914D01*
X131443257Y-46244628D01*
X131371828Y-46387485D01*
X131228971Y-46530342D01*
X131014685Y-46601771D01*
X130657542Y-46601771D01*
X118456971Y-97934400D02*
X118456971Y-97005828D01*
X119028400Y-97505828D01*
X119028400Y-97291542D01*
X119099828Y-97148685D01*
X119171257Y-97077257D01*
X119314114Y-97005828D01*
X119671257Y-97005828D01*
X119814114Y-97077257D01*
X119885542Y-97148685D01*
X119956971Y-97291542D01*
X119956971Y-97720114D01*
X119885542Y-97862971D01*
X119814114Y-97934400D01*
X118456971Y-77970000D02*
X118456971Y-76970000D01*
X119956971Y-77612857D01*
D13*
X151255142Y-90933542D02*
X151207523Y-90981161D01*
X151064666Y-91028780D01*
X150969428Y-91028780D01*
X150826571Y-90981161D01*
X150731333Y-90885923D01*
X150683714Y-90790685D01*
X150636095Y-90600209D01*
X150636095Y-90457352D01*
X150683714Y-90266876D01*
X150731333Y-90171638D01*
X150826571Y-90076400D01*
X150969428Y-90028780D01*
X151064666Y-90028780D01*
X151207523Y-90076400D01*
X151255142Y-90124019D01*
X152207523Y-91028780D02*
X151636095Y-91028780D01*
X151921809Y-91028780D02*
X151921809Y-90028780D01*
X151826571Y-90171638D01*
X151731333Y-90266876D01*
X151636095Y-90314495D01*
X153112285Y-90028780D02*
X152636095Y-90028780D01*
X152588476Y-90504971D01*
X152636095Y-90457352D01*
X152731333Y-90409733D01*
X152969428Y-90409733D01*
X153064666Y-90457352D01*
X153112285Y-90504971D01*
X153159904Y-90600209D01*
X153159904Y-90838304D01*
X153112285Y-90933542D01*
X153064666Y-90981161D01*
X152969428Y-91028780D01*
X152731333Y-91028780D01*
X152636095Y-90981161D01*
X152588476Y-90933542D01*
X141238095Y-48376380D02*
X141809523Y-48376380D01*
X141523809Y-49376380D02*
X141523809Y-48376380D01*
X142142857Y-49376380D02*
X142142857Y-48376380D01*
X142523809Y-48376380D01*
X142619047Y-48424000D01*
X142666666Y-48471619D01*
X142714285Y-48566857D01*
X142714285Y-48709714D01*
X142666666Y-48804952D01*
X142619047Y-48852571D01*
X142523809Y-48900190D01*
X142142857Y-48900190D01*
X143619047Y-48376380D02*
X143142857Y-48376380D01*
X143095238Y-48852571D01*
X143142857Y-48804952D01*
X143238095Y-48757333D01*
X143476190Y-48757333D01*
X143571428Y-48804952D01*
X143619047Y-48852571D01*
X143666666Y-48947809D01*
X143666666Y-49185904D01*
X143619047Y-49281142D01*
X143571428Y-49328761D01*
X143476190Y-49376380D01*
X143238095Y-49376380D01*
X143142857Y-49328761D01*
X143095238Y-49281142D01*
X145690400Y-98769466D02*
X145723733Y-98817085D01*
X145757066Y-98959942D01*
X145757066Y-99055180D01*
X145723733Y-99198038D01*
X145657066Y-99293276D01*
X145590400Y-99340895D01*
X145457066Y-99388514D01*
X145357066Y-99388514D01*
X145223733Y-99340895D01*
X145157066Y-99293276D01*
X145090400Y-99198038D01*
X145057066Y-99055180D01*
X145057066Y-98959942D01*
X145090400Y-98817085D01*
X145123733Y-98769466D01*
X145057066Y-98436133D02*
X145057066Y-97769466D01*
X145757066Y-98198038D01*
X155093942Y-63482457D02*
X155141561Y-63530076D01*
X155189180Y-63672933D01*
X155189180Y-63768171D01*
X155141561Y-63911028D01*
X155046323Y-64006266D01*
X154951085Y-64053885D01*
X154760609Y-64101504D01*
X154617752Y-64101504D01*
X154427276Y-64053885D01*
X154332038Y-64006266D01*
X154236800Y-63911028D01*
X154189180Y-63768171D01*
X154189180Y-63672933D01*
X154236800Y-63530076D01*
X154284419Y-63482457D01*
X154284419Y-63101504D02*
X154236800Y-63053885D01*
X154189180Y-62958647D01*
X154189180Y-62720552D01*
X154236800Y-62625314D01*
X154284419Y-62577695D01*
X154379657Y-62530076D01*
X154474895Y-62530076D01*
X154617752Y-62577695D01*
X155189180Y-63149123D01*
X155189180Y-62530076D01*
X154189180Y-62196742D02*
X154189180Y-61577695D01*
X154570133Y-61911028D01*
X154570133Y-61768171D01*
X154617752Y-61672933D01*
X154665371Y-61625314D01*
X154760609Y-61577695D01*
X154998704Y-61577695D01*
X155093942Y-61625314D01*
X155141561Y-61672933D01*
X155189180Y-61768171D01*
X155189180Y-62053885D01*
X155141561Y-62149123D01*
X155093942Y-62196742D01*
X182648266Y-51115980D02*
X182648266Y-51830266D01*
X182600647Y-51973123D01*
X182505409Y-52068361D01*
X182362552Y-52115980D01*
X182267314Y-52115980D01*
X183553028Y-51449314D02*
X183553028Y-52115980D01*
X183314933Y-51068361D02*
X183076838Y-51782647D01*
X183695885Y-51782647D01*
X149601180Y-56065657D02*
X149124990Y-56398990D01*
X149601180Y-56637085D02*
X148601180Y-56637085D01*
X148601180Y-56256133D01*
X148648800Y-56160895D01*
X148696419Y-56113276D01*
X148791657Y-56065657D01*
X148934514Y-56065657D01*
X149029752Y-56113276D01*
X149077371Y-56160895D01*
X149124990Y-56256133D01*
X149124990Y-56637085D01*
X149601180Y-55113276D02*
X149601180Y-55684704D01*
X149601180Y-55398990D02*
X148601180Y-55398990D01*
X148744038Y-55494228D01*
X148839276Y-55589466D01*
X148886895Y-55684704D01*
X148601180Y-54256133D02*
X148601180Y-54446609D01*
X148648800Y-54541847D01*
X148696419Y-54589466D01*
X148839276Y-54684704D01*
X149029752Y-54732323D01*
X149410704Y-54732323D01*
X149505942Y-54684704D01*
X149553561Y-54637085D01*
X149601180Y-54541847D01*
X149601180Y-54351371D01*
X149553561Y-54256133D01*
X149505942Y-54208514D01*
X149410704Y-54160895D01*
X149172609Y-54160895D01*
X149077371Y-54208514D01*
X149029752Y-54256133D01*
X148982133Y-54351371D01*
X148982133Y-54541847D01*
X149029752Y-54637085D01*
X149077371Y-54684704D01*
X149172609Y-54732323D01*
X135355104Y-58669180D02*
X135355104Y-57669180D01*
X135593200Y-57669180D01*
X135736057Y-57716800D01*
X135831295Y-57812038D01*
X135878914Y-57907276D01*
X135926533Y-58097752D01*
X135926533Y-58240609D01*
X135878914Y-58431085D01*
X135831295Y-58526323D01*
X135736057Y-58621561D01*
X135593200Y-58669180D01*
X135355104Y-58669180D01*
X136307485Y-57764419D02*
X136355104Y-57716800D01*
X136450342Y-57669180D01*
X136688438Y-57669180D01*
X136783676Y-57716800D01*
X136831295Y-57764419D01*
X136878914Y-57859657D01*
X136878914Y-57954895D01*
X136831295Y-58097752D01*
X136259866Y-58669180D01*
X136878914Y-58669180D01*
X164744495Y-66929980D02*
X164744495Y-67739504D01*
X164792114Y-67834742D01*
X164839733Y-67882361D01*
X164934971Y-67929980D01*
X165125447Y-67929980D01*
X165220685Y-67882361D01*
X165268304Y-67834742D01*
X165315923Y-67739504D01*
X165315923Y-66929980D01*
X166220685Y-67263314D02*
X166220685Y-67929980D01*
X165982590Y-66882361D02*
X165744495Y-67596647D01*
X166363542Y-67596647D01*
X153714380Y-77066666D02*
X153238190Y-77400000D01*
X153714380Y-77638095D02*
X152714380Y-77638095D01*
X152714380Y-77257142D01*
X152762000Y-77161904D01*
X152809619Y-77114285D01*
X152904857Y-77066666D01*
X153047714Y-77066666D01*
X153142952Y-77114285D01*
X153190571Y-77161904D01*
X153238190Y-77257142D01*
X153238190Y-77638095D01*
X152714380Y-76733333D02*
X152714380Y-76066666D01*
X153714380Y-76495238D01*
X146931142Y-58745142D02*
X146883523Y-58792761D01*
X146740666Y-58840380D01*
X146645428Y-58840380D01*
X146502571Y-58792761D01*
X146407333Y-58697523D01*
X146359714Y-58602285D01*
X146312095Y-58411809D01*
X146312095Y-58268952D01*
X146359714Y-58078476D01*
X146407333Y-57983238D01*
X146502571Y-57888000D01*
X146645428Y-57840380D01*
X146740666Y-57840380D01*
X146883523Y-57888000D01*
X146931142Y-57935619D01*
X147312095Y-57935619D02*
X147359714Y-57888000D01*
X147454952Y-57840380D01*
X147693047Y-57840380D01*
X147788285Y-57888000D01*
X147835904Y-57935619D01*
X147883523Y-58030857D01*
X147883523Y-58126095D01*
X147835904Y-58268952D01*
X147264476Y-58840380D01*
X147883523Y-58840380D01*
X148264476Y-57935619D02*
X148312095Y-57888000D01*
X148407333Y-57840380D01*
X148645428Y-57840380D01*
X148740666Y-57888000D01*
X148788285Y-57935619D01*
X148835904Y-58030857D01*
X148835904Y-58126095D01*
X148788285Y-58268952D01*
X148216857Y-58840380D01*
X148835904Y-58840380D01*
X143810800Y-78500266D02*
X143844133Y-78547885D01*
X143877466Y-78690742D01*
X143877466Y-78785980D01*
X143844133Y-78928838D01*
X143777466Y-79024076D01*
X143710800Y-79071695D01*
X143577466Y-79119314D01*
X143477466Y-79119314D01*
X143344133Y-79071695D01*
X143277466Y-79024076D01*
X143210800Y-78928838D01*
X143177466Y-78785980D01*
X143177466Y-78690742D01*
X143210800Y-78547885D01*
X143244133Y-78500266D01*
X143877466Y-78024076D02*
X143877466Y-77833600D01*
X143844133Y-77738361D01*
X143810800Y-77690742D01*
X143710800Y-77595504D01*
X143577466Y-77547885D01*
X143310800Y-77547885D01*
X143244133Y-77595504D01*
X143210800Y-77643123D01*
X143177466Y-77738361D01*
X143177466Y-77928838D01*
X143210800Y-78024076D01*
X143244133Y-78071695D01*
X143310800Y-78119314D01*
X143477466Y-78119314D01*
X143544133Y-78071695D01*
X143577466Y-78024076D01*
X143610800Y-77928838D01*
X143610800Y-77738361D01*
X143577466Y-77643123D01*
X143544133Y-77595504D01*
X143477466Y-77547885D01*
X157983142Y-69097142D02*
X157935523Y-69144761D01*
X157792666Y-69192380D01*
X157697428Y-69192380D01*
X157554571Y-69144761D01*
X157459333Y-69049523D01*
X157411714Y-68954285D01*
X157364095Y-68763809D01*
X157364095Y-68620952D01*
X157411714Y-68430476D01*
X157459333Y-68335238D01*
X157554571Y-68240000D01*
X157697428Y-68192380D01*
X157792666Y-68192380D01*
X157935523Y-68240000D01*
X157983142Y-68287619D01*
X158364095Y-68287619D02*
X158411714Y-68240000D01*
X158506952Y-68192380D01*
X158745047Y-68192380D01*
X158840285Y-68240000D01*
X158887904Y-68287619D01*
X158935523Y-68382857D01*
X158935523Y-68478095D01*
X158887904Y-68620952D01*
X158316476Y-69192380D01*
X158935523Y-69192380D01*
X159792666Y-68525714D02*
X159792666Y-69192380D01*
X159554571Y-68144761D02*
X159316476Y-68859047D01*
X159935523Y-68859047D01*
X126911171Y-65393819D02*
X126815933Y-65346200D01*
X126720695Y-65250961D01*
X126577838Y-65108104D01*
X126482600Y-65060485D01*
X126387361Y-65060485D01*
X126434980Y-65298580D02*
X126339742Y-65250961D01*
X126244504Y-65155723D01*
X126196885Y-64965247D01*
X126196885Y-64631914D01*
X126244504Y-64441438D01*
X126339742Y-64346200D01*
X126434980Y-64298580D01*
X126625457Y-64298580D01*
X126720695Y-64346200D01*
X126815933Y-64441438D01*
X126863552Y-64631914D01*
X126863552Y-64965247D01*
X126815933Y-65155723D01*
X126720695Y-65250961D01*
X126625457Y-65298580D01*
X126434980Y-65298580D01*
X127244504Y-64393819D02*
X127292123Y-64346200D01*
X127387361Y-64298580D01*
X127625457Y-64298580D01*
X127720695Y-64346200D01*
X127768314Y-64393819D01*
X127815933Y-64489057D01*
X127815933Y-64584295D01*
X127768314Y-64727152D01*
X127196885Y-65298580D01*
X127815933Y-65298580D01*
X128720695Y-64298580D02*
X128244504Y-64298580D01*
X128196885Y-64774771D01*
X128244504Y-64727152D01*
X128339742Y-64679533D01*
X128577838Y-64679533D01*
X128673076Y-64727152D01*
X128720695Y-64774771D01*
X128768314Y-64870009D01*
X128768314Y-65108104D01*
X128720695Y-65203342D01*
X128673076Y-65250961D01*
X128577838Y-65298580D01*
X128339742Y-65298580D01*
X128244504Y-65250961D01*
X128196885Y-65203342D01*
X160500780Y-65176304D02*
X161310304Y-65176304D01*
X161405542Y-65128685D01*
X161453161Y-65081066D01*
X161500780Y-64985828D01*
X161500780Y-64795352D01*
X161453161Y-64700114D01*
X161405542Y-64652495D01*
X161310304Y-64604876D01*
X160500780Y-64604876D01*
X160500780Y-63652495D02*
X160500780Y-64128685D01*
X160976971Y-64176304D01*
X160929352Y-64128685D01*
X160881733Y-64033447D01*
X160881733Y-63795352D01*
X160929352Y-63700114D01*
X160976971Y-63652495D01*
X161072209Y-63604876D01*
X161310304Y-63604876D01*
X161405542Y-63652495D01*
X161453161Y-63700114D01*
X161500780Y-63795352D01*
X161500780Y-64033447D01*
X161453161Y-64128685D01*
X161405542Y-64176304D01*
X144070342Y-55862457D02*
X144117961Y-55910076D01*
X144165580Y-56052933D01*
X144165580Y-56148171D01*
X144117961Y-56291028D01*
X144022723Y-56386266D01*
X143927485Y-56433885D01*
X143737009Y-56481504D01*
X143594152Y-56481504D01*
X143403676Y-56433885D01*
X143308438Y-56386266D01*
X143213200Y-56291028D01*
X143165580Y-56148171D01*
X143165580Y-56052933D01*
X143213200Y-55910076D01*
X143260819Y-55862457D01*
X144165580Y-54910076D02*
X144165580Y-55481504D01*
X144165580Y-55195790D02*
X143165580Y-55195790D01*
X143308438Y-55291028D01*
X143403676Y-55386266D01*
X143451295Y-55481504D01*
X144165580Y-54433885D02*
X144165580Y-54243409D01*
X144117961Y-54148171D01*
X144070342Y-54100552D01*
X143927485Y-54005314D01*
X143737009Y-53957695D01*
X143356057Y-53957695D01*
X143260819Y-54005314D01*
X143213200Y-54052933D01*
X143165580Y-54148171D01*
X143165580Y-54338647D01*
X143213200Y-54433885D01*
X143260819Y-54481504D01*
X143356057Y-54529123D01*
X143594152Y-54529123D01*
X143689390Y-54481504D01*
X143737009Y-54433885D01*
X143784628Y-54338647D01*
X143784628Y-54148171D01*
X143737009Y-54052933D01*
X143689390Y-54005314D01*
X143594152Y-53957695D01*
X183445161Y-70854819D02*
X183349923Y-70807200D01*
X183254685Y-70711961D01*
X183111828Y-70569104D01*
X183016590Y-70521485D01*
X182921352Y-70521485D01*
X182968971Y-70759580D02*
X182873733Y-70711961D01*
X182778495Y-70616723D01*
X182730876Y-70426247D01*
X182730876Y-70092914D01*
X182778495Y-69902438D01*
X182873733Y-69807200D01*
X182968971Y-69759580D01*
X183159447Y-69759580D01*
X183254685Y-69807200D01*
X183349923Y-69902438D01*
X183397542Y-70092914D01*
X183397542Y-70426247D01*
X183349923Y-70616723D01*
X183254685Y-70711961D01*
X183159447Y-70759580D01*
X182968971Y-70759580D01*
X184254685Y-69759580D02*
X184064209Y-69759580D01*
X183968971Y-69807200D01*
X183921352Y-69854819D01*
X183826114Y-69997676D01*
X183778495Y-70188152D01*
X183778495Y-70569104D01*
X183826114Y-70664342D01*
X183873733Y-70711961D01*
X183968971Y-70759580D01*
X184159447Y-70759580D01*
X184254685Y-70711961D01*
X184302304Y-70664342D01*
X184349923Y-70569104D01*
X184349923Y-70331009D01*
X184302304Y-70235771D01*
X184254685Y-70188152D01*
X184159447Y-70140533D01*
X183968971Y-70140533D01*
X183873733Y-70188152D01*
X183826114Y-70235771D01*
X183778495Y-70331009D01*
X134716780Y-62853866D02*
X134240590Y-63187200D01*
X134716780Y-63425295D02*
X133716780Y-63425295D01*
X133716780Y-63044342D01*
X133764400Y-62949104D01*
X133812019Y-62901485D01*
X133907257Y-62853866D01*
X134050114Y-62853866D01*
X134145352Y-62901485D01*
X134192971Y-62949104D01*
X134240590Y-63044342D01*
X134240590Y-63425295D01*
X133812019Y-62472914D02*
X133764400Y-62425295D01*
X133716780Y-62330057D01*
X133716780Y-62091961D01*
X133764400Y-61996723D01*
X133812019Y-61949104D01*
X133907257Y-61901485D01*
X134002495Y-61901485D01*
X134145352Y-61949104D01*
X134716780Y-62520533D01*
X134716780Y-61901485D01*
X146811142Y-69192666D02*
X146858761Y-69240285D01*
X146906380Y-69383142D01*
X146906380Y-69478380D01*
X146858761Y-69621238D01*
X146763523Y-69716476D01*
X146668285Y-69764095D01*
X146477809Y-69811714D01*
X146334952Y-69811714D01*
X146144476Y-69764095D01*
X146049238Y-69716476D01*
X145954000Y-69621238D01*
X145906380Y-69478380D01*
X145906380Y-69383142D01*
X145954000Y-69240285D01*
X146001619Y-69192666D01*
X145906380Y-68859333D02*
X145906380Y-68240285D01*
X146287333Y-68573619D01*
X146287333Y-68430761D01*
X146334952Y-68335523D01*
X146382571Y-68287904D01*
X146477809Y-68240285D01*
X146715904Y-68240285D01*
X146811142Y-68287904D01*
X146858761Y-68335523D01*
X146906380Y-68430761D01*
X146906380Y-68716476D01*
X146858761Y-68811714D01*
X146811142Y-68859333D01*
X161669504Y-58415180D02*
X161669504Y-57415180D01*
X161907600Y-57415180D01*
X162050457Y-57462800D01*
X162145695Y-57558038D01*
X162193314Y-57653276D01*
X162240933Y-57843752D01*
X162240933Y-57986609D01*
X162193314Y-58177085D01*
X162145695Y-58272323D01*
X162050457Y-58367561D01*
X161907600Y-58415180D01*
X161669504Y-58415180D01*
X163145695Y-57415180D02*
X162669504Y-57415180D01*
X162621885Y-57891371D01*
X162669504Y-57843752D01*
X162764742Y-57796133D01*
X163002838Y-57796133D01*
X163098076Y-57843752D01*
X163145695Y-57891371D01*
X163193314Y-57986609D01*
X163193314Y-58224704D01*
X163145695Y-58319942D01*
X163098076Y-58367561D01*
X163002838Y-58415180D01*
X162764742Y-58415180D01*
X162669504Y-58367561D01*
X162621885Y-58319942D01*
X150313200Y-79890857D02*
X150346533Y-79938476D01*
X150379866Y-80081333D01*
X150379866Y-80176571D01*
X150346533Y-80319428D01*
X150279866Y-80414666D01*
X150213200Y-80462285D01*
X150079866Y-80509904D01*
X149979866Y-80509904D01*
X149846533Y-80462285D01*
X149779866Y-80414666D01*
X149713200Y-80319428D01*
X149679866Y-80176571D01*
X149679866Y-80081333D01*
X149713200Y-79938476D01*
X149746533Y-79890857D01*
X150379866Y-78938476D02*
X150379866Y-79509904D01*
X150379866Y-79224190D02*
X149679866Y-79224190D01*
X149779866Y-79319428D01*
X149846533Y-79414666D01*
X149879866Y-79509904D01*
X149679866Y-78605142D02*
X149679866Y-77938476D01*
X150379866Y-78367047D01*
X182765771Y-98134419D02*
X182670533Y-98086800D01*
X182575295Y-97991561D01*
X182432438Y-97848704D01*
X182337200Y-97801085D01*
X182241961Y-97801085D01*
X182289580Y-98039180D02*
X182194342Y-97991561D01*
X182099104Y-97896323D01*
X182051485Y-97705847D01*
X182051485Y-97372514D01*
X182099104Y-97182038D01*
X182194342Y-97086800D01*
X182289580Y-97039180D01*
X182480057Y-97039180D01*
X182575295Y-97086800D01*
X182670533Y-97182038D01*
X182718152Y-97372514D01*
X182718152Y-97705847D01*
X182670533Y-97896323D01*
X182575295Y-97991561D01*
X182480057Y-98039180D01*
X182289580Y-98039180D01*
X183670533Y-98039180D02*
X183099104Y-98039180D01*
X183384819Y-98039180D02*
X183384819Y-97039180D01*
X183289580Y-97182038D01*
X183194342Y-97277276D01*
X183099104Y-97324895D01*
X184051485Y-97134419D02*
X184099104Y-97086800D01*
X184194342Y-97039180D01*
X184432438Y-97039180D01*
X184527676Y-97086800D01*
X184575295Y-97134419D01*
X184622914Y-97229657D01*
X184622914Y-97324895D01*
X184575295Y-97467752D01*
X184003866Y-98039180D01*
X184622914Y-98039180D01*
X139683904Y-58388380D02*
X139683904Y-57388380D01*
X139922000Y-57388380D01*
X140064857Y-57436000D01*
X140160095Y-57531238D01*
X140207714Y-57626476D01*
X140255333Y-57816952D01*
X140255333Y-57959809D01*
X140207714Y-58150285D01*
X140160095Y-58245523D01*
X140064857Y-58340761D01*
X139922000Y-58388380D01*
X139683904Y-58388380D01*
X141207714Y-58388380D02*
X140636285Y-58388380D01*
X140922000Y-58388380D02*
X140922000Y-57388380D01*
X140826761Y-57531238D01*
X140731523Y-57626476D01*
X140636285Y-57674095D01*
X182765771Y-91124019D02*
X182670533Y-91076400D01*
X182575295Y-90981161D01*
X182432438Y-90838304D01*
X182337200Y-90790685D01*
X182241961Y-90790685D01*
X182289580Y-91028780D02*
X182194342Y-90981161D01*
X182099104Y-90885923D01*
X182051485Y-90695447D01*
X182051485Y-90362114D01*
X182099104Y-90171638D01*
X182194342Y-90076400D01*
X182289580Y-90028780D01*
X182480057Y-90028780D01*
X182575295Y-90076400D01*
X182670533Y-90171638D01*
X182718152Y-90362114D01*
X182718152Y-90695447D01*
X182670533Y-90885923D01*
X182575295Y-90981161D01*
X182480057Y-91028780D01*
X182289580Y-91028780D01*
X183670533Y-91028780D02*
X183099104Y-91028780D01*
X183384819Y-91028780D02*
X183384819Y-90028780D01*
X183289580Y-90171638D01*
X183194342Y-90266876D01*
X183099104Y-90314495D01*
X184622914Y-91028780D02*
X184051485Y-91028780D01*
X184337200Y-91028780D02*
X184337200Y-90028780D01*
X184241961Y-90171638D01*
X184146723Y-90266876D01*
X184051485Y-90314495D01*
X137482342Y-110283580D02*
X137149009Y-109807390D01*
X136910914Y-110283580D02*
X136910914Y-109283580D01*
X137291866Y-109283580D01*
X137387104Y-109331200D01*
X137434723Y-109378819D01*
X137482342Y-109474057D01*
X137482342Y-109616914D01*
X137434723Y-109712152D01*
X137387104Y-109759771D01*
X137291866Y-109807390D01*
X136910914Y-109807390D01*
X138387104Y-109283580D02*
X137910914Y-109283580D01*
X137863295Y-109759771D01*
X137910914Y-109712152D01*
X138006152Y-109664533D01*
X138244247Y-109664533D01*
X138339485Y-109712152D01*
X138387104Y-109759771D01*
X138434723Y-109855009D01*
X138434723Y-110093104D01*
X138387104Y-110188342D01*
X138339485Y-110235961D01*
X138244247Y-110283580D01*
X138006152Y-110283580D01*
X137910914Y-110235961D01*
X137863295Y-110188342D01*
X139006152Y-109712152D02*
X138910914Y-109664533D01*
X138863295Y-109616914D01*
X138815676Y-109521676D01*
X138815676Y-109474057D01*
X138863295Y-109378819D01*
X138910914Y-109331200D01*
X139006152Y-109283580D01*
X139196628Y-109283580D01*
X139291866Y-109331200D01*
X139339485Y-109378819D01*
X139387104Y-109474057D01*
X139387104Y-109521676D01*
X139339485Y-109616914D01*
X139291866Y-109664533D01*
X139196628Y-109712152D01*
X139006152Y-109712152D01*
X138910914Y-109759771D01*
X138863295Y-109807390D01*
X138815676Y-109902628D01*
X138815676Y-110093104D01*
X138863295Y-110188342D01*
X138910914Y-110235961D01*
X139006152Y-110283580D01*
X139196628Y-110283580D01*
X139291866Y-110235961D01*
X139339485Y-110188342D01*
X139387104Y-110093104D01*
X139387104Y-109902628D01*
X139339485Y-109807390D01*
X139291866Y-109759771D01*
X139196628Y-109712152D01*
X133148342Y-62244266D02*
X133195961Y-62291885D01*
X133243580Y-62434742D01*
X133243580Y-62529980D01*
X133195961Y-62672838D01*
X133100723Y-62768076D01*
X133005485Y-62815695D01*
X132815009Y-62863314D01*
X132672152Y-62863314D01*
X132481676Y-62815695D01*
X132386438Y-62768076D01*
X132291200Y-62672838D01*
X132243580Y-62529980D01*
X132243580Y-62434742D01*
X132291200Y-62291885D01*
X132338819Y-62244266D01*
X133243580Y-61291885D02*
X133243580Y-61863314D01*
X133243580Y-61577600D02*
X132243580Y-61577600D01*
X132386438Y-61672838D01*
X132481676Y-61768076D01*
X132529295Y-61863314D01*
X151392095Y-91959180D02*
X151963523Y-91959180D01*
X151677809Y-92959180D02*
X151677809Y-91959180D01*
X152296857Y-92959180D02*
X152296857Y-91959180D01*
X152677809Y-91959180D01*
X152773047Y-92006800D01*
X152820666Y-92054419D01*
X152868285Y-92149657D01*
X152868285Y-92292514D01*
X152820666Y-92387752D01*
X152773047Y-92435371D01*
X152677809Y-92482990D01*
X152296857Y-92482990D01*
X153439714Y-92387752D02*
X153344476Y-92340133D01*
X153296857Y-92292514D01*
X153249238Y-92197276D01*
X153249238Y-92149657D01*
X153296857Y-92054419D01*
X153344476Y-92006800D01*
X153439714Y-91959180D01*
X153630190Y-91959180D01*
X153725428Y-92006800D01*
X153773047Y-92054419D01*
X153820666Y-92149657D01*
X153820666Y-92197276D01*
X153773047Y-92292514D01*
X153725428Y-92340133D01*
X153630190Y-92387752D01*
X153439714Y-92387752D01*
X153344476Y-92435371D01*
X153296857Y-92482990D01*
X153249238Y-92578228D01*
X153249238Y-92768704D01*
X153296857Y-92863942D01*
X153344476Y-92911561D01*
X153439714Y-92959180D01*
X153630190Y-92959180D01*
X153725428Y-92911561D01*
X153773047Y-92863942D01*
X153820666Y-92768704D01*
X153820666Y-92578228D01*
X153773047Y-92482990D01*
X153725428Y-92435371D01*
X153630190Y-92387752D01*
X160145504Y-82697580D02*
X160145504Y-81697580D01*
X160383600Y-81697580D01*
X160526457Y-81745200D01*
X160621695Y-81840438D01*
X160669314Y-81935676D01*
X160716933Y-82126152D01*
X160716933Y-82269009D01*
X160669314Y-82459485D01*
X160621695Y-82554723D01*
X160526457Y-82649961D01*
X160383600Y-82697580D01*
X160145504Y-82697580D01*
X161574076Y-82030914D02*
X161574076Y-82697580D01*
X161335980Y-81649961D02*
X161097885Y-82364247D01*
X161716933Y-82364247D01*
X142922666Y-51623980D02*
X142922666Y-52338266D01*
X142875047Y-52481123D01*
X142779809Y-52576361D01*
X142636952Y-52623980D01*
X142541714Y-52623980D01*
X143303619Y-51623980D02*
X143922666Y-51623980D01*
X143589333Y-52004933D01*
X143732190Y-52004933D01*
X143827428Y-52052552D01*
X143875047Y-52100171D01*
X143922666Y-52195409D01*
X143922666Y-52433504D01*
X143875047Y-52528742D01*
X143827428Y-52576361D01*
X143732190Y-52623980D01*
X143446476Y-52623980D01*
X143351238Y-52576361D01*
X143303619Y-52528742D01*
X108672380Y-108384933D02*
X109386666Y-108384933D01*
X109529523Y-108432552D01*
X109624761Y-108527790D01*
X109672380Y-108670647D01*
X109672380Y-108765885D01*
X109100952Y-107765885D02*
X109053333Y-107861123D01*
X109005714Y-107908742D01*
X108910476Y-107956361D01*
X108862857Y-107956361D01*
X108767619Y-107908742D01*
X108720000Y-107861123D01*
X108672380Y-107765885D01*
X108672380Y-107575409D01*
X108720000Y-107480171D01*
X108767619Y-107432552D01*
X108862857Y-107384933D01*
X108910476Y-107384933D01*
X109005714Y-107432552D01*
X109053333Y-107480171D01*
X109100952Y-107575409D01*
X109100952Y-107765885D01*
X109148571Y-107861123D01*
X109196190Y-107908742D01*
X109291428Y-107956361D01*
X109481904Y-107956361D01*
X109577142Y-107908742D01*
X109624761Y-107861123D01*
X109672380Y-107765885D01*
X109672380Y-107575409D01*
X109624761Y-107480171D01*
X109577142Y-107432552D01*
X109481904Y-107384933D01*
X109291428Y-107384933D01*
X109196190Y-107432552D01*
X109148571Y-107480171D01*
X109100952Y-107575409D01*
X136225333Y-64782742D02*
X136177714Y-64830361D01*
X136034857Y-64877980D01*
X135939619Y-64877980D01*
X135796761Y-64830361D01*
X135701523Y-64735123D01*
X135653904Y-64639885D01*
X135606285Y-64449409D01*
X135606285Y-64306552D01*
X135653904Y-64116076D01*
X135701523Y-64020838D01*
X135796761Y-63925600D01*
X135939619Y-63877980D01*
X136034857Y-63877980D01*
X136177714Y-63925600D01*
X136225333Y-63973219D01*
X136606285Y-63973219D02*
X136653904Y-63925600D01*
X136749142Y-63877980D01*
X136987238Y-63877980D01*
X137082476Y-63925600D01*
X137130095Y-63973219D01*
X137177714Y-64068457D01*
X137177714Y-64163695D01*
X137130095Y-64306552D01*
X136558666Y-64877980D01*
X137177714Y-64877980D01*
X160920133Y-84424780D02*
X160586800Y-83948590D01*
X160348704Y-84424780D02*
X160348704Y-83424780D01*
X160729657Y-83424780D01*
X160824895Y-83472400D01*
X160872514Y-83520019D01*
X160920133Y-83615257D01*
X160920133Y-83758114D01*
X160872514Y-83853352D01*
X160824895Y-83900971D01*
X160729657Y-83948590D01*
X160348704Y-83948590D01*
X161872514Y-84424780D02*
X161301085Y-84424780D01*
X161586800Y-84424780D02*
X161586800Y-83424780D01*
X161491561Y-83567638D01*
X161396323Y-83662876D01*
X161301085Y-83710495D01*
X140849504Y-109586780D02*
X140849504Y-110396304D01*
X140897123Y-110491542D01*
X140944742Y-110539161D01*
X141039980Y-110586780D01*
X141230457Y-110586780D01*
X141325695Y-110539161D01*
X141373314Y-110491542D01*
X141420933Y-110396304D01*
X141420933Y-109586780D01*
X142420933Y-110586780D02*
X141849504Y-110586780D01*
X142135219Y-110586780D02*
X142135219Y-109586780D01*
X142039980Y-109729638D01*
X141944742Y-109824876D01*
X141849504Y-109872495D01*
X143278076Y-109920114D02*
X143278076Y-110586780D01*
X143039980Y-109539161D02*
X142801885Y-110253447D01*
X143420933Y-110253447D01*
X165544571Y-107837219D02*
X165449333Y-107789600D01*
X165354095Y-107694361D01*
X165211238Y-107551504D01*
X165116000Y-107503885D01*
X165020761Y-107503885D01*
X165068380Y-107741980D02*
X164973142Y-107694361D01*
X164877904Y-107599123D01*
X164830285Y-107408647D01*
X164830285Y-107075314D01*
X164877904Y-106884838D01*
X164973142Y-106789600D01*
X165068380Y-106741980D01*
X165258857Y-106741980D01*
X165354095Y-106789600D01*
X165449333Y-106884838D01*
X165496952Y-107075314D01*
X165496952Y-107408647D01*
X165449333Y-107599123D01*
X165354095Y-107694361D01*
X165258857Y-107741980D01*
X165068380Y-107741980D01*
X166449333Y-107741980D02*
X165877904Y-107741980D01*
X166163619Y-107741980D02*
X166163619Y-106741980D01*
X166068380Y-106884838D01*
X165973142Y-106980076D01*
X165877904Y-107027695D01*
X167306476Y-106741980D02*
X167116000Y-106741980D01*
X167020761Y-106789600D01*
X166973142Y-106837219D01*
X166877904Y-106980076D01*
X166830285Y-107170552D01*
X166830285Y-107551504D01*
X166877904Y-107646742D01*
X166925523Y-107694361D01*
X167020761Y-107741980D01*
X167211238Y-107741980D01*
X167306476Y-107694361D01*
X167354095Y-107646742D01*
X167401714Y-107551504D01*
X167401714Y-107313409D01*
X167354095Y-107218171D01*
X167306476Y-107170552D01*
X167211238Y-107122933D01*
X167020761Y-107122933D01*
X166925523Y-107170552D01*
X166877904Y-107218171D01*
X166830285Y-107313409D01*
X164295295Y-85151980D02*
X164866723Y-85151980D01*
X164581009Y-86151980D02*
X164581009Y-85151980D01*
X165200057Y-86151980D02*
X165200057Y-85151980D01*
X165581009Y-85151980D01*
X165676247Y-85199600D01*
X165723866Y-85247219D01*
X165771485Y-85342457D01*
X165771485Y-85485314D01*
X165723866Y-85580552D01*
X165676247Y-85628171D01*
X165581009Y-85675790D01*
X165200057Y-85675790D01*
X166723866Y-86151980D02*
X166152438Y-86151980D01*
X166438152Y-86151980D02*
X166438152Y-85151980D01*
X166342914Y-85294838D01*
X166247676Y-85390076D01*
X166152438Y-85437695D01*
X154935180Y-71540666D02*
X154458990Y-71874000D01*
X154935180Y-72112095D02*
X153935180Y-72112095D01*
X153935180Y-71731142D01*
X153982800Y-71635904D01*
X154030419Y-71588285D01*
X154125657Y-71540666D01*
X154268514Y-71540666D01*
X154363752Y-71588285D01*
X154411371Y-71635904D01*
X154458990Y-71731142D01*
X154458990Y-72112095D01*
X153935180Y-70683523D02*
X153935180Y-70874000D01*
X153982800Y-70969238D01*
X154030419Y-71016857D01*
X154173276Y-71112095D01*
X154363752Y-71159714D01*
X154744704Y-71159714D01*
X154839942Y-71112095D01*
X154887561Y-71064476D01*
X154935180Y-70969238D01*
X154935180Y-70778761D01*
X154887561Y-70683523D01*
X154839942Y-70635904D01*
X154744704Y-70588285D01*
X154506609Y-70588285D01*
X154411371Y-70635904D01*
X154363752Y-70683523D01*
X154316133Y-70778761D01*
X154316133Y-70969238D01*
X154363752Y-71064476D01*
X154411371Y-71112095D01*
X154506609Y-71159714D01*
X144187942Y-105563942D02*
X144140323Y-105611561D01*
X143997466Y-105659180D01*
X143902228Y-105659180D01*
X143759371Y-105611561D01*
X143664133Y-105516323D01*
X143616514Y-105421085D01*
X143568895Y-105230609D01*
X143568895Y-105087752D01*
X143616514Y-104897276D01*
X143664133Y-104802038D01*
X143759371Y-104706800D01*
X143902228Y-104659180D01*
X143997466Y-104659180D01*
X144140323Y-104706800D01*
X144187942Y-104754419D01*
X145045085Y-104992514D02*
X145045085Y-105659180D01*
X144806990Y-104611561D02*
X144568895Y-105325847D01*
X145187942Y-105325847D01*
X145521276Y-104754419D02*
X145568895Y-104706800D01*
X145664133Y-104659180D01*
X145902228Y-104659180D01*
X145997466Y-104706800D01*
X146045085Y-104754419D01*
X146092704Y-104849657D01*
X146092704Y-104944895D01*
X146045085Y-105087752D01*
X145473657Y-105659180D01*
X146092704Y-105659180D01*
X190968380Y-108943733D02*
X191682666Y-108943733D01*
X191825523Y-108991352D01*
X191920761Y-109086590D01*
X191968380Y-109229447D01*
X191968380Y-109324685D01*
X190968380Y-108038971D02*
X190968380Y-108229447D01*
X191016000Y-108324685D01*
X191063619Y-108372304D01*
X191206476Y-108467542D01*
X191396952Y-108515161D01*
X191777904Y-108515161D01*
X191873142Y-108467542D01*
X191920761Y-108419923D01*
X191968380Y-108324685D01*
X191968380Y-108134209D01*
X191920761Y-108038971D01*
X191873142Y-107991352D01*
X191777904Y-107943733D01*
X191539809Y-107943733D01*
X191444571Y-107991352D01*
X191396952Y-108038971D01*
X191349333Y-108134209D01*
X191349333Y-108324685D01*
X191396952Y-108419923D01*
X191444571Y-108467542D01*
X191539809Y-108515161D01*
X144238742Y-103169980D02*
X143905409Y-102693790D01*
X143667314Y-103169980D02*
X143667314Y-102169980D01*
X144048266Y-102169980D01*
X144143504Y-102217600D01*
X144191123Y-102265219D01*
X144238742Y-102360457D01*
X144238742Y-102503314D01*
X144191123Y-102598552D01*
X144143504Y-102646171D01*
X144048266Y-102693790D01*
X143667314Y-102693790D01*
X145143504Y-102169980D02*
X144667314Y-102169980D01*
X144619695Y-102646171D01*
X144667314Y-102598552D01*
X144762552Y-102550933D01*
X145000647Y-102550933D01*
X145095885Y-102598552D01*
X145143504Y-102646171D01*
X145191123Y-102741409D01*
X145191123Y-102979504D01*
X145143504Y-103074742D01*
X145095885Y-103122361D01*
X145000647Y-103169980D01*
X144762552Y-103169980D01*
X144667314Y-103122361D01*
X144619695Y-103074742D01*
X146048266Y-102169980D02*
X145857790Y-102169980D01*
X145762552Y-102217600D01*
X145714933Y-102265219D01*
X145619695Y-102408076D01*
X145572076Y-102598552D01*
X145572076Y-102979504D01*
X145619695Y-103074742D01*
X145667314Y-103122361D01*
X145762552Y-103169980D01*
X145953028Y-103169980D01*
X146048266Y-103122361D01*
X146095885Y-103074742D01*
X146143504Y-102979504D01*
X146143504Y-102741409D01*
X146095885Y-102646171D01*
X146048266Y-102598552D01*
X145953028Y-102550933D01*
X145762552Y-102550933D01*
X145667314Y-102598552D01*
X145619695Y-102646171D01*
X145572076Y-102741409D01*
X126809571Y-72328019D02*
X126714333Y-72280400D01*
X126619095Y-72185161D01*
X126476238Y-72042304D01*
X126381000Y-71994685D01*
X126285761Y-71994685D01*
X126333380Y-72232780D02*
X126238142Y-72185161D01*
X126142904Y-72089923D01*
X126095285Y-71899447D01*
X126095285Y-71566114D01*
X126142904Y-71375638D01*
X126238142Y-71280400D01*
X126333380Y-71232780D01*
X126523857Y-71232780D01*
X126619095Y-71280400D01*
X126714333Y-71375638D01*
X126761952Y-71566114D01*
X126761952Y-71899447D01*
X126714333Y-72089923D01*
X126619095Y-72185161D01*
X126523857Y-72232780D01*
X126333380Y-72232780D01*
X127142904Y-71328019D02*
X127190523Y-71280400D01*
X127285761Y-71232780D01*
X127523857Y-71232780D01*
X127619095Y-71280400D01*
X127666714Y-71328019D01*
X127714333Y-71423257D01*
X127714333Y-71518495D01*
X127666714Y-71661352D01*
X127095285Y-72232780D01*
X127714333Y-72232780D01*
X128047666Y-71232780D02*
X128666714Y-71232780D01*
X128333380Y-71613733D01*
X128476238Y-71613733D01*
X128571476Y-71661352D01*
X128619095Y-71708971D01*
X128666714Y-71804209D01*
X128666714Y-72042304D01*
X128619095Y-72137542D01*
X128571476Y-72185161D01*
X128476238Y-72232780D01*
X128190523Y-72232780D01*
X128095285Y-72185161D01*
X128047666Y-72137542D01*
X183445161Y-77814419D02*
X183349923Y-77766800D01*
X183254685Y-77671561D01*
X183111828Y-77528704D01*
X183016590Y-77481085D01*
X182921352Y-77481085D01*
X182968971Y-77719180D02*
X182873733Y-77671561D01*
X182778495Y-77576323D01*
X182730876Y-77385847D01*
X182730876Y-77052514D01*
X182778495Y-76862038D01*
X182873733Y-76766800D01*
X182968971Y-76719180D01*
X183159447Y-76719180D01*
X183254685Y-76766800D01*
X183349923Y-76862038D01*
X183397542Y-77052514D01*
X183397542Y-77385847D01*
X183349923Y-77576323D01*
X183254685Y-77671561D01*
X183159447Y-77719180D01*
X182968971Y-77719180D01*
X184302304Y-76719180D02*
X183826114Y-76719180D01*
X183778495Y-77195371D01*
X183826114Y-77147752D01*
X183921352Y-77100133D01*
X184159447Y-77100133D01*
X184254685Y-77147752D01*
X184302304Y-77195371D01*
X184349923Y-77290609D01*
X184349923Y-77528704D01*
X184302304Y-77623942D01*
X184254685Y-77671561D01*
X184159447Y-77719180D01*
X183921352Y-77719180D01*
X183826114Y-77671561D01*
X183778495Y-77623942D01*
X141495542Y-72994780D02*
X141162209Y-72518590D01*
X140924114Y-72994780D02*
X140924114Y-71994780D01*
X141305066Y-71994780D01*
X141400304Y-72042400D01*
X141447923Y-72090019D01*
X141495542Y-72185257D01*
X141495542Y-72328114D01*
X141447923Y-72423352D01*
X141400304Y-72470971D01*
X141305066Y-72518590D01*
X140924114Y-72518590D01*
X142447923Y-72994780D02*
X141876495Y-72994780D01*
X142162209Y-72994780D02*
X142162209Y-71994780D01*
X142066971Y-72137638D01*
X141971733Y-72232876D01*
X141876495Y-72280495D01*
X143400304Y-72994780D02*
X142828876Y-72994780D01*
X143114590Y-72994780D02*
X143114590Y-71994780D01*
X143019352Y-72137638D01*
X142924114Y-72232876D01*
X142828876Y-72280495D01*
X159970466Y-95652980D02*
X159970466Y-96367266D01*
X159922847Y-96510123D01*
X159827609Y-96605361D01*
X159684752Y-96652980D01*
X159589514Y-96652980D01*
X160399038Y-95748219D02*
X160446657Y-95700600D01*
X160541895Y-95652980D01*
X160779990Y-95652980D01*
X160875228Y-95700600D01*
X160922847Y-95748219D01*
X160970466Y-95843457D01*
X160970466Y-95938695D01*
X160922847Y-96081552D01*
X160351419Y-96652980D01*
X160970466Y-96652980D01*
X136191333Y-63186380D02*
X135858000Y-62710190D01*
X135619904Y-63186380D02*
X135619904Y-62186380D01*
X136000857Y-62186380D01*
X136096095Y-62234000D01*
X136143714Y-62281619D01*
X136191333Y-62376857D01*
X136191333Y-62519714D01*
X136143714Y-62614952D01*
X136096095Y-62662571D01*
X136000857Y-62710190D01*
X135619904Y-62710190D01*
X137096095Y-62186380D02*
X136619904Y-62186380D01*
X136572285Y-62662571D01*
X136619904Y-62614952D01*
X136715142Y-62567333D01*
X136953238Y-62567333D01*
X137048476Y-62614952D01*
X137096095Y-62662571D01*
X137143714Y-62757809D01*
X137143714Y-62995904D01*
X137096095Y-63091142D01*
X137048476Y-63138761D01*
X136953238Y-63186380D01*
X136715142Y-63186380D01*
X136619904Y-63138761D01*
X136572285Y-63091142D01*
X138777333Y-63446380D02*
X138444000Y-62970190D01*
X138205904Y-63446380D02*
X138205904Y-62446380D01*
X138586857Y-62446380D01*
X138682095Y-62494000D01*
X138729714Y-62541619D01*
X138777333Y-62636857D01*
X138777333Y-62779714D01*
X138729714Y-62874952D01*
X138682095Y-62922571D01*
X138586857Y-62970190D01*
X138205904Y-62970190D01*
X139634476Y-62779714D02*
X139634476Y-63446380D01*
X139396380Y-62398761D02*
X139158285Y-63113047D01*
X139777333Y-63113047D01*
X134405980Y-67030666D02*
X133929790Y-67364000D01*
X134405980Y-67602095D02*
X133405980Y-67602095D01*
X133405980Y-67221142D01*
X133453600Y-67125904D01*
X133501219Y-67078285D01*
X133596457Y-67030666D01*
X133739314Y-67030666D01*
X133834552Y-67078285D01*
X133882171Y-67125904D01*
X133929790Y-67221142D01*
X133929790Y-67602095D01*
X133834552Y-66459238D02*
X133786933Y-66554476D01*
X133739314Y-66602095D01*
X133644076Y-66649714D01*
X133596457Y-66649714D01*
X133501219Y-66602095D01*
X133453600Y-66554476D01*
X133405980Y-66459238D01*
X133405980Y-66268761D01*
X133453600Y-66173523D01*
X133501219Y-66125904D01*
X133596457Y-66078285D01*
X133644076Y-66078285D01*
X133739314Y-66125904D01*
X133786933Y-66173523D01*
X133834552Y-66268761D01*
X133834552Y-66459238D01*
X133882171Y-66554476D01*
X133929790Y-66602095D01*
X134025028Y-66649714D01*
X134215504Y-66649714D01*
X134310742Y-66602095D01*
X134358361Y-66554476D01*
X134405980Y-66459238D01*
X134405980Y-66268761D01*
X134358361Y-66173523D01*
X134310742Y-66125904D01*
X134215504Y-66078285D01*
X134025028Y-66078285D01*
X133929790Y-66125904D01*
X133882171Y-66173523D01*
X133834552Y-66268761D01*
X136313942Y-102915980D02*
X135980609Y-102439790D01*
X135742514Y-102915980D02*
X135742514Y-101915980D01*
X136123466Y-101915980D01*
X136218704Y-101963600D01*
X136266323Y-102011219D01*
X136313942Y-102106457D01*
X136313942Y-102249314D01*
X136266323Y-102344552D01*
X136218704Y-102392171D01*
X136123466Y-102439790D01*
X135742514Y-102439790D01*
X137171085Y-101915980D02*
X136980609Y-101915980D01*
X136885371Y-101963600D01*
X136837752Y-102011219D01*
X136742514Y-102154076D01*
X136694895Y-102344552D01*
X136694895Y-102725504D01*
X136742514Y-102820742D01*
X136790133Y-102868361D01*
X136885371Y-102915980D01*
X137075847Y-102915980D01*
X137171085Y-102868361D01*
X137218704Y-102820742D01*
X137266323Y-102725504D01*
X137266323Y-102487409D01*
X137218704Y-102392171D01*
X137171085Y-102344552D01*
X137075847Y-102296933D01*
X136885371Y-102296933D01*
X136790133Y-102344552D01*
X136742514Y-102392171D01*
X136694895Y-102487409D01*
X137647276Y-102011219D02*
X137694895Y-101963600D01*
X137790133Y-101915980D01*
X138028228Y-101915980D01*
X138123466Y-101963600D01*
X138171085Y-102011219D01*
X138218704Y-102106457D01*
X138218704Y-102201695D01*
X138171085Y-102344552D01*
X137599657Y-102915980D01*
X138218704Y-102915980D01*
X162507561Y-94246533D02*
X162555180Y-94103676D01*
X162555180Y-93865580D01*
X162507561Y-93770342D01*
X162459942Y-93722723D01*
X162364704Y-93675104D01*
X162269466Y-93675104D01*
X162174228Y-93722723D01*
X162126609Y-93770342D01*
X162078990Y-93865580D01*
X162031371Y-94056057D01*
X161983752Y-94151295D01*
X161936133Y-94198914D01*
X161840895Y-94246533D01*
X161745657Y-94246533D01*
X161650419Y-94198914D01*
X161602800Y-94151295D01*
X161555180Y-94056057D01*
X161555180Y-93817961D01*
X161602800Y-93675104D01*
X161555180Y-93341771D02*
X162555180Y-93103676D01*
X161840895Y-92913200D01*
X162555180Y-92722723D01*
X161555180Y-92484628D01*
X162555180Y-91579866D02*
X162555180Y-92151295D01*
X162555180Y-91865580D02*
X161555180Y-91865580D01*
X161698038Y-91960819D01*
X161793276Y-92056057D01*
X161840895Y-92151295D01*
X162605980Y-90199980D02*
X162129790Y-90533314D01*
X162605980Y-90771409D02*
X161605980Y-90771409D01*
X161605980Y-90390457D01*
X161653600Y-90295219D01*
X161701219Y-90247600D01*
X161796457Y-90199980D01*
X161939314Y-90199980D01*
X162034552Y-90247600D01*
X162082171Y-90295219D01*
X162129790Y-90390457D01*
X162129790Y-90771409D01*
X162082171Y-89771409D02*
X162082171Y-89438076D01*
X162605980Y-89295219D02*
X162605980Y-89771409D01*
X161605980Y-89771409D01*
X161605980Y-89295219D01*
X162558361Y-88914266D02*
X162605980Y-88771409D01*
X162605980Y-88533314D01*
X162558361Y-88438076D01*
X162510742Y-88390457D01*
X162415504Y-88342838D01*
X162320266Y-88342838D01*
X162225028Y-88390457D01*
X162177409Y-88438076D01*
X162129790Y-88533314D01*
X162082171Y-88723790D01*
X162034552Y-88819028D01*
X161986933Y-88866647D01*
X161891695Y-88914266D01*
X161796457Y-88914266D01*
X161701219Y-88866647D01*
X161653600Y-88819028D01*
X161605980Y-88723790D01*
X161605980Y-88485695D01*
X161653600Y-88342838D01*
X162082171Y-87914266D02*
X162082171Y-87580933D01*
X162605980Y-87438076D02*
X162605980Y-87914266D01*
X161605980Y-87914266D01*
X161605980Y-87438076D01*
X161605980Y-87152361D02*
X161605980Y-86580933D01*
X162605980Y-86866647D02*
X161605980Y-86866647D01*
X144780095Y-82561180D02*
X144780095Y-83370704D01*
X144827714Y-83465942D01*
X144875333Y-83513561D01*
X144970571Y-83561180D01*
X145161047Y-83561180D01*
X145256285Y-83513561D01*
X145303904Y-83465942D01*
X145351523Y-83370704D01*
X145351523Y-82561180D01*
X145732476Y-82561180D02*
X146351523Y-82561180D01*
X146018190Y-82942133D01*
X146161047Y-82942133D01*
X146256285Y-82989752D01*
X146303904Y-83037371D01*
X146351523Y-83132609D01*
X146351523Y-83370704D01*
X146303904Y-83465942D01*
X146256285Y-83513561D01*
X146161047Y-83561180D01*
X145875333Y-83561180D01*
X145780095Y-83513561D01*
X145732476Y-83465942D01*
X169211666Y-58179571D02*
X168878333Y-58179571D01*
X168878333Y-58703380D02*
X168878333Y-57703380D01*
X169354523Y-57703380D01*
X170259285Y-58703380D02*
X169687857Y-58703380D01*
X169973571Y-58703380D02*
X169973571Y-57703380D01*
X169878333Y-57846238D01*
X169783095Y-57941476D01*
X169687857Y-57989095D01*
X135986780Y-74150457D02*
X135510590Y-74483790D01*
X135986780Y-74721885D02*
X134986780Y-74721885D01*
X134986780Y-74340933D01*
X135034400Y-74245695D01*
X135082019Y-74198076D01*
X135177257Y-74150457D01*
X135320114Y-74150457D01*
X135415352Y-74198076D01*
X135462971Y-74245695D01*
X135510590Y-74340933D01*
X135510590Y-74721885D01*
X135986780Y-73198076D02*
X135986780Y-73769504D01*
X135986780Y-73483790D02*
X134986780Y-73483790D01*
X135129638Y-73579028D01*
X135224876Y-73674266D01*
X135272495Y-73769504D01*
X134986780Y-72579028D02*
X134986780Y-72483790D01*
X135034400Y-72388552D01*
X135082019Y-72340933D01*
X135177257Y-72293314D01*
X135367733Y-72245695D01*
X135605828Y-72245695D01*
X135796304Y-72293314D01*
X135891542Y-72340933D01*
X135939161Y-72388552D01*
X135986780Y-72483790D01*
X135986780Y-72579028D01*
X135939161Y-72674266D01*
X135891542Y-72721885D01*
X135796304Y-72769504D01*
X135605828Y-72817123D01*
X135367733Y-72817123D01*
X135177257Y-72769504D01*
X135082019Y-72721885D01*
X135034400Y-72674266D01*
X134986780Y-72579028D01*
X157853142Y-60148742D02*
X157805523Y-60196361D01*
X157662666Y-60243980D01*
X157567428Y-60243980D01*
X157424571Y-60196361D01*
X157329333Y-60101123D01*
X157281714Y-60005885D01*
X157234095Y-59815409D01*
X157234095Y-59672552D01*
X157281714Y-59482076D01*
X157329333Y-59386838D01*
X157424571Y-59291600D01*
X157567428Y-59243980D01*
X157662666Y-59243980D01*
X157805523Y-59291600D01*
X157853142Y-59339219D01*
X158234095Y-59339219D02*
X158281714Y-59291600D01*
X158376952Y-59243980D01*
X158615047Y-59243980D01*
X158710285Y-59291600D01*
X158757904Y-59339219D01*
X158805523Y-59434457D01*
X158805523Y-59529695D01*
X158757904Y-59672552D01*
X158186476Y-60243980D01*
X158805523Y-60243980D01*
X159757904Y-60243980D02*
X159186476Y-60243980D01*
X159472190Y-60243980D02*
X159472190Y-59243980D01*
X159376952Y-59386838D01*
X159281714Y-59482076D01*
X159186476Y-59529695D01*
X163004380Y-68632457D02*
X162528190Y-68965790D01*
X163004380Y-69203885D02*
X162004380Y-69203885D01*
X162004380Y-68822933D01*
X162052000Y-68727695D01*
X162099619Y-68680076D01*
X162194857Y-68632457D01*
X162337714Y-68632457D01*
X162432952Y-68680076D01*
X162480571Y-68727695D01*
X162528190Y-68822933D01*
X162528190Y-69203885D01*
X163004380Y-67680076D02*
X163004380Y-68251504D01*
X163004380Y-67965790D02*
X162004380Y-67965790D01*
X162147238Y-68061028D01*
X162242476Y-68156266D01*
X162290095Y-68251504D01*
X162432952Y-67108647D02*
X162385333Y-67203885D01*
X162337714Y-67251504D01*
X162242476Y-67299123D01*
X162194857Y-67299123D01*
X162099619Y-67251504D01*
X162052000Y-67203885D01*
X162004380Y-67108647D01*
X162004380Y-66918171D01*
X162052000Y-66822933D01*
X162099619Y-66775314D01*
X162194857Y-66727695D01*
X162242476Y-66727695D01*
X162337714Y-66775314D01*
X162385333Y-66822933D01*
X162432952Y-66918171D01*
X162432952Y-67108647D01*
X162480571Y-67203885D01*
X162528190Y-67251504D01*
X162623428Y-67299123D01*
X162813904Y-67299123D01*
X162909142Y-67251504D01*
X162956761Y-67203885D01*
X163004380Y-67108647D01*
X163004380Y-66918171D01*
X162956761Y-66822933D01*
X162909142Y-66775314D01*
X162813904Y-66727695D01*
X162623428Y-66727695D01*
X162528190Y-66775314D01*
X162480571Y-66822933D01*
X162432952Y-66918171D01*
X147179466Y-79332057D02*
X146846133Y-79665390D01*
X147179466Y-79903485D02*
X146479466Y-79903485D01*
X146479466Y-79522533D01*
X146512800Y-79427295D01*
X146546133Y-79379676D01*
X146612800Y-79332057D01*
X146712800Y-79332057D01*
X146779466Y-79379676D01*
X146812800Y-79427295D01*
X146846133Y-79522533D01*
X146846133Y-79903485D01*
X147179466Y-78379676D02*
X147179466Y-78951104D01*
X147179466Y-78665390D02*
X146479466Y-78665390D01*
X146579466Y-78760628D01*
X146646133Y-78855866D01*
X146679466Y-78951104D01*
X146479466Y-78046342D02*
X146479466Y-77427295D01*
X146746133Y-77760628D01*
X146746133Y-77617771D01*
X146779466Y-77522533D01*
X146812800Y-77474914D01*
X146879466Y-77427295D01*
X147046133Y-77427295D01*
X147112800Y-77474914D01*
X147146133Y-77522533D01*
X147179466Y-77617771D01*
X147179466Y-77903485D01*
X147146133Y-77998723D01*
X147112800Y-78046342D01*
X141167295Y-64843180D02*
X141167295Y-65652704D01*
X141214914Y-65747942D01*
X141262533Y-65795561D01*
X141357771Y-65843180D01*
X141548247Y-65843180D01*
X141643485Y-65795561D01*
X141691104Y-65747942D01*
X141738723Y-65652704D01*
X141738723Y-64843180D01*
X142738723Y-65843180D02*
X142167295Y-65843180D01*
X142453009Y-65843180D02*
X142453009Y-64843180D01*
X142357771Y-64986038D01*
X142262533Y-65081276D01*
X142167295Y-65128895D01*
X148843142Y-94826666D02*
X148890761Y-94874285D01*
X148938380Y-95017142D01*
X148938380Y-95112380D01*
X148890761Y-95255238D01*
X148795523Y-95350476D01*
X148700285Y-95398095D01*
X148509809Y-95445714D01*
X148366952Y-95445714D01*
X148176476Y-95398095D01*
X148081238Y-95350476D01*
X147986000Y-95255238D01*
X147938380Y-95112380D01*
X147938380Y-95017142D01*
X147986000Y-94874285D01*
X148033619Y-94826666D01*
X148366952Y-94255238D02*
X148319333Y-94350476D01*
X148271714Y-94398095D01*
X148176476Y-94445714D01*
X148128857Y-94445714D01*
X148033619Y-94398095D01*
X147986000Y-94350476D01*
X147938380Y-94255238D01*
X147938380Y-94064761D01*
X147986000Y-93969523D01*
X148033619Y-93921904D01*
X148128857Y-93874285D01*
X148176476Y-93874285D01*
X148271714Y-93921904D01*
X148319333Y-93969523D01*
X148366952Y-94064761D01*
X148366952Y-94255238D01*
X148414571Y-94350476D01*
X148462190Y-94398095D01*
X148557428Y-94445714D01*
X148747904Y-94445714D01*
X148843142Y-94398095D01*
X148890761Y-94350476D01*
X148938380Y-94255238D01*
X148938380Y-94064761D01*
X148890761Y-93969523D01*
X148843142Y-93921904D01*
X148747904Y-93874285D01*
X148557428Y-93874285D01*
X148462190Y-93921904D01*
X148414571Y-93969523D01*
X148366952Y-94064761D01*
X127012771Y-75757019D02*
X126917533Y-75709400D01*
X126822295Y-75614161D01*
X126679438Y-75471304D01*
X126584200Y-75423685D01*
X126488961Y-75423685D01*
X126536580Y-75661780D02*
X126441342Y-75614161D01*
X126346104Y-75518923D01*
X126298485Y-75328447D01*
X126298485Y-74995114D01*
X126346104Y-74804638D01*
X126441342Y-74709400D01*
X126536580Y-74661780D01*
X126727057Y-74661780D01*
X126822295Y-74709400D01*
X126917533Y-74804638D01*
X126965152Y-74995114D01*
X126965152Y-75328447D01*
X126917533Y-75518923D01*
X126822295Y-75614161D01*
X126727057Y-75661780D01*
X126536580Y-75661780D01*
X127346104Y-74757019D02*
X127393723Y-74709400D01*
X127488961Y-74661780D01*
X127727057Y-74661780D01*
X127822295Y-74709400D01*
X127869914Y-74757019D01*
X127917533Y-74852257D01*
X127917533Y-74947495D01*
X127869914Y-75090352D01*
X127298485Y-75661780D01*
X127917533Y-75661780D01*
X128298485Y-74757019D02*
X128346104Y-74709400D01*
X128441342Y-74661780D01*
X128679438Y-74661780D01*
X128774676Y-74709400D01*
X128822295Y-74757019D01*
X128869914Y-74852257D01*
X128869914Y-74947495D01*
X128822295Y-75090352D01*
X128250866Y-75661780D01*
X128869914Y-75661780D01*
X144619333Y-74811142D02*
X144571714Y-74858761D01*
X144428857Y-74906380D01*
X144333619Y-74906380D01*
X144190761Y-74858761D01*
X144095523Y-74763523D01*
X144047904Y-74668285D01*
X144000285Y-74477809D01*
X144000285Y-74334952D01*
X144047904Y-74144476D01*
X144095523Y-74049238D01*
X144190761Y-73954000D01*
X144333619Y-73906380D01*
X144428857Y-73906380D01*
X144571714Y-73954000D01*
X144619333Y-74001619D01*
X145476476Y-74239714D02*
X145476476Y-74906380D01*
X145238380Y-73858761D02*
X145000285Y-74573047D01*
X145619333Y-74573047D01*
X126911171Y-79323219D02*
X126815933Y-79275600D01*
X126720695Y-79180361D01*
X126577838Y-79037504D01*
X126482600Y-78989885D01*
X126387361Y-78989885D01*
X126434980Y-79227980D02*
X126339742Y-79180361D01*
X126244504Y-79085123D01*
X126196885Y-78894647D01*
X126196885Y-78561314D01*
X126244504Y-78370838D01*
X126339742Y-78275600D01*
X126434980Y-78227980D01*
X126625457Y-78227980D01*
X126720695Y-78275600D01*
X126815933Y-78370838D01*
X126863552Y-78561314D01*
X126863552Y-78894647D01*
X126815933Y-79085123D01*
X126720695Y-79180361D01*
X126625457Y-79227980D01*
X126434980Y-79227980D01*
X127244504Y-78323219D02*
X127292123Y-78275600D01*
X127387361Y-78227980D01*
X127625457Y-78227980D01*
X127720695Y-78275600D01*
X127768314Y-78323219D01*
X127815933Y-78418457D01*
X127815933Y-78513695D01*
X127768314Y-78656552D01*
X127196885Y-79227980D01*
X127815933Y-79227980D01*
X128768314Y-79227980D02*
X128196885Y-79227980D01*
X128482600Y-79227980D02*
X128482600Y-78227980D01*
X128387361Y-78370838D01*
X128292123Y-78466076D01*
X128196885Y-78513695D01*
X114271466Y-51115980D02*
X114271466Y-51830266D01*
X114223847Y-51973123D01*
X114128609Y-52068361D01*
X113985752Y-52115980D01*
X113890514Y-52115980D01*
X115271466Y-52115980D02*
X114700038Y-52115980D01*
X114985752Y-52115980D02*
X114985752Y-51115980D01*
X114890514Y-51258838D01*
X114795276Y-51354076D01*
X114700038Y-51401695D01*
X162659961Y-78904933D02*
X162707580Y-78762076D01*
X162707580Y-78523980D01*
X162659961Y-78428742D01*
X162612342Y-78381123D01*
X162517104Y-78333504D01*
X162421866Y-78333504D01*
X162326628Y-78381123D01*
X162279009Y-78428742D01*
X162231390Y-78523980D01*
X162183771Y-78714457D01*
X162136152Y-78809695D01*
X162088533Y-78857314D01*
X161993295Y-78904933D01*
X161898057Y-78904933D01*
X161802819Y-78857314D01*
X161755200Y-78809695D01*
X161707580Y-78714457D01*
X161707580Y-78476361D01*
X161755200Y-78333504D01*
X161707580Y-78000171D02*
X162707580Y-77762076D01*
X161993295Y-77571600D01*
X162707580Y-77381123D01*
X161707580Y-77143028D01*
X161802819Y-76809695D02*
X161755200Y-76762076D01*
X161707580Y-76666838D01*
X161707580Y-76428742D01*
X161755200Y-76333504D01*
X161802819Y-76285885D01*
X161898057Y-76238266D01*
X161993295Y-76238266D01*
X162136152Y-76285885D01*
X162707580Y-76857314D01*
X162707580Y-76238266D01*
X162132971Y-74864742D02*
X162180590Y-74721885D01*
X162228209Y-74674266D01*
X162323447Y-74626647D01*
X162466304Y-74626647D01*
X162561542Y-74674266D01*
X162609161Y-74721885D01*
X162656780Y-74817123D01*
X162656780Y-75198076D01*
X161656780Y-75198076D01*
X161656780Y-74864742D01*
X161704400Y-74769504D01*
X161752019Y-74721885D01*
X161847257Y-74674266D01*
X161942495Y-74674266D01*
X162037733Y-74721885D01*
X162085352Y-74769504D01*
X162132971Y-74864742D01*
X162132971Y-75198076D01*
X161656780Y-74007600D02*
X161656780Y-73817123D01*
X161704400Y-73721885D01*
X161799638Y-73626647D01*
X161990114Y-73579028D01*
X162323447Y-73579028D01*
X162513923Y-73626647D01*
X162609161Y-73721885D01*
X162656780Y-73817123D01*
X162656780Y-74007600D01*
X162609161Y-74102838D01*
X162513923Y-74198076D01*
X162323447Y-74245695D01*
X161990114Y-74245695D01*
X161799638Y-74198076D01*
X161704400Y-74102838D01*
X161656780Y-74007600D01*
X161656780Y-72959980D02*
X161656780Y-72769504D01*
X161704400Y-72674266D01*
X161799638Y-72579028D01*
X161990114Y-72531409D01*
X162323447Y-72531409D01*
X162513923Y-72579028D01*
X162609161Y-72674266D01*
X162656780Y-72769504D01*
X162656780Y-72959980D01*
X162609161Y-73055219D01*
X162513923Y-73150457D01*
X162323447Y-73198076D01*
X161990114Y-73198076D01*
X161799638Y-73150457D01*
X161704400Y-73055219D01*
X161656780Y-72959980D01*
X161656780Y-72245695D02*
X161656780Y-71674266D01*
X162656780Y-71959980D02*
X161656780Y-71959980D01*
X140701733Y-74677542D02*
X140654114Y-74725161D01*
X140511257Y-74772780D01*
X140416019Y-74772780D01*
X140273161Y-74725161D01*
X140177923Y-74629923D01*
X140130304Y-74534685D01*
X140082685Y-74344209D01*
X140082685Y-74201352D01*
X140130304Y-74010876D01*
X140177923Y-73915638D01*
X140273161Y-73820400D01*
X140416019Y-73772780D01*
X140511257Y-73772780D01*
X140654114Y-73820400D01*
X140701733Y-73868019D01*
X141606495Y-73772780D02*
X141130304Y-73772780D01*
X141082685Y-74248971D01*
X141130304Y-74201352D01*
X141225542Y-74153733D01*
X141463638Y-74153733D01*
X141558876Y-74201352D01*
X141606495Y-74248971D01*
X141654114Y-74344209D01*
X141654114Y-74582304D01*
X141606495Y-74677542D01*
X141558876Y-74725161D01*
X141463638Y-74772780D01*
X141225542Y-74772780D01*
X141130304Y-74725161D01*
X141082685Y-74677542D01*
X182664171Y-105246419D02*
X182568933Y-105198800D01*
X182473695Y-105103561D01*
X182330838Y-104960704D01*
X182235600Y-104913085D01*
X182140361Y-104913085D01*
X182187980Y-105151180D02*
X182092742Y-105103561D01*
X181997504Y-105008323D01*
X181949885Y-104817847D01*
X181949885Y-104484514D01*
X181997504Y-104294038D01*
X182092742Y-104198800D01*
X182187980Y-104151180D01*
X182378457Y-104151180D01*
X182473695Y-104198800D01*
X182568933Y-104294038D01*
X182616552Y-104484514D01*
X182616552Y-104817847D01*
X182568933Y-105008323D01*
X182473695Y-105103561D01*
X182378457Y-105151180D01*
X182187980Y-105151180D01*
X183568933Y-105151180D02*
X182997504Y-105151180D01*
X183283219Y-105151180D02*
X183283219Y-104151180D01*
X183187980Y-104294038D01*
X183092742Y-104389276D01*
X182997504Y-104436895D01*
X184473695Y-104151180D02*
X183997504Y-104151180D01*
X183949885Y-104627371D01*
X183997504Y-104579752D01*
X184092742Y-104532133D01*
X184330838Y-104532133D01*
X184426076Y-104579752D01*
X184473695Y-104627371D01*
X184521314Y-104722609D01*
X184521314Y-104960704D01*
X184473695Y-105055942D01*
X184426076Y-105103561D01*
X184330838Y-105151180D01*
X184092742Y-105151180D01*
X183997504Y-105103561D01*
X183949885Y-105055942D01*
X182714971Y-83910419D02*
X182619733Y-83862800D01*
X182524495Y-83767561D01*
X182381638Y-83624704D01*
X182286400Y-83577085D01*
X182191161Y-83577085D01*
X182238780Y-83815180D02*
X182143542Y-83767561D01*
X182048304Y-83672323D01*
X182000685Y-83481847D01*
X182000685Y-83148514D01*
X182048304Y-82958038D01*
X182143542Y-82862800D01*
X182238780Y-82815180D01*
X182429257Y-82815180D01*
X182524495Y-82862800D01*
X182619733Y-82958038D01*
X182667352Y-83148514D01*
X182667352Y-83481847D01*
X182619733Y-83672323D01*
X182524495Y-83767561D01*
X182429257Y-83815180D01*
X182238780Y-83815180D01*
X183619733Y-83815180D02*
X183048304Y-83815180D01*
X183334019Y-83815180D02*
X183334019Y-82815180D01*
X183238780Y-82958038D01*
X183143542Y-83053276D01*
X183048304Y-83100895D01*
X184238780Y-82815180D02*
X184334019Y-82815180D01*
X184429257Y-82862800D01*
X184476876Y-82910419D01*
X184524495Y-83005657D01*
X184572114Y-83196133D01*
X184572114Y-83434228D01*
X184524495Y-83624704D01*
X184476876Y-83719942D01*
X184429257Y-83767561D01*
X184334019Y-83815180D01*
X184238780Y-83815180D01*
X184143542Y-83767561D01*
X184095923Y-83719942D01*
X184048304Y-83624704D01*
X184000685Y-83434228D01*
X184000685Y-83196133D01*
X184048304Y-83005657D01*
X184095923Y-82910419D01*
X184143542Y-82862800D01*
X184238780Y-82815180D01*
X122110571Y-95492819D02*
X122015333Y-95445200D01*
X121920095Y-95349961D01*
X121777238Y-95207104D01*
X121682000Y-95159485D01*
X121586761Y-95159485D01*
X121634380Y-95397580D02*
X121539142Y-95349961D01*
X121443904Y-95254723D01*
X121396285Y-95064247D01*
X121396285Y-94730914D01*
X121443904Y-94540438D01*
X121539142Y-94445200D01*
X121634380Y-94397580D01*
X121824857Y-94397580D01*
X121920095Y-94445200D01*
X122015333Y-94540438D01*
X122062952Y-94730914D01*
X122062952Y-95064247D01*
X122015333Y-95254723D01*
X121920095Y-95349961D01*
X121824857Y-95397580D01*
X121634380Y-95397580D01*
X123015333Y-95397580D02*
X122443904Y-95397580D01*
X122729619Y-95397580D02*
X122729619Y-94397580D01*
X122634380Y-94540438D01*
X122539142Y-94635676D01*
X122443904Y-94683295D01*
X123348666Y-94397580D02*
X124015333Y-94397580D01*
X123586761Y-95397580D01*
X146112666Y-79332057D02*
X145779333Y-79665390D01*
X146112666Y-79903485D02*
X145412666Y-79903485D01*
X145412666Y-79522533D01*
X145446000Y-79427295D01*
X145479333Y-79379676D01*
X145546000Y-79332057D01*
X145646000Y-79332057D01*
X145712666Y-79379676D01*
X145746000Y-79427295D01*
X145779333Y-79522533D01*
X145779333Y-79903485D01*
X146112666Y-78379676D02*
X146112666Y-78951104D01*
X146112666Y-78665390D02*
X145412666Y-78665390D01*
X145512666Y-78760628D01*
X145579333Y-78855866D01*
X145612666Y-78951104D01*
X145479333Y-77998723D02*
X145446000Y-77951104D01*
X145412666Y-77855866D01*
X145412666Y-77617771D01*
X145446000Y-77522533D01*
X145479333Y-77474914D01*
X145546000Y-77427295D01*
X145612666Y-77427295D01*
X145712666Y-77474914D01*
X146112666Y-78046342D01*
X146112666Y-77427295D01*
X154477980Y-56414895D02*
X153477980Y-56414895D01*
X153477980Y-56176800D01*
X153525600Y-56033942D01*
X153620838Y-55938704D01*
X153716076Y-55891085D01*
X153906552Y-55843466D01*
X154049409Y-55843466D01*
X154239885Y-55891085D01*
X154335123Y-55938704D01*
X154430361Y-56033942D01*
X154477980Y-56176800D01*
X154477980Y-56414895D01*
X153477980Y-55510133D02*
X153477980Y-54891085D01*
X153858933Y-55224419D01*
X153858933Y-55081561D01*
X153906552Y-54986323D01*
X153954171Y-54938704D01*
X154049409Y-54891085D01*
X154287504Y-54891085D01*
X154382742Y-54938704D01*
X154430361Y-54986323D01*
X154477980Y-55081561D01*
X154477980Y-55367276D01*
X154430361Y-55462514D01*
X154382742Y-55510133D01*
X126860371Y-68822819D02*
X126765133Y-68775200D01*
X126669895Y-68679961D01*
X126527038Y-68537104D01*
X126431800Y-68489485D01*
X126336561Y-68489485D01*
X126384180Y-68727580D02*
X126288942Y-68679961D01*
X126193704Y-68584723D01*
X126146085Y-68394247D01*
X126146085Y-68060914D01*
X126193704Y-67870438D01*
X126288942Y-67775200D01*
X126384180Y-67727580D01*
X126574657Y-67727580D01*
X126669895Y-67775200D01*
X126765133Y-67870438D01*
X126812752Y-68060914D01*
X126812752Y-68394247D01*
X126765133Y-68584723D01*
X126669895Y-68679961D01*
X126574657Y-68727580D01*
X126384180Y-68727580D01*
X127193704Y-67822819D02*
X127241323Y-67775200D01*
X127336561Y-67727580D01*
X127574657Y-67727580D01*
X127669895Y-67775200D01*
X127717514Y-67822819D01*
X127765133Y-67918057D01*
X127765133Y-68013295D01*
X127717514Y-68156152D01*
X127146085Y-68727580D01*
X127765133Y-68727580D01*
X128622276Y-68060914D02*
X128622276Y-68727580D01*
X128384180Y-67679961D02*
X128146085Y-68394247D01*
X128765133Y-68394247D01*
X103846380Y-102390533D02*
X104560666Y-102390533D01*
X104703523Y-102438152D01*
X104798761Y-102533390D01*
X104846380Y-102676247D01*
X104846380Y-102771485D01*
X103846380Y-102009580D02*
X103846380Y-101342914D01*
X104846380Y-101771485D01*
X147976400Y-79738457D02*
X148009733Y-79786076D01*
X148043066Y-79928933D01*
X148043066Y-80024171D01*
X148009733Y-80167028D01*
X147943066Y-80262266D01*
X147876400Y-80309885D01*
X147743066Y-80357504D01*
X147643066Y-80357504D01*
X147509733Y-80309885D01*
X147443066Y-80262266D01*
X147376400Y-80167028D01*
X147343066Y-80024171D01*
X147343066Y-79928933D01*
X147376400Y-79786076D01*
X147409733Y-79738457D01*
X148043066Y-78786076D02*
X148043066Y-79357504D01*
X148043066Y-79071790D02*
X147343066Y-79071790D01*
X147443066Y-79167028D01*
X147509733Y-79262266D01*
X147543066Y-79357504D01*
X147343066Y-78452742D02*
X147343066Y-77833695D01*
X147609733Y-78167028D01*
X147609733Y-78024171D01*
X147643066Y-77928933D01*
X147676400Y-77881314D01*
X147743066Y-77833695D01*
X147909733Y-77833695D01*
X147976400Y-77881314D01*
X148009733Y-77928933D01*
X148043066Y-78024171D01*
X148043066Y-78309885D01*
X148009733Y-78405123D01*
X147976400Y-78452742D01*
X126964271Y-82930019D02*
X126869033Y-82882400D01*
X126773795Y-82787161D01*
X126630938Y-82644304D01*
X126535700Y-82596685D01*
X126440461Y-82596685D01*
X126488080Y-82834780D02*
X126392842Y-82787161D01*
X126297604Y-82691923D01*
X126249985Y-82501447D01*
X126249985Y-82168114D01*
X126297604Y-81977638D01*
X126392842Y-81882400D01*
X126488080Y-81834780D01*
X126678557Y-81834780D01*
X126773795Y-81882400D01*
X126869033Y-81977638D01*
X126916652Y-82168114D01*
X126916652Y-82501447D01*
X126869033Y-82691923D01*
X126773795Y-82787161D01*
X126678557Y-82834780D01*
X126488080Y-82834780D01*
X127297604Y-81930019D02*
X127345223Y-81882400D01*
X127440461Y-81834780D01*
X127678557Y-81834780D01*
X127773795Y-81882400D01*
X127821414Y-81930019D01*
X127869033Y-82025257D01*
X127869033Y-82120495D01*
X127821414Y-82263352D01*
X127249985Y-82834780D01*
X127869033Y-82834780D01*
X128488080Y-81834780D02*
X128583319Y-81834780D01*
X128678557Y-81882400D01*
X128726176Y-81930019D01*
X128773795Y-82025257D01*
X128821414Y-82215733D01*
X128821414Y-82453828D01*
X128773795Y-82644304D01*
X128726176Y-82739542D01*
X128678557Y-82787161D01*
X128583319Y-82834780D01*
X128488080Y-82834780D01*
X128392842Y-82787161D01*
X128345223Y-82739542D01*
X128297604Y-82644304D01*
X128249985Y-82453828D01*
X128249985Y-82215733D01*
X128297604Y-82025257D01*
X128345223Y-81930019D01*
X128392842Y-81882400D01*
X128488080Y-81834780D01*
X189476142Y-57729142D02*
X189428523Y-57776761D01*
X189285666Y-57824380D01*
X189190428Y-57824380D01*
X189047571Y-57776761D01*
X188952333Y-57681523D01*
X188904714Y-57586285D01*
X188857095Y-57395809D01*
X188857095Y-57252952D01*
X188904714Y-57062476D01*
X188952333Y-56967238D01*
X189047571Y-56872000D01*
X189190428Y-56824380D01*
X189285666Y-56824380D01*
X189428523Y-56872000D01*
X189476142Y-56919619D01*
X190333285Y-57157714D02*
X190333285Y-57824380D01*
X190095190Y-56776761D02*
X189857095Y-57491047D01*
X190476142Y-57491047D01*
X191380904Y-57824380D02*
X190809476Y-57824380D01*
X191095190Y-57824380D02*
X191095190Y-56824380D01*
X190999952Y-56967238D01*
X190904714Y-57062476D01*
X190809476Y-57110095D01*
X145030000Y-78468457D02*
X145063333Y-78516076D01*
X145096666Y-78658933D01*
X145096666Y-78754171D01*
X145063333Y-78897028D01*
X144996666Y-78992266D01*
X144930000Y-79039885D01*
X144796666Y-79087504D01*
X144696666Y-79087504D01*
X144563333Y-79039885D01*
X144496666Y-78992266D01*
X144430000Y-78897028D01*
X144396666Y-78754171D01*
X144396666Y-78658933D01*
X144430000Y-78516076D01*
X144463333Y-78468457D01*
X145096666Y-77516076D02*
X145096666Y-78087504D01*
X145096666Y-77801790D02*
X144396666Y-77801790D01*
X144496666Y-77897028D01*
X144563333Y-77992266D01*
X144596666Y-78087504D01*
X144396666Y-76658933D02*
X144396666Y-76849409D01*
X144430000Y-76944647D01*
X144463333Y-76992266D01*
X144563333Y-77087504D01*
X144696666Y-77135123D01*
X144963333Y-77135123D01*
X145030000Y-77087504D01*
X145063333Y-77039885D01*
X145096666Y-76944647D01*
X145096666Y-76754171D01*
X145063333Y-76658933D01*
X145030000Y-76611314D01*
X144963333Y-76563695D01*
X144796666Y-76563695D01*
X144730000Y-76611314D01*
X144696666Y-76658933D01*
X144663333Y-76754171D01*
X144663333Y-76944647D01*
X144696666Y-77039885D01*
X144730000Y-77087504D01*
X144796666Y-77135123D01*
X126911171Y-61812419D02*
X126815933Y-61764800D01*
X126720695Y-61669561D01*
X126577838Y-61526704D01*
X126482600Y-61479085D01*
X126387361Y-61479085D01*
X126434980Y-61717180D02*
X126339742Y-61669561D01*
X126244504Y-61574323D01*
X126196885Y-61383847D01*
X126196885Y-61050514D01*
X126244504Y-60860038D01*
X126339742Y-60764800D01*
X126434980Y-60717180D01*
X126625457Y-60717180D01*
X126720695Y-60764800D01*
X126815933Y-60860038D01*
X126863552Y-61050514D01*
X126863552Y-61383847D01*
X126815933Y-61574323D01*
X126720695Y-61669561D01*
X126625457Y-61717180D01*
X126434980Y-61717180D01*
X127244504Y-60812419D02*
X127292123Y-60764800D01*
X127387361Y-60717180D01*
X127625457Y-60717180D01*
X127720695Y-60764800D01*
X127768314Y-60812419D01*
X127815933Y-60907657D01*
X127815933Y-61002895D01*
X127768314Y-61145752D01*
X127196885Y-61717180D01*
X127815933Y-61717180D01*
X128673076Y-60717180D02*
X128482600Y-60717180D01*
X128387361Y-60764800D01*
X128339742Y-60812419D01*
X128244504Y-60955276D01*
X128196885Y-61145752D01*
X128196885Y-61526704D01*
X128244504Y-61621942D01*
X128292123Y-61669561D01*
X128387361Y-61717180D01*
X128577838Y-61717180D01*
X128673076Y-61669561D01*
X128720695Y-61621942D01*
X128768314Y-61526704D01*
X128768314Y-61288609D01*
X128720695Y-61193371D01*
X128673076Y-61145752D01*
X128577838Y-61098133D01*
X128387361Y-61098133D01*
X128292123Y-61145752D01*
X128244504Y-61193371D01*
X128196885Y-61288609D01*
X151954666Y-80043257D02*
X151621333Y-80376590D01*
X151954666Y-80614685D02*
X151254666Y-80614685D01*
X151254666Y-80233733D01*
X151288000Y-80138495D01*
X151321333Y-80090876D01*
X151388000Y-80043257D01*
X151488000Y-80043257D01*
X151554666Y-80090876D01*
X151588000Y-80138495D01*
X151621333Y-80233733D01*
X151621333Y-80614685D01*
X151954666Y-79090876D02*
X151954666Y-79662304D01*
X151954666Y-79376590D02*
X151254666Y-79376590D01*
X151354666Y-79471828D01*
X151421333Y-79567066D01*
X151454666Y-79662304D01*
X151254666Y-78186114D02*
X151254666Y-78662304D01*
X151588000Y-78709923D01*
X151554666Y-78662304D01*
X151521333Y-78567066D01*
X151521333Y-78328971D01*
X151554666Y-78233733D01*
X151588000Y-78186114D01*
X151654666Y-78138495D01*
X151821333Y-78138495D01*
X151888000Y-78186114D01*
X151921333Y-78233733D01*
X151954666Y-78328971D01*
X151954666Y-78567066D01*
X151921333Y-78662304D01*
X151888000Y-78709923D01*
X150487142Y-85802742D02*
X150439523Y-85850361D01*
X150296666Y-85897980D01*
X150201428Y-85897980D01*
X150058571Y-85850361D01*
X149963333Y-85755123D01*
X149915714Y-85659885D01*
X149868095Y-85469409D01*
X149868095Y-85326552D01*
X149915714Y-85136076D01*
X149963333Y-85040838D01*
X150058571Y-84945600D01*
X150201428Y-84897980D01*
X150296666Y-84897980D01*
X150439523Y-84945600D01*
X150487142Y-84993219D01*
X151439523Y-85897980D02*
X150868095Y-85897980D01*
X151153809Y-85897980D02*
X151153809Y-84897980D01*
X151058571Y-85040838D01*
X150963333Y-85136076D01*
X150868095Y-85183695D01*
X152296666Y-85231314D02*
X152296666Y-85897980D01*
X152058571Y-84850361D02*
X151820476Y-85564647D01*
X152439523Y-85564647D01*
X134558380Y-70611666D02*
X134082190Y-70945000D01*
X134558380Y-71183095D02*
X133558380Y-71183095D01*
X133558380Y-70802142D01*
X133606000Y-70706904D01*
X133653619Y-70659285D01*
X133748857Y-70611666D01*
X133891714Y-70611666D01*
X133986952Y-70659285D01*
X134034571Y-70706904D01*
X134082190Y-70802142D01*
X134082190Y-71183095D01*
X134558380Y-70135476D02*
X134558380Y-69945000D01*
X134510761Y-69849761D01*
X134463142Y-69802142D01*
X134320285Y-69706904D01*
X134129809Y-69659285D01*
X133748857Y-69659285D01*
X133653619Y-69706904D01*
X133606000Y-69754523D01*
X133558380Y-69849761D01*
X133558380Y-70040238D01*
X133606000Y-70135476D01*
X133653619Y-70183095D01*
X133748857Y-70230714D01*
X133986952Y-70230714D01*
X134082190Y-70183095D01*
X134129809Y-70135476D01*
X134177428Y-70040238D01*
X134177428Y-69849761D01*
X134129809Y-69754523D01*
X134082190Y-69706904D01*
X133986952Y-69659285D01*
X153714380Y-87194857D02*
X153238190Y-87528190D01*
X153714380Y-87766285D02*
X152714380Y-87766285D01*
X152714380Y-87385333D01*
X152762000Y-87290095D01*
X152809619Y-87242476D01*
X152904857Y-87194857D01*
X153047714Y-87194857D01*
X153142952Y-87242476D01*
X153190571Y-87290095D01*
X153238190Y-87385333D01*
X153238190Y-87766285D01*
X153714380Y-86242476D02*
X153714380Y-86813904D01*
X153714380Y-86528190D02*
X152714380Y-86528190D01*
X152857238Y-86623428D01*
X152952476Y-86718666D01*
X153000095Y-86813904D01*
X153714380Y-85766285D02*
X153714380Y-85575809D01*
X153666761Y-85480571D01*
X153619142Y-85432952D01*
X153476285Y-85337714D01*
X153285809Y-85290095D01*
X152904857Y-85290095D01*
X152809619Y-85337714D01*
X152762000Y-85385333D01*
X152714380Y-85480571D01*
X152714380Y-85671047D01*
X152762000Y-85766285D01*
X152809619Y-85813904D01*
X152904857Y-85861523D01*
X153142952Y-85861523D01*
X153238190Y-85813904D01*
X153285809Y-85766285D01*
X153333428Y-85671047D01*
X153333428Y-85480571D01*
X153285809Y-85385333D01*
X153238190Y-85337714D01*
X153142952Y-85290095D01*
X137401180Y-96142133D02*
X138115466Y-96142133D01*
X138258323Y-96189752D01*
X138353561Y-96284990D01*
X138401180Y-96427847D01*
X138401180Y-96523085D01*
X138401180Y-95618323D02*
X138401180Y-95427847D01*
X138353561Y-95332609D01*
X138305942Y-95284990D01*
X138163085Y-95189752D01*
X137972609Y-95142133D01*
X137591657Y-95142133D01*
X137496419Y-95189752D01*
X137448800Y-95237371D01*
X137401180Y-95332609D01*
X137401180Y-95523085D01*
X137448800Y-95618323D01*
X137496419Y-95665942D01*
X137591657Y-95713561D01*
X137829752Y-95713561D01*
X137924990Y-95665942D01*
X137972609Y-95618323D01*
X138020228Y-95523085D01*
X138020228Y-95332609D01*
X137972609Y-95237371D01*
X137924990Y-95189752D01*
X137829752Y-95142133D01*
X146706400Y-98128057D02*
X146739733Y-98175676D01*
X146773066Y-98318533D01*
X146773066Y-98413771D01*
X146739733Y-98556628D01*
X146673066Y-98651866D01*
X146606400Y-98699485D01*
X146473066Y-98747104D01*
X146373066Y-98747104D01*
X146239733Y-98699485D01*
X146173066Y-98651866D01*
X146106400Y-98556628D01*
X146073066Y-98413771D01*
X146073066Y-98318533D01*
X146106400Y-98175676D01*
X146139733Y-98128057D01*
X146773066Y-97175676D02*
X146773066Y-97747104D01*
X146773066Y-97461390D02*
X146073066Y-97461390D01*
X146173066Y-97556628D01*
X146239733Y-97651866D01*
X146273066Y-97747104D01*
X146773066Y-96223295D02*
X146773066Y-96794723D01*
X146773066Y-96509009D02*
X146073066Y-96509009D01*
X146173066Y-96604247D01*
X146239733Y-96699485D01*
X146273066Y-96794723D01*
X120789866Y-110640761D02*
X120932723Y-110688380D01*
X121170819Y-110688380D01*
X121266057Y-110640761D01*
X121313676Y-110593142D01*
X121361295Y-110497904D01*
X121361295Y-110402666D01*
X121313676Y-110307428D01*
X121266057Y-110259809D01*
X121170819Y-110212190D01*
X120980342Y-110164571D01*
X120885104Y-110116952D01*
X120837485Y-110069333D01*
X120789866Y-109974095D01*
X120789866Y-109878857D01*
X120837485Y-109783619D01*
X120885104Y-109736000D01*
X120980342Y-109688380D01*
X121218438Y-109688380D01*
X121361295Y-109736000D01*
X121694628Y-109688380D02*
X121932723Y-110688380D01*
X122123200Y-109974095D01*
X122313676Y-110688380D01*
X122551771Y-109688380D01*
X122837485Y-109688380D02*
X123456533Y-109688380D01*
X123123200Y-110069333D01*
X123266057Y-110069333D01*
X123361295Y-110116952D01*
X123408914Y-110164571D01*
X123456533Y-110259809D01*
X123456533Y-110497904D01*
X123408914Y-110593142D01*
X123361295Y-110640761D01*
X123266057Y-110688380D01*
X122980342Y-110688380D01*
X122885104Y-110640761D01*
X122837485Y-110593142D01*
X126193942Y-110402666D02*
X126670133Y-110402666D01*
X126098704Y-110688380D02*
X126432038Y-109688380D01*
X126765371Y-110688380D01*
X127098704Y-110688380D02*
X127098704Y-109688380D01*
X127336800Y-109688380D01*
X127479657Y-109736000D01*
X127574895Y-109831238D01*
X127622514Y-109926476D01*
X127670133Y-110116952D01*
X127670133Y-110259809D01*
X127622514Y-110450285D01*
X127574895Y-110545523D01*
X127479657Y-110640761D01*
X127336800Y-110688380D01*
X127098704Y-110688380D01*
X128098704Y-110688380D02*
X128098704Y-109688380D01*
X128336800Y-109688380D01*
X128479657Y-109736000D01*
X128574895Y-109831238D01*
X128622514Y-109926476D01*
X128670133Y-110116952D01*
X128670133Y-110259809D01*
X128622514Y-110450285D01*
X128574895Y-110545523D01*
X128479657Y-110640761D01*
X128336800Y-110688380D01*
X128098704Y-110688380D01*
X129670133Y-110688380D02*
X129336800Y-110212190D01*
X129098704Y-110688380D02*
X129098704Y-109688380D01*
X129479657Y-109688380D01*
X129574895Y-109736000D01*
X129622514Y-109783619D01*
X129670133Y-109878857D01*
X129670133Y-110021714D01*
X129622514Y-110116952D01*
X129574895Y-110164571D01*
X129479657Y-110212190D01*
X129098704Y-110212190D01*
X130098704Y-110164571D02*
X130432038Y-110164571D01*
X130574895Y-110688380D02*
X130098704Y-110688380D01*
X130098704Y-109688380D01*
X130574895Y-109688380D01*
X130955847Y-110640761D02*
X131098704Y-110688380D01*
X131336800Y-110688380D01*
X131432038Y-110640761D01*
X131479657Y-110593142D01*
X131527276Y-110497904D01*
X131527276Y-110402666D01*
X131479657Y-110307428D01*
X131432038Y-110259809D01*
X131336800Y-110212190D01*
X131146323Y-110164571D01*
X131051085Y-110116952D01*
X131003466Y-110069333D01*
X130955847Y-109974095D01*
X130955847Y-109878857D01*
X131003466Y-109783619D01*
X131051085Y-109736000D01*
X131146323Y-109688380D01*
X131384419Y-109688380D01*
X131527276Y-109736000D01*
X131908228Y-110640761D02*
X132051085Y-110688380D01*
X132289180Y-110688380D01*
X132384419Y-110640761D01*
X132432038Y-110593142D01*
X132479657Y-110497904D01*
X132479657Y-110402666D01*
X132432038Y-110307428D01*
X132384419Y-110259809D01*
X132289180Y-110212190D01*
X132098704Y-110164571D01*
X132003466Y-110116952D01*
X131955847Y-110069333D01*
X131908228Y-109974095D01*
X131908228Y-109878857D01*
X131955847Y-109783619D01*
X132003466Y-109736000D01*
X132098704Y-109688380D01*
X132336800Y-109688380D01*
X132479657Y-109736000D01*
X171847380Y-63857095D02*
X170847380Y-63857095D01*
X170847380Y-63619000D01*
X170895000Y-63476142D01*
X170990238Y-63380904D01*
X171085476Y-63333285D01*
X171275952Y-63285666D01*
X171418809Y-63285666D01*
X171609285Y-63333285D01*
X171704523Y-63380904D01*
X171799761Y-63476142D01*
X171847380Y-63619000D01*
X171847380Y-63857095D01*
X170847380Y-62428523D02*
X170847380Y-62619000D01*
X170895000Y-62714238D01*
X170942619Y-62761857D01*
X171085476Y-62857095D01*
X171275952Y-62904714D01*
X171656904Y-62904714D01*
X171752142Y-62857095D01*
X171799761Y-62809476D01*
X171847380Y-62714238D01*
X171847380Y-62523761D01*
X171799761Y-62428523D01*
X171752142Y-62380904D01*
X171656904Y-62333285D01*
X171418809Y-62333285D01*
X171323571Y-62380904D01*
X171275952Y-62428523D01*
X171228333Y-62523761D01*
X171228333Y-62714238D01*
X171275952Y-62809476D01*
X171323571Y-62857095D01*
X171418809Y-62904714D01*
X141271333Y-63186380D02*
X140938000Y-62710190D01*
X140699904Y-63186380D02*
X140699904Y-62186380D01*
X141080857Y-62186380D01*
X141176095Y-62234000D01*
X141223714Y-62281619D01*
X141271333Y-62376857D01*
X141271333Y-62519714D01*
X141223714Y-62614952D01*
X141176095Y-62662571D01*
X141080857Y-62710190D01*
X140699904Y-62710190D01*
X141604666Y-62186380D02*
X142223714Y-62186380D01*
X141890380Y-62567333D01*
X142033238Y-62567333D01*
X142128476Y-62614952D01*
X142176095Y-62662571D01*
X142223714Y-62757809D01*
X142223714Y-62995904D01*
X142176095Y-63091142D01*
X142128476Y-63138761D01*
X142033238Y-63186380D01*
X141747523Y-63186380D01*
X141652285Y-63138761D01*
X141604666Y-63091142D01*
X148331180Y-56573657D02*
X147854990Y-56906990D01*
X148331180Y-57145085D02*
X147331180Y-57145085D01*
X147331180Y-56764133D01*
X147378800Y-56668895D01*
X147426419Y-56621276D01*
X147521657Y-56573657D01*
X147664514Y-56573657D01*
X147759752Y-56621276D01*
X147807371Y-56668895D01*
X147854990Y-56764133D01*
X147854990Y-57145085D01*
X148331180Y-55621276D02*
X148331180Y-56192704D01*
X148331180Y-55906990D02*
X147331180Y-55906990D01*
X147474038Y-56002228D01*
X147569276Y-56097466D01*
X147616895Y-56192704D01*
X147331180Y-55287942D02*
X147331180Y-54621276D01*
X148331180Y-55049847D01*
X164295295Y-83170780D02*
X164866723Y-83170780D01*
X164581009Y-84170780D02*
X164581009Y-83170780D01*
X165200057Y-84170780D02*
X165200057Y-83170780D01*
X165581009Y-83170780D01*
X165676247Y-83218400D01*
X165723866Y-83266019D01*
X165771485Y-83361257D01*
X165771485Y-83504114D01*
X165723866Y-83599352D01*
X165676247Y-83646971D01*
X165581009Y-83694590D01*
X165200057Y-83694590D01*
X166152438Y-83266019D02*
X166200057Y-83218400D01*
X166295295Y-83170780D01*
X166533390Y-83170780D01*
X166628628Y-83218400D01*
X166676247Y-83266019D01*
X166723866Y-83361257D01*
X166723866Y-83456495D01*
X166676247Y-83599352D01*
X166104819Y-84170780D01*
X166723866Y-84170780D01*
X183140361Y-62930019D02*
X183045123Y-62882400D01*
X182949885Y-62787161D01*
X182807028Y-62644304D01*
X182711790Y-62596685D01*
X182616552Y-62596685D01*
X182664171Y-62834780D02*
X182568933Y-62787161D01*
X182473695Y-62691923D01*
X182426076Y-62501447D01*
X182426076Y-62168114D01*
X182473695Y-61977638D01*
X182568933Y-61882400D01*
X182664171Y-61834780D01*
X182854647Y-61834780D01*
X182949885Y-61882400D01*
X183045123Y-61977638D01*
X183092742Y-62168114D01*
X183092742Y-62501447D01*
X183045123Y-62691923D01*
X182949885Y-62787161D01*
X182854647Y-62834780D01*
X182664171Y-62834780D01*
X183949885Y-62168114D02*
X183949885Y-62834780D01*
X183711790Y-61787161D02*
X183473695Y-62501447D01*
X184092742Y-62501447D01*
X153881295Y-81087980D02*
X154452723Y-81087980D01*
X154167009Y-82087980D02*
X154167009Y-81087980D01*
X154786057Y-82087980D02*
X154786057Y-81087980D01*
X155167009Y-81087980D01*
X155262247Y-81135600D01*
X155309866Y-81183219D01*
X155357485Y-81278457D01*
X155357485Y-81421314D01*
X155309866Y-81516552D01*
X155262247Y-81564171D01*
X155167009Y-81611790D01*
X154786057Y-81611790D01*
X156214628Y-81421314D02*
X156214628Y-82087980D01*
X155976533Y-81040361D02*
X155738438Y-81754647D01*
X156357485Y-81754647D01*
X143033809Y-100763390D02*
X143033809Y-101239580D01*
X142700476Y-100239580D02*
X143033809Y-100763390D01*
X143367142Y-100239580D01*
X144224285Y-101239580D02*
X143652857Y-101239580D01*
X143938571Y-101239580D02*
X143938571Y-100239580D01*
X143843333Y-100382438D01*
X143748095Y-100477676D01*
X143652857Y-100525295D01*
X149094000Y-79840057D02*
X149127333Y-79887676D01*
X149160666Y-80030533D01*
X149160666Y-80125771D01*
X149127333Y-80268628D01*
X149060666Y-80363866D01*
X148994000Y-80411485D01*
X148860666Y-80459104D01*
X148760666Y-80459104D01*
X148627333Y-80411485D01*
X148560666Y-80363866D01*
X148494000Y-80268628D01*
X148460666Y-80125771D01*
X148460666Y-80030533D01*
X148494000Y-79887676D01*
X148527333Y-79840057D01*
X149160666Y-78887676D02*
X149160666Y-79459104D01*
X149160666Y-79173390D02*
X148460666Y-79173390D01*
X148560666Y-79268628D01*
X148627333Y-79363866D01*
X148660666Y-79459104D01*
X148760666Y-78316247D02*
X148727333Y-78411485D01*
X148694000Y-78459104D01*
X148627333Y-78506723D01*
X148594000Y-78506723D01*
X148527333Y-78459104D01*
X148494000Y-78411485D01*
X148460666Y-78316247D01*
X148460666Y-78125771D01*
X148494000Y-78030533D01*
X148527333Y-77982914D01*
X148594000Y-77935295D01*
X148627333Y-77935295D01*
X148694000Y-77982914D01*
X148727333Y-78030533D01*
X148760666Y-78125771D01*
X148760666Y-78316247D01*
X148794000Y-78411485D01*
X148827333Y-78459104D01*
X148894000Y-78506723D01*
X149027333Y-78506723D01*
X149094000Y-78459104D01*
X149127333Y-78411485D01*
X149160666Y-78316247D01*
X149160666Y-78125771D01*
X149127333Y-78030533D01*
X149094000Y-77982914D01*
X149027333Y-77935295D01*
X148894000Y-77935295D01*
X148827333Y-77982914D01*
X148794000Y-78030533D01*
X148760666Y-78125771D01*
X132791295Y-73925180D02*
X132791295Y-74734704D01*
X132838914Y-74829942D01*
X132886533Y-74877561D01*
X132981771Y-74925180D01*
X133172247Y-74925180D01*
X133267485Y-74877561D01*
X133315104Y-74829942D01*
X133362723Y-74734704D01*
X133362723Y-73925180D01*
X133791295Y-74020419D02*
X133838914Y-73972800D01*
X133934152Y-73925180D01*
X134172247Y-73925180D01*
X134267485Y-73972800D01*
X134315104Y-74020419D01*
X134362723Y-74115657D01*
X134362723Y-74210895D01*
X134315104Y-74353752D01*
X133743676Y-74925180D01*
X134362723Y-74925180D01*
X142241542Y-82888057D02*
X142289161Y-82935676D01*
X142336780Y-83078533D01*
X142336780Y-83173771D01*
X142289161Y-83316628D01*
X142193923Y-83411866D01*
X142098685Y-83459485D01*
X141908209Y-83507104D01*
X141765352Y-83507104D01*
X141574876Y-83459485D01*
X141479638Y-83411866D01*
X141384400Y-83316628D01*
X141336780Y-83173771D01*
X141336780Y-83078533D01*
X141384400Y-82935676D01*
X141432019Y-82888057D01*
X142336780Y-81935676D02*
X142336780Y-82507104D01*
X142336780Y-82221390D02*
X141336780Y-82221390D01*
X141479638Y-82316628D01*
X141574876Y-82411866D01*
X141622495Y-82507104D01*
X141336780Y-81316628D02*
X141336780Y-81221390D01*
X141384400Y-81126152D01*
X141432019Y-81078533D01*
X141527257Y-81030914D01*
X141717733Y-80983295D01*
X141955828Y-80983295D01*
X142146304Y-81030914D01*
X142241542Y-81078533D01*
X142289161Y-81126152D01*
X142336780Y-81221390D01*
X142336780Y-81316628D01*
X142289161Y-81411866D01*
X142241542Y-81459485D01*
X142146304Y-81507104D01*
X141955828Y-81554723D01*
X141717733Y-81554723D01*
X141527257Y-81507104D01*
X141432019Y-81459485D01*
X141384400Y-81411866D01*
X141336780Y-81316628D01*
X133875542Y-108808780D02*
X133542209Y-108332590D01*
X133304114Y-108808780D02*
X133304114Y-107808780D01*
X133685066Y-107808780D01*
X133780304Y-107856400D01*
X133827923Y-107904019D01*
X133875542Y-107999257D01*
X133875542Y-108142114D01*
X133827923Y-108237352D01*
X133780304Y-108284971D01*
X133685066Y-108332590D01*
X133304114Y-108332590D01*
X134780304Y-107808780D02*
X134304114Y-107808780D01*
X134256495Y-108284971D01*
X134304114Y-108237352D01*
X134399352Y-108189733D01*
X134637447Y-108189733D01*
X134732685Y-108237352D01*
X134780304Y-108284971D01*
X134827923Y-108380209D01*
X134827923Y-108618304D01*
X134780304Y-108713542D01*
X134732685Y-108761161D01*
X134637447Y-108808780D01*
X134399352Y-108808780D01*
X134304114Y-108761161D01*
X134256495Y-108713542D01*
X135304114Y-108808780D02*
X135494590Y-108808780D01*
X135589828Y-108761161D01*
X135637447Y-108713542D01*
X135732685Y-108570685D01*
X135780304Y-108380209D01*
X135780304Y-107999257D01*
X135732685Y-107904019D01*
X135685066Y-107856400D01*
X135589828Y-107808780D01*
X135399352Y-107808780D01*
X135304114Y-107856400D01*
X135256495Y-107904019D01*
X135208876Y-107999257D01*
X135208876Y-108237352D01*
X135256495Y-108332590D01*
X135304114Y-108380209D01*
X135399352Y-108427828D01*
X135589828Y-108427828D01*
X135685066Y-108380209D01*
X135732685Y-108332590D01*
X135780304Y-108237352D01*
D14*
X151790164Y-89074000D02*
X152005836Y-89074000D01*
X151790164Y-89794000D02*
X152005836Y-89794000D01*
X143751000Y-46674000D02*
G75*
G03*
X143751000Y-46674000I-1251000J0D01*
G01*
X145630000Y-96661836D02*
X145630000Y-96446164D01*
X144910000Y-96661836D02*
X144910000Y-96446164D01*
X156293600Y-62748964D02*
X156293600Y-62964636D01*
X155573600Y-62748964D02*
X155573600Y-62964636D01*
X124849658Y-64632100D02*
X124375142Y-64632100D01*
X124849658Y-63587100D02*
X124375142Y-63587100D01*
X150896500Y-55072742D02*
X150896500Y-55547258D01*
X149851500Y-55072742D02*
X149851500Y-55547258D01*
X173774980Y-102309200D02*
X173493820Y-102309200D01*
X173774980Y-103329200D02*
X173493820Y-103329200D01*
X135366000Y-58936000D02*
X135366000Y-60636000D01*
X135366000Y-58936000D02*
X137916000Y-58936000D01*
X135366000Y-60636000D02*
X137916000Y-60636000D01*
X180340000Y-101818000D02*
X178665000Y-101818000D01*
X180340000Y-104938000D02*
X179690000Y-104938000D01*
X180340000Y-101818000D02*
X180990000Y-101818000D01*
X180340000Y-104938000D02*
X180990000Y-104938000D01*
X165602500Y-63514800D02*
X163802500Y-63514800D01*
X165602500Y-63514800D02*
X166402500Y-63514800D01*
X165602500Y-66634800D02*
X164802500Y-66634800D01*
X165602500Y-66634800D02*
X166402500Y-66634800D01*
X154169500Y-77137258D02*
X154169500Y-76662742D01*
X155214500Y-77137258D02*
X155214500Y-76662742D01*
X162879300Y-101888058D02*
X162879300Y-101413542D01*
X161834300Y-101888058D02*
X161834300Y-101413542D01*
X150984000Y-66148000D02*
X150984000Y-63798000D01*
X143136500Y-60890500D02*
X143924000Y-60890500D01*
X144164000Y-60392437D02*
X144164000Y-61678000D01*
X145228437Y-59328000D02*
X150984000Y-59328000D01*
X144164000Y-65083563D02*
X144164000Y-63798000D01*
X150984000Y-59328000D02*
X150984000Y-61678000D01*
X144164000Y-65083563D02*
X145228437Y-66148000D01*
X144164000Y-60392437D02*
X145228437Y-59328000D01*
X145228437Y-66148000D02*
X150984000Y-66148000D01*
X143530250Y-60496750D02*
X143530250Y-61284250D01*
X143386000Y-80309836D02*
X143386000Y-80094164D01*
X144106000Y-80309836D02*
X144106000Y-80094164D01*
X172126800Y-87196000D02*
X172126800Y-85886000D01*
X174846800Y-82476000D02*
X174846800Y-82706000D01*
X174846800Y-87196000D02*
X174846800Y-86966000D01*
X172126800Y-83786000D02*
X172126800Y-82476000D01*
X175986800Y-86966000D02*
X174846800Y-86966000D01*
X174846800Y-87196000D02*
X172126800Y-87196000D01*
X172126800Y-82476000D02*
X174846800Y-82476000D01*
X179478500Y-72017658D02*
X179478500Y-71543142D01*
X178433500Y-72017658D02*
X178433500Y-71543142D01*
X158766580Y-66800000D02*
X158485420Y-66800000D01*
X158766580Y-67820000D02*
X158485420Y-67820000D01*
X121056400Y-66431600D02*
X120406400Y-66431600D01*
X121056400Y-63311600D02*
X120406400Y-63311600D01*
X121056400Y-66431600D02*
X122731400Y-66431600D01*
X121056400Y-63311600D02*
X121706400Y-63311600D01*
X178496700Y-93201258D02*
X178496700Y-92726742D01*
X179541700Y-93201258D02*
X179541700Y-92726742D01*
X180187600Y-87644800D02*
X178512600Y-87644800D01*
X180187600Y-90764800D02*
X180837600Y-90764800D01*
X180187600Y-90764800D02*
X179537600Y-90764800D01*
X180187600Y-87644800D02*
X180837600Y-87644800D01*
X160208400Y-64414400D02*
X160208400Y-62614400D01*
X157088400Y-64414400D02*
X157088400Y-65214400D01*
X160208400Y-64414400D02*
X160208400Y-65214400D01*
X157088400Y-64414400D02*
X157088400Y-63614400D01*
X137379942Y-106411500D02*
X137854458Y-106411500D01*
X137379942Y-107456500D02*
X137854458Y-107456500D01*
X124851958Y-90397900D02*
X124377442Y-90397900D01*
X124851958Y-89352900D02*
X124377442Y-89352900D01*
X180734000Y-69682800D02*
X180084000Y-69682800D01*
X180734000Y-66562800D02*
X181384000Y-66562800D01*
X180734000Y-66562800D02*
X179059000Y-66562800D01*
X180734000Y-69682800D02*
X181384000Y-69682800D01*
X145674000Y-94594641D02*
X145674000Y-94287359D01*
X144914000Y-94594641D02*
X144914000Y-94287359D01*
X134319742Y-105932500D02*
X134794258Y-105932500D01*
X134319742Y-104887500D02*
X134794258Y-104887500D01*
X144426000Y-54694164D02*
X144426000Y-54909836D01*
X145146000Y-54694164D02*
X145146000Y-54909836D01*
X181762400Y-73137200D02*
X181112400Y-73137200D01*
X181762400Y-70017200D02*
X182412400Y-70017200D01*
X181762400Y-73137200D02*
X182412400Y-73137200D01*
X181762400Y-70017200D02*
X180087400Y-70017200D01*
X172126800Y-101318400D02*
X172126800Y-100008400D01*
X174846800Y-96598400D02*
X174846800Y-96828400D01*
X175986800Y-101088400D02*
X174846800Y-101088400D01*
X174846800Y-101318400D02*
X174846800Y-101088400D01*
X172126800Y-97908400D02*
X172126800Y-96598400D01*
X172126800Y-96598400D02*
X174846800Y-96598400D01*
X174846800Y-101318400D02*
X172126800Y-101318400D01*
X173774980Y-88186800D02*
X173493820Y-88186800D01*
X173774980Y-89206800D02*
X173493820Y-89206800D01*
X134848500Y-60056742D02*
X134848500Y-60531258D01*
X133803500Y-60056742D02*
X133803500Y-60531258D01*
X144934000Y-68918164D02*
X144934000Y-69133836D01*
X145654000Y-68918164D02*
X145654000Y-69133836D01*
X161542000Y-105194980D02*
X161542000Y-104913820D01*
X162562000Y-105194980D02*
X162562000Y-104913820D01*
X166976000Y-62229000D02*
X161576000Y-62229000D01*
X166976000Y-58929000D02*
X161576000Y-58929000D01*
X166976000Y-62229000D02*
X166976000Y-58929000D01*
X179453000Y-64783580D02*
X179453000Y-64502420D01*
X178433000Y-64783580D02*
X178433000Y-64502420D01*
X150606000Y-82445580D02*
X150606000Y-82164420D01*
X149586000Y-82445580D02*
X149586000Y-82164420D01*
X181813200Y-98211200D02*
X182463200Y-98211200D01*
X181813200Y-101331200D02*
X181163200Y-101331200D01*
X181813200Y-98211200D02*
X180138200Y-98211200D01*
X181813200Y-101331200D02*
X182463200Y-101331200D01*
X138922000Y-58936000D02*
X141472000Y-58936000D01*
X138922000Y-58936000D02*
X138922000Y-60636000D01*
X138922000Y-60636000D02*
X141472000Y-60636000D01*
X181864000Y-91200800D02*
X182514000Y-91200800D01*
X181864000Y-94320800D02*
X182514000Y-94320800D01*
X181864000Y-94320800D02*
X181214000Y-94320800D01*
X181864000Y-91200800D02*
X180189000Y-91200800D01*
X138278841Y-109041200D02*
X137971559Y-109041200D01*
X138278841Y-108281200D02*
X137971559Y-108281200D01*
X132442000Y-60186164D02*
X132442000Y-60401836D01*
X133162000Y-60186164D02*
X133162000Y-60401836D01*
X151372800Y-92456000D02*
G75*
G03*
X151372800Y-92456000I-700000J0D01*
G01*
X159933000Y-82940000D02*
X159933000Y-81020000D01*
X159933000Y-81020000D02*
X157248000Y-81020000D01*
X157248000Y-82940000D02*
X159933000Y-82940000D01*
X145032000Y-46880000D02*
X145032000Y-45175000D01*
X145032000Y-45175000D02*
X154192000Y-45175000D01*
X154192000Y-45175000D02*
X154192000Y-46880000D01*
X145032000Y-48890000D02*
X145032000Y-50810000D01*
X154192000Y-50810000D02*
X154192000Y-48890000D01*
X124849658Y-62854100D02*
X124375142Y-62854100D01*
X124849658Y-61809100D02*
X124375142Y-61809100D01*
X107291000Y-104776000D02*
X107691000Y-104776000D01*
X107291000Y-107056000D02*
X107291000Y-104776000D01*
X107691000Y-104776000D02*
X107691000Y-102076000D01*
X111001000Y-107346000D02*
X115001000Y-107346000D01*
X107691000Y-102076000D02*
X107291000Y-102076000D01*
X118261000Y-107056000D02*
X117261000Y-107056000D01*
X107291000Y-60076000D02*
X118261000Y-60076000D01*
X117261000Y-107056000D02*
X107291000Y-107056000D01*
X177587000Y-66011000D02*
X176447000Y-66011000D01*
X176447000Y-66241000D02*
X176447000Y-66011000D01*
X173727000Y-66241000D02*
X173727000Y-64931000D01*
X173727000Y-61521000D02*
X176447000Y-61521000D01*
X176447000Y-66241000D02*
X173727000Y-66241000D01*
X173727000Y-62831000D02*
X173727000Y-61521000D01*
X176447000Y-61521000D02*
X176447000Y-61751000D01*
X124849658Y-91273100D02*
X124375142Y-91273100D01*
X124849658Y-92318100D02*
X124375142Y-92318100D01*
X138824580Y-65889600D02*
X138543420Y-65889600D01*
X138824580Y-64869600D02*
X138543420Y-64869600D01*
X176832800Y-71920980D02*
X176832800Y-71639820D01*
X177852800Y-71920980D02*
X177852800Y-71639820D01*
X158264742Y-84534500D02*
X158739258Y-84534500D01*
X158264742Y-83489500D02*
X158739258Y-83489500D01*
X141376400Y-109256000D02*
X140576400Y-109256000D01*
X141376400Y-109256000D02*
X142176400Y-109256000D01*
X141376400Y-106136000D02*
X142176400Y-106136000D01*
X141376400Y-106136000D02*
X139576400Y-106136000D01*
X177916100Y-96757258D02*
X177916100Y-96282742D01*
X176871100Y-96757258D02*
X176871100Y-96282742D01*
X174846800Y-108430400D02*
X174846800Y-108200400D01*
X175986800Y-108200400D02*
X174846800Y-108200400D01*
X172126800Y-103710400D02*
X174846800Y-103710400D01*
X172126800Y-108430400D02*
X172126800Y-107120400D01*
X174846800Y-108430400D02*
X172126800Y-108430400D01*
X172126800Y-105020400D02*
X172126800Y-103710400D01*
X174846800Y-103710400D02*
X174846800Y-103940400D01*
X164149300Y-105291658D02*
X164149300Y-104817142D01*
X163104300Y-105291658D02*
X163104300Y-104817142D01*
X166471600Y-103291200D02*
X164796600Y-103291200D01*
X166471600Y-106411200D02*
X165821600Y-106411200D01*
X166471600Y-103291200D02*
X167121600Y-103291200D01*
X166471600Y-106411200D02*
X167121600Y-106411200D01*
X124851958Y-85292500D02*
X124377442Y-85292500D01*
X124851958Y-84247500D02*
X124377442Y-84247500D01*
X166739836Y-62479600D02*
X166524164Y-62479600D01*
X166739836Y-63199600D02*
X166524164Y-63199600D01*
X124849658Y-65111100D02*
X124375142Y-65111100D01*
X124849658Y-66156100D02*
X124375142Y-66156100D01*
X179592500Y-86089258D02*
X179592500Y-85614742D01*
X178547500Y-86089258D02*
X178547500Y-85614742D01*
X163971200Y-85648800D02*
G75*
G03*
X163971200Y-85648800I-700000J0D01*
G01*
X158572780Y-100226400D02*
X158291620Y-100226400D01*
X158572780Y-101246400D02*
X158291620Y-101246400D01*
X154058000Y-73190359D02*
X154058000Y-73497641D01*
X154818000Y-73190359D02*
X154818000Y-73497641D01*
X142652636Y-104999200D02*
X142436964Y-104999200D01*
X142652636Y-105719200D02*
X142436964Y-105719200D01*
X124849658Y-78989700D02*
X124375142Y-78989700D01*
X124849658Y-80034700D02*
X124375142Y-80034700D01*
X195781800Y-72876800D02*
X195781800Y-106956800D01*
X195381800Y-72876800D02*
X195781800Y-72876800D01*
X195781800Y-70176800D02*
X195381800Y-70176800D01*
X195781800Y-106956800D02*
X184811800Y-106956800D01*
X195781800Y-67896800D02*
X195781800Y-70176800D01*
X184811800Y-106956800D02*
X184811800Y-67896800D01*
X185811800Y-67896800D02*
X195781800Y-67896800D01*
X185811800Y-67896800D02*
X185811800Y-106956800D01*
X192071800Y-67606800D02*
X188071800Y-67606800D01*
X195381800Y-70176800D02*
X195381800Y-72876800D01*
X184811800Y-67896800D02*
X185811800Y-67896800D01*
X180238400Y-73573200D02*
X180888400Y-73573200D01*
X180238400Y-73573200D02*
X178563400Y-73573200D01*
X180238400Y-76693200D02*
X180888400Y-76693200D01*
X180238400Y-76693200D02*
X179588400Y-76693200D01*
X179465500Y-61832258D02*
X179465500Y-61357742D01*
X178420500Y-61832258D02*
X178420500Y-61357742D01*
X140933700Y-104174058D02*
X140933700Y-103699542D01*
X139888700Y-104174058D02*
X139888700Y-103699542D01*
X143137658Y-104408500D02*
X142663142Y-104408500D01*
X143137658Y-103363500D02*
X142663142Y-103363500D01*
X121056400Y-70245800D02*
X121706400Y-70245800D01*
X121056400Y-70245800D02*
X120406400Y-70245800D01*
X121056400Y-73365800D02*
X122731400Y-73365800D01*
X121056400Y-73365800D02*
X120406400Y-73365800D01*
X124851958Y-81965100D02*
X124377442Y-81965100D01*
X124851958Y-80920100D02*
X124377442Y-80920100D01*
X181813200Y-77027600D02*
X182463200Y-77027600D01*
X181813200Y-80147600D02*
X181163200Y-80147600D01*
X181813200Y-77027600D02*
X180138200Y-77027600D01*
X181813200Y-80147600D02*
X182463200Y-80147600D01*
X139429258Y-73039500D02*
X138954742Y-73039500D01*
X139429258Y-71994500D02*
X138954742Y-71994500D01*
X154127200Y-97443600D02*
X154127200Y-94783600D01*
X154127200Y-97443600D02*
X159267200Y-97443600D01*
X154127200Y-94783600D02*
X159267200Y-94783600D01*
X159267200Y-97443600D02*
X159267200Y-94783600D01*
X151527200Y-94783600D02*
X152857200Y-94783600D01*
X151527200Y-96113600D02*
X151527200Y-94783600D01*
X136511641Y-61184000D02*
X136204359Y-61184000D01*
X136511641Y-61944000D02*
X136204359Y-61944000D01*
X173774980Y-96217200D02*
X173493820Y-96217200D01*
X173774980Y-95197200D02*
X173493820Y-95197200D01*
X165150800Y-102956800D02*
X165800800Y-102956800D01*
X165150800Y-99836800D02*
X165800800Y-99836800D01*
X165150800Y-102956800D02*
X164500800Y-102956800D01*
X165150800Y-99836800D02*
X163475800Y-99836800D01*
X124851958Y-87828900D02*
X124377442Y-87828900D01*
X124851958Y-88873900D02*
X124377442Y-88873900D01*
X173774980Y-73962800D02*
X173493820Y-73962800D01*
X173774980Y-74982800D02*
X173493820Y-74982800D01*
X139181258Y-61041500D02*
X138706742Y-61041500D01*
X139181258Y-62086500D02*
X138706742Y-62086500D01*
X135904500Y-67072742D02*
X135904500Y-67547258D01*
X134859500Y-67072742D02*
X134859500Y-67547258D01*
X160746800Y-106168400D02*
X159606800Y-106168400D01*
X159606800Y-101678400D02*
X159606800Y-101908400D01*
X156886800Y-101678400D02*
X159606800Y-101678400D01*
X159606800Y-106398400D02*
X156886800Y-106398400D01*
X159606800Y-106398400D02*
X159606800Y-106168400D01*
X156886800Y-106398400D02*
X156886800Y-105088400D01*
X156886800Y-102988400D02*
X156886800Y-101678400D01*
X177074300Y-103818458D02*
X177074300Y-103343942D01*
X178119300Y-103818458D02*
X178119300Y-103343942D01*
X124849658Y-73874100D02*
X124375142Y-73874100D01*
X124849658Y-74919100D02*
X124375142Y-74919100D01*
X134364759Y-102134400D02*
X134672041Y-102134400D01*
X134364759Y-102894400D02*
X134672041Y-102894400D01*
X155782000Y-90796000D02*
X156272000Y-91286000D01*
X161222000Y-87896000D02*
X161222000Y-90796000D01*
X161222000Y-87896000D02*
X160732000Y-87406000D01*
X155782000Y-87896000D02*
X156272000Y-87406000D01*
X157462000Y-92066000D02*
X159542000Y-92066000D01*
X161222000Y-90796000D02*
X160732000Y-91286000D01*
X155782000Y-87896000D02*
X155782000Y-90796000D01*
X157462000Y-86626000D02*
X159542000Y-86626000D01*
X142588000Y-91686000D02*
X141938000Y-91686000D01*
X149158000Y-91686000D02*
X149158000Y-91036000D01*
X148508000Y-91686000D02*
X149158000Y-91686000D01*
X149158000Y-84466000D02*
X149158000Y-85116000D01*
X142588000Y-84466000D02*
X141938000Y-84466000D01*
X141938000Y-91686000D02*
X141938000Y-91036000D01*
X148508000Y-84466000D02*
X149158000Y-84466000D01*
X168942936Y-60981000D02*
X170147064Y-60981000D01*
X168942936Y-59161000D02*
X170147064Y-59161000D01*
X137428500Y-73389258D02*
X137428500Y-72914742D01*
X136383500Y-73389258D02*
X136383500Y-72914742D01*
X158626580Y-61851000D02*
X158345420Y-61851000D01*
X158626580Y-60831000D02*
X158345420Y-60831000D01*
X163082500Y-64735942D02*
X163082500Y-65210458D01*
X162037500Y-64735942D02*
X162037500Y-65210458D01*
X147174000Y-81033359D02*
X147174000Y-81340641D01*
X146414000Y-81033359D02*
X146414000Y-81340641D01*
X140970000Y-66324800D02*
X137520000Y-66324800D01*
X140970000Y-71444800D02*
X139020000Y-71444800D01*
X140970000Y-66324800D02*
X142920000Y-66324800D01*
X140970000Y-71444800D02*
X142920000Y-71444800D01*
X179541700Y-100211658D02*
X179541700Y-99737142D01*
X178496700Y-100211658D02*
X178496700Y-99737142D01*
X134319742Y-103312700D02*
X134794258Y-103312700D01*
X134319742Y-104357700D02*
X134794258Y-104357700D01*
X175298980Y-61114400D02*
X175017820Y-61114400D01*
X175298980Y-60094400D02*
X175017820Y-60094400D01*
X147686000Y-94552164D02*
X147686000Y-94767836D01*
X146966000Y-94552164D02*
X146966000Y-94767836D01*
X177954400Y-107226980D02*
X177954400Y-106945820D01*
X176934400Y-107226980D02*
X176934400Y-106945820D01*
X180187600Y-83652800D02*
X179537600Y-83652800D01*
X180187600Y-80532800D02*
X178512600Y-80532800D01*
X180187600Y-80532800D02*
X180837600Y-80532800D01*
X180187600Y-83652800D02*
X180837600Y-83652800D01*
X124849658Y-73090300D02*
X124375142Y-73090300D01*
X124849658Y-72045300D02*
X124375142Y-72045300D01*
X180187600Y-97876800D02*
X180837600Y-97876800D01*
X180187600Y-94756800D02*
X178512600Y-94756800D01*
X180187600Y-97876800D02*
X179537600Y-97876800D01*
X180187600Y-94756800D02*
X180837600Y-94756800D01*
X121056400Y-73725600D02*
X120406400Y-73725600D01*
X121056400Y-73725600D02*
X121706400Y-73725600D01*
X121056400Y-76845600D02*
X120406400Y-76845600D01*
X121056400Y-76845600D02*
X122731400Y-76845600D01*
X144645420Y-76394000D02*
X144926580Y-76394000D01*
X144645420Y-75374000D02*
X144926580Y-75374000D01*
X121056400Y-80310200D02*
X122731400Y-80310200D01*
X121056400Y-77190200D02*
X120406400Y-77190200D01*
X121056400Y-77190200D02*
X121706400Y-77190200D01*
X121056400Y-80310200D02*
X120406400Y-80310200D01*
X124849658Y-70394300D02*
X124375142Y-70394300D01*
X124849658Y-71439300D02*
X124375142Y-71439300D01*
X155910000Y-73576000D02*
X156400000Y-73086000D01*
X155910000Y-76476000D02*
X156400000Y-76966000D01*
X157590000Y-77746000D02*
X159670000Y-77746000D01*
X161350000Y-73576000D02*
X160860000Y-73086000D01*
X161350000Y-73576000D02*
X161350000Y-76476000D01*
X161350000Y-76476000D02*
X160860000Y-76966000D01*
X157590000Y-72306000D02*
X159670000Y-72306000D01*
X155910000Y-73576000D02*
X155910000Y-76476000D01*
X124851958Y-82571100D02*
X124377442Y-82571100D01*
X124851958Y-83616100D02*
X124377442Y-83616100D01*
X121058700Y-90673400D02*
X122733700Y-90673400D01*
X121058700Y-87553400D02*
X121708700Y-87553400D01*
X121058700Y-87553400D02*
X120408700Y-87553400D01*
X121058700Y-90673400D02*
X120408700Y-90673400D01*
X121058700Y-84099000D02*
X121708700Y-84099000D01*
X121058700Y-87219000D02*
X122733700Y-87219000D01*
X121058700Y-87219000D02*
X120408700Y-87219000D01*
X121058700Y-84099000D02*
X120408700Y-84099000D01*
X139051836Y-74720000D02*
X138836164Y-74720000D01*
X139051836Y-74000000D02*
X138836164Y-74000000D01*
X178496700Y-79028058D02*
X178496700Y-78553542D01*
X179541700Y-79028058D02*
X179541700Y-78553542D01*
X137367742Y-104887500D02*
X137842258Y-104887500D01*
X137367742Y-105932500D02*
X137842258Y-105932500D01*
X181762400Y-105323200D02*
X180087400Y-105323200D01*
X181762400Y-105323200D02*
X182412400Y-105323200D01*
X181762400Y-108443200D02*
X182412400Y-108443200D01*
X181762400Y-108443200D02*
X181112400Y-108443200D01*
X181864000Y-87158000D02*
X182514000Y-87158000D01*
X181864000Y-84038000D02*
X180189000Y-84038000D01*
X181864000Y-84038000D02*
X182514000Y-84038000D01*
X181864000Y-87158000D02*
X181214000Y-87158000D01*
X121056400Y-94117600D02*
X120406400Y-94117600D01*
X121056400Y-90997600D02*
X120406400Y-90997600D01*
X121056400Y-94117600D02*
X122731400Y-94117600D01*
X121056400Y-90997600D02*
X121706400Y-90997600D01*
X124849658Y-76570100D02*
X124375142Y-76570100D01*
X124849658Y-75525100D02*
X124375142Y-75525100D01*
X145398000Y-81033359D02*
X145398000Y-81340641D01*
X146158000Y-81033359D02*
X146158000Y-81340641D01*
X153182000Y-56960000D02*
X153182000Y-54410000D01*
X151482000Y-56960000D02*
X153182000Y-56960000D01*
X151482000Y-56960000D02*
X151482000Y-54410000D01*
X124849658Y-93842100D02*
X124375142Y-93842100D01*
X124849658Y-92797100D02*
X124375142Y-92797100D01*
X121056400Y-69911400D02*
X120406400Y-69911400D01*
X121056400Y-66791400D02*
X121706400Y-66791400D01*
X121056400Y-69911400D02*
X122731400Y-69911400D01*
X121056400Y-66791400D02*
X120406400Y-66791400D01*
X107906000Y-99064000D02*
X107906000Y-94234000D01*
X108436000Y-84074000D02*
X109436000Y-84074000D01*
X104016000Y-90894000D02*
X103416000Y-90894000D01*
X104016000Y-100114000D02*
X104016000Y-98514000D01*
X103416000Y-89954000D02*
X104016000Y-89954000D01*
X104016000Y-92494000D02*
X104016000Y-90894000D01*
X103416000Y-77614000D02*
X103416000Y-100694000D01*
X108436000Y-78994000D02*
X108436000Y-84074000D01*
X103416000Y-82334000D02*
X104016000Y-82334000D01*
X104016000Y-89954000D02*
X104016000Y-88354000D01*
X107906000Y-84074000D02*
X108436000Y-84074000D01*
X104016000Y-79794000D02*
X104016000Y-78194000D01*
X109436000Y-79244000D02*
X108436000Y-79244000D01*
X104016000Y-88354000D02*
X103416000Y-88354000D01*
X109436000Y-77614000D02*
X103416000Y-77614000D01*
X104016000Y-82334000D02*
X104016000Y-80734000D01*
X103416000Y-100694000D02*
X109436000Y-100694000D01*
X104016000Y-84874000D02*
X104016000Y-83274000D01*
X107906000Y-94234000D02*
X108436000Y-94234000D01*
X104016000Y-80734000D02*
X103416000Y-80734000D01*
X103416000Y-97574000D02*
X104016000Y-97574000D01*
X108436000Y-78994000D02*
X107906000Y-79244000D01*
X103416000Y-79794000D02*
X104016000Y-79794000D01*
X103416000Y-92494000D02*
X104016000Y-92494000D01*
X104016000Y-98514000D02*
X103416000Y-98514000D01*
X104016000Y-85814000D02*
X103416000Y-85814000D01*
X108436000Y-99314000D02*
X108436000Y-94234000D01*
X109436000Y-100694000D02*
X109436000Y-77614000D01*
X104016000Y-93434000D02*
X103416000Y-93434000D01*
X109436000Y-99064000D02*
X108436000Y-99064000D01*
X108436000Y-94234000D02*
X109436000Y-94234000D01*
X109436000Y-78994000D02*
X108436000Y-78994000D01*
X103416000Y-100114000D02*
X104016000Y-100114000D01*
X104446000Y-100984000D02*
X108446000Y-100984000D01*
X104016000Y-87414000D02*
X104016000Y-85814000D01*
X103416000Y-87414000D02*
X104016000Y-87414000D01*
X103416000Y-84874000D02*
X104016000Y-84874000D01*
X107906000Y-79244000D02*
X107906000Y-84074000D01*
X104016000Y-78194000D02*
X103416000Y-78194000D01*
X109436000Y-99314000D02*
X108436000Y-99314000D01*
X108436000Y-99314000D02*
X107906000Y-99064000D01*
X104016000Y-97574000D02*
X104016000Y-95974000D01*
X103416000Y-95034000D02*
X104016000Y-95034000D01*
X104016000Y-95034000D02*
X104016000Y-93434000D01*
X104016000Y-83274000D02*
X103416000Y-83274000D01*
X104016000Y-95974000D02*
X103416000Y-95974000D01*
X147464000Y-81929836D02*
X147464000Y-81714164D01*
X148184000Y-81929836D02*
X148184000Y-81714164D01*
X121058700Y-83764600D02*
X122733700Y-83764600D01*
X121058700Y-80644600D02*
X120408700Y-80644600D01*
X121058700Y-80644600D02*
X121708700Y-80644600D01*
X121058700Y-83764600D02*
X120408700Y-83764600D01*
X179541700Y-107323658D02*
X179541700Y-106849142D01*
X178496700Y-107323658D02*
X178496700Y-106849142D01*
X193529000Y-65132000D02*
X193529000Y-62782000D01*
X186075250Y-59480750D02*
X186075250Y-60268250D01*
X186709000Y-59376437D02*
X186709000Y-60662000D01*
X193529000Y-58312000D02*
X193529000Y-60662000D01*
X187773437Y-65132000D02*
X193529000Y-65132000D01*
X186709000Y-59376437D02*
X187773437Y-58312000D01*
X187773437Y-58312000D02*
X193529000Y-58312000D01*
X185681500Y-59874500D02*
X186469000Y-59874500D01*
X186709000Y-64067563D02*
X187773437Y-65132000D01*
X186709000Y-64067563D02*
X186709000Y-62782000D01*
X176934400Y-100114980D02*
X176934400Y-99833820D01*
X177954400Y-100114980D02*
X177954400Y-99833820D01*
X175986800Y-79904800D02*
X174846800Y-79904800D01*
X174846800Y-75414800D02*
X174846800Y-75644800D01*
X174846800Y-80134800D02*
X174846800Y-79904800D01*
X174846800Y-80134800D02*
X172126800Y-80134800D01*
X172126800Y-75414800D02*
X174846800Y-75414800D01*
X172126800Y-80134800D02*
X172126800Y-78824800D01*
X172126800Y-76724800D02*
X172126800Y-75414800D01*
X145122000Y-80309836D02*
X145122000Y-80094164D01*
X144402000Y-80309836D02*
X144402000Y-80094164D01*
X124849658Y-77338700D02*
X124375142Y-77338700D01*
X124849658Y-78383700D02*
X124375142Y-78383700D01*
X181610000Y-59654000D02*
X179935000Y-59654000D01*
X181610000Y-59654000D02*
X182260000Y-59654000D01*
X181610000Y-62774000D02*
X180960000Y-62774000D01*
X181610000Y-62774000D02*
X182260000Y-62774000D01*
X121056400Y-59831800D02*
X120406400Y-59831800D01*
X121056400Y-62951800D02*
X122731400Y-62951800D01*
X121056400Y-59831800D02*
X121706400Y-59831800D01*
X121056400Y-62951800D02*
X120406400Y-62951800D01*
X177417500Y-68690258D02*
X177417500Y-68215742D01*
X178462500Y-68690258D02*
X178462500Y-68215742D01*
X152142500Y-82092742D02*
X152142500Y-82567258D01*
X151097500Y-82092742D02*
X151097500Y-82567258D01*
X150496164Y-84010000D02*
X150711836Y-84010000D01*
X150496164Y-84730000D02*
X150711836Y-84730000D01*
X176921900Y-82533258D02*
X176921900Y-82058742D01*
X177966900Y-82533258D02*
X177966900Y-82058742D01*
X135904500Y-70273142D02*
X135904500Y-70747658D01*
X134859500Y-70273142D02*
X134859500Y-70747658D01*
X177954400Y-93104580D02*
X177954400Y-92823420D01*
X176934400Y-93104580D02*
X176934400Y-92823420D01*
X124849658Y-66939900D02*
X124375142Y-66939900D01*
X124849658Y-67984900D02*
X124375142Y-67984900D01*
X154052000Y-86705641D02*
X154052000Y-86398359D01*
X154812000Y-86705641D02*
X154812000Y-86398359D01*
X177966900Y-75624458D02*
X177966900Y-75149942D01*
X176921900Y-75624458D02*
X176921900Y-75149942D01*
X128768800Y-94478800D02*
X128768800Y-97138800D01*
X133908800Y-94478800D02*
X128768800Y-94478800D01*
X133908800Y-97138800D02*
X128768800Y-97138800D01*
X136508800Y-95808800D02*
X136508800Y-97138800D01*
X133908800Y-94478800D02*
X133908800Y-97138800D01*
X136508800Y-97138800D02*
X135178800Y-97138800D01*
X124849658Y-60285100D02*
X124375142Y-60285100D01*
X124849658Y-61330100D02*
X124375142Y-61330100D01*
X173774980Y-81074800D02*
X173493820Y-81074800D01*
X173774980Y-82094800D02*
X173493820Y-82094800D01*
X145950000Y-95080164D02*
X145950000Y-95295836D01*
X146670000Y-95080164D02*
X146670000Y-95295836D01*
X179944500Y-64880258D02*
X179944500Y-64405742D01*
X180989500Y-64880258D02*
X180989500Y-64405742D01*
X127450200Y-105442000D02*
X127450200Y-104235333D01*
X122250200Y-105442000D02*
X123520200Y-105442000D01*
X122250200Y-104235333D02*
X123520200Y-104235333D01*
X123450200Y-105442000D02*
X123450200Y-104235333D01*
X125510200Y-105442000D02*
X125510200Y-104235333D01*
X130830200Y-105442000D02*
X130830200Y-104235333D01*
X130950200Y-105442000D02*
X130950200Y-104235333D01*
X127330200Y-104235333D02*
X128600200Y-104235333D01*
X122610200Y-105442000D02*
X122610200Y-104235333D01*
X120535200Y-107282000D02*
X120535200Y-105899000D01*
X131140200Y-105442000D02*
X131140200Y-101822000D01*
X125630200Y-105442000D02*
X125630200Y-104235333D01*
X123685200Y-107042000D02*
X124625200Y-107042000D01*
X122490200Y-105442000D02*
X122490200Y-104235333D01*
X125390200Y-105442000D02*
X125390200Y-104235333D01*
X122370200Y-105442000D02*
X122370200Y-104235333D01*
X128765200Y-100222000D02*
X129705200Y-100222000D01*
X130470200Y-105442000D02*
X130470200Y-104235333D01*
X127570200Y-105442000D02*
X127570200Y-104235333D01*
X120775200Y-107042000D02*
X122085200Y-107042000D01*
X123520200Y-105442000D02*
X123520200Y-101822000D01*
X122850200Y-105442000D02*
X122850200Y-104235333D01*
X128410200Y-105442000D02*
X128410200Y-104235333D01*
X129990200Y-105442000D02*
X129990200Y-104235333D01*
X128600200Y-101822000D02*
X127330200Y-101822000D01*
X132615200Y-107042000D02*
X132615200Y-100222000D01*
X126225200Y-100222000D02*
X127165200Y-100222000D01*
X128050200Y-105442000D02*
X128050200Y-104235333D01*
X127330200Y-101822000D02*
X127330200Y-105442000D01*
X126060200Y-101822000D02*
X124790200Y-101822000D01*
X131305200Y-100222000D02*
X132615200Y-100222000D01*
X130350200Y-105442000D02*
X130350200Y-104235333D01*
X125030200Y-105442000D02*
X125030200Y-104235333D01*
X122250200Y-101822000D02*
X122250200Y-105442000D01*
X122730200Y-105442000D02*
X122730200Y-104235333D01*
X123090200Y-105442000D02*
X123090200Y-104235333D01*
X127690200Y-105442000D02*
X127690200Y-104235333D01*
X128530200Y-105442000D02*
X128530200Y-104235333D01*
X131305200Y-107042000D02*
X132615200Y-107042000D01*
X124790200Y-105442000D02*
X126060200Y-105442000D01*
X123210200Y-105442000D02*
X123210200Y-104235333D01*
X124790200Y-104235333D02*
X126060200Y-104235333D01*
X124910200Y-105442000D02*
X124910200Y-104235333D01*
X125270200Y-105442000D02*
X125270200Y-104235333D01*
X127930200Y-105442000D02*
X127930200Y-104235333D01*
X131070200Y-105442000D02*
X131070200Y-104235333D01*
X130710200Y-105442000D02*
X130710200Y-104235333D01*
X128170200Y-105442000D02*
X128170200Y-104235333D01*
X131140200Y-101822000D02*
X129870200Y-101822000D01*
X127810200Y-105442000D02*
X127810200Y-104235333D01*
X120775200Y-107042000D02*
X120775200Y-100222000D01*
X126060200Y-105442000D02*
X126060200Y-101822000D01*
X123520200Y-101822000D02*
X122250200Y-101822000D01*
X129870200Y-105442000D02*
X131140200Y-105442000D01*
X130110200Y-105442000D02*
X130110200Y-104235333D01*
X122970200Y-105442000D02*
X122970200Y-104235333D01*
X128290200Y-105442000D02*
X128290200Y-104235333D01*
X129870200Y-101822000D02*
X129870200Y-105442000D01*
X128765200Y-107042000D02*
X129705200Y-107042000D01*
X125990200Y-105442000D02*
X125990200Y-104235333D01*
X125750200Y-105442000D02*
X125750200Y-104235333D01*
X125150200Y-105442000D02*
X125150200Y-104235333D01*
X130590200Y-105442000D02*
X130590200Y-104235333D01*
X124790200Y-101822000D02*
X124790200Y-105442000D01*
X123685200Y-100222000D02*
X124625200Y-100222000D01*
X120775200Y-100222000D02*
X122085200Y-100222000D01*
X120535200Y-107282000D02*
X121918200Y-107282000D01*
X129870200Y-104235333D02*
X131140200Y-104235333D01*
X130230200Y-105442000D02*
X130230200Y-104235333D01*
X123330200Y-105442000D02*
X123330200Y-104235333D01*
X125870200Y-105442000D02*
X125870200Y-104235333D01*
X128600200Y-105442000D02*
X128600200Y-101822000D01*
X126225200Y-107042000D02*
X127165200Y-107042000D01*
X127330200Y-105442000D02*
X128600200Y-105442000D01*
X170395000Y-61619000D02*
X170395000Y-64169000D01*
X168695000Y-61619000D02*
X168695000Y-64169000D01*
X170395000Y-61619000D02*
X168695000Y-61619000D01*
X140338000Y-95775836D02*
X140338000Y-95560164D01*
X141058000Y-95775836D02*
X141058000Y-95560164D01*
X124851958Y-87070500D02*
X124377442Y-87070500D01*
X124851958Y-86025500D02*
X124377442Y-86025500D01*
X172089000Y-72972000D02*
X172089000Y-71662000D01*
X172089000Y-69562000D02*
X172089000Y-68252000D01*
X174809000Y-68252000D02*
X174809000Y-68482000D01*
X174809000Y-72972000D02*
X172089000Y-72972000D01*
X175949000Y-72742000D02*
X174809000Y-72742000D01*
X172089000Y-68252000D02*
X174809000Y-68252000D01*
X174809000Y-72972000D02*
X174809000Y-72742000D01*
X124849658Y-68590900D02*
X124375142Y-68590900D01*
X124849658Y-69635900D02*
X124375142Y-69635900D01*
X141591641Y-61184000D02*
X141284359Y-61184000D01*
X141591641Y-61944000D02*
X141284359Y-61944000D01*
X147086500Y-55580742D02*
X147086500Y-56055258D01*
X146041500Y-55580742D02*
X146041500Y-56055258D01*
X163971200Y-83616800D02*
G75*
G03*
X163971200Y-83616800I-700000J0D01*
G01*
X172126800Y-90898000D02*
X172126800Y-89588000D01*
X172126800Y-89588000D02*
X174846800Y-89588000D01*
X174846800Y-89588000D02*
X174846800Y-89818000D01*
X175986800Y-94078000D02*
X174846800Y-94078000D01*
X174846800Y-94308000D02*
X174846800Y-94078000D01*
X174846800Y-94308000D02*
X172126800Y-94308000D01*
X172126800Y-94308000D02*
X172126800Y-92998000D01*
X176871100Y-89696058D02*
X176871100Y-89221542D01*
X177916100Y-89696058D02*
X177916100Y-89221542D01*
X183184800Y-66203000D02*
X183834800Y-66203000D01*
X183184800Y-63083000D02*
X181509800Y-63083000D01*
X183184800Y-63083000D02*
X183834800Y-63083000D01*
X183184800Y-66203000D02*
X182534800Y-66203000D01*
X177954400Y-78931380D02*
X177954400Y-78650220D01*
X176934400Y-78931380D02*
X176934400Y-78650220D01*
X156324000Y-83504000D02*
G75*
G03*
X156324000Y-83504000I-1251000J0D01*
G01*
X141398000Y-98077000D02*
X144698000Y-98077000D01*
X144698000Y-98077000D02*
X144698000Y-94077000D01*
X148466000Y-81929836D02*
X148466000Y-81714164D01*
X149186000Y-81929836D02*
X149186000Y-81714164D01*
X138805836Y-89113000D02*
X138590164Y-89113000D01*
X138805836Y-89833000D02*
X138590164Y-89833000D01*
X137904000Y-80483000D02*
X135179000Y-80483000D01*
X135179000Y-75293000D02*
X133504000Y-75293000D01*
X137904000Y-80483000D02*
X140629000Y-80483000D01*
X140629000Y-75033000D02*
X140629000Y-75293000D01*
X135179000Y-80483000D02*
X135179000Y-80223000D01*
X137904000Y-75033000D02*
X135179000Y-75033000D01*
X135179000Y-75033000D02*
X135179000Y-75293000D01*
X140629000Y-80483000D02*
X140629000Y-80223000D01*
X137904000Y-75033000D02*
X140629000Y-75033000D01*
X141082000Y-83865836D02*
X141082000Y-83650164D01*
X140362000Y-83865836D02*
X140362000Y-83650164D01*
X176985200Y-85992580D02*
X176985200Y-85711420D01*
X178005200Y-85992580D02*
X178005200Y-85711420D01*
X134331942Y-107456500D02*
X134806458Y-107456500D01*
X134331942Y-106411500D02*
X134806458Y-106411500D01*
X173762580Y-67870800D02*
X173481420Y-67870800D01*
X173762580Y-66850800D02*
X173481420Y-66850800D01*
%LPC*%
D15*
X151418000Y-89434000D03*
X152378000Y-89434000D03*
D16*
X142500000Y-46674000D03*
D17*
X145270000Y-97034000D03*
X145270000Y-96074000D03*
D18*
X155933600Y-62376800D03*
X155933600Y-63336800D03*
D19*
X178292000Y-54280000D03*
X178292000Y-49280000D03*
X174792000Y-49280000D03*
X174792000Y-54280000D03*
X171292000Y-49280000D03*
X171292000Y-54280000D03*
X167792000Y-54280000D03*
X167792000Y-49280000D03*
X164292000Y-54280000D03*
X164292000Y-49280000D03*
X160792000Y-54280000D03*
X160792000Y-49280000D03*
D20*
X125437400Y-64109600D03*
X123787400Y-64109600D03*
D21*
X150374000Y-54485000D03*
X150374000Y-56135000D03*
D22*
X174409400Y-102819200D03*
X172859400Y-102819200D03*
D23*
X135816000Y-59786000D03*
X137916000Y-59786000D03*
D24*
X179402500Y-102428000D03*
X179402500Y-104328000D03*
X181277500Y-103378000D03*
D25*
X164465000Y-64124800D03*
X164465000Y-65074800D03*
X164465000Y-66024800D03*
X166740000Y-66024800D03*
X166740000Y-64124800D03*
D26*
X154692000Y-77725000D03*
X154692000Y-76075000D03*
X162356800Y-102475800D03*
X162356800Y-100825800D03*
D27*
X144874000Y-62738000D03*
X150274000Y-62738000D03*
D17*
X143746000Y-80682000D03*
X143746000Y-79722000D03*
D28*
X175436800Y-86336000D03*
D29*
X175349300Y-84836000D03*
D28*
X175436800Y-83336000D03*
D26*
X178956000Y-72605400D03*
X178956000Y-70955400D03*
D22*
X159401000Y-67310000D03*
X157851000Y-67310000D03*
D30*
X121993900Y-65821600D03*
X121993900Y-63921600D03*
X120118900Y-64871600D03*
D26*
X179019200Y-93789000D03*
X179019200Y-92139000D03*
D24*
X179250100Y-88254800D03*
X179250100Y-90154800D03*
X181125100Y-89204800D03*
D31*
X159598400Y-63276900D03*
X158648400Y-63276900D03*
X157698400Y-63276900D03*
X157698400Y-65551900D03*
X159598400Y-65551900D03*
D32*
X136792200Y-106934000D03*
X138442200Y-106934000D03*
D20*
X125439700Y-89875400D03*
X123789700Y-89875400D03*
D24*
X179796500Y-67172800D03*
X179796500Y-69072800D03*
X181671500Y-68122800D03*
D33*
X145294000Y-94951000D03*
X145294000Y-93931000D03*
D32*
X133732000Y-105410000D03*
X135382000Y-105410000D03*
D18*
X144786000Y-54322000D03*
X144786000Y-55282000D03*
D34*
X108200000Y-49744000D03*
D24*
X180824900Y-70627200D03*
X180824900Y-72527200D03*
X182699900Y-71577200D03*
D28*
X175436800Y-100458400D03*
D29*
X175349300Y-98958400D03*
D28*
X175436800Y-97458400D03*
D22*
X174409400Y-88696800D03*
X172859400Y-88696800D03*
D21*
X134326000Y-59469000D03*
X134326000Y-61119000D03*
D18*
X145294000Y-68546000D03*
X145294000Y-69506000D03*
D35*
X162052000Y-105829400D03*
X162052000Y-104279400D03*
D36*
X165576000Y-60579000D03*
X161576000Y-60579000D03*
D35*
X178943000Y-65418000D03*
X178943000Y-63868000D03*
X150096000Y-83080000D03*
X150096000Y-81530000D03*
D24*
X180875700Y-98821200D03*
X180875700Y-100721200D03*
X182750700Y-99771200D03*
D23*
X139372000Y-59786000D03*
X141472000Y-59786000D03*
D24*
X180926500Y-91810800D03*
X180926500Y-93710800D03*
X182801500Y-92760800D03*
D37*
X138635200Y-108661200D03*
X137615200Y-108661200D03*
D18*
X132802000Y-59814000D03*
X132802000Y-60774000D03*
D38*
X150672800Y-92456000D03*
D39*
X159185500Y-81980000D03*
X157310500Y-81980000D03*
D40*
X152502000Y-51565000D03*
X146722000Y-51565000D03*
D41*
X152962000Y-52630000D03*
X152162000Y-52630000D03*
X150862000Y-52630000D03*
X149862000Y-52630000D03*
X149362000Y-52630000D03*
X148362000Y-52630000D03*
X147062000Y-52630000D03*
X146262000Y-52630000D03*
X146562000Y-52630000D03*
X147362000Y-52630000D03*
X147862000Y-52630000D03*
X148862000Y-52630000D03*
X150362000Y-52630000D03*
X151362000Y-52630000D03*
X151862000Y-52630000D03*
X152662000Y-52630000D03*
D42*
X145292000Y-52065000D03*
X153932000Y-52065000D03*
D43*
X145292000Y-47885000D03*
X153932000Y-47885000D03*
D20*
X125437400Y-62331600D03*
X123787400Y-62331600D03*
D44*
X113001000Y-105346000D03*
D45*
X113001000Y-101386000D03*
X113001000Y-97426000D03*
X113001000Y-93466000D03*
X113001000Y-89506000D03*
X113001000Y-85546000D03*
X113001000Y-81586000D03*
X113001000Y-77626000D03*
X113001000Y-73666000D03*
X113001000Y-69706000D03*
X113001000Y-65746000D03*
X113001000Y-61786000D03*
D28*
X177037000Y-65381000D03*
D29*
X176949500Y-63881000D03*
D28*
X177037000Y-62381000D03*
D20*
X125437400Y-91795600D03*
X123787400Y-91795600D03*
D22*
X139459000Y-65379600D03*
X137909000Y-65379600D03*
D35*
X177342800Y-72555400D03*
X177342800Y-71005400D03*
D32*
X157677000Y-84012000D03*
X159327000Y-84012000D03*
D25*
X140238900Y-106746000D03*
X140238900Y-107696000D03*
X140238900Y-108646000D03*
X142513900Y-108646000D03*
X142513900Y-106746000D03*
D26*
X177393600Y-97345000D03*
X177393600Y-95695000D03*
D28*
X175436800Y-107570400D03*
D29*
X175349300Y-106070400D03*
D28*
X175436800Y-104570400D03*
D26*
X163626800Y-105879400D03*
X163626800Y-104229400D03*
D24*
X165534100Y-103901200D03*
X165534100Y-105801200D03*
X167409100Y-104851200D03*
D20*
X125439700Y-84770000D03*
X123789700Y-84770000D03*
D46*
X167112000Y-62839600D03*
X166152000Y-62839600D03*
D20*
X125437400Y-65633600D03*
X123787400Y-65633600D03*
D26*
X179070000Y-86677000D03*
X179070000Y-85027000D03*
D38*
X163271200Y-85648800D03*
D22*
X159207200Y-100736400D03*
X157657200Y-100736400D03*
D47*
X154438000Y-72834000D03*
X154438000Y-73854000D03*
D46*
X143024800Y-105359200D03*
X142064800Y-105359200D03*
D20*
X125437400Y-79512200D03*
X123787400Y-79512200D03*
D48*
X190071800Y-69606800D03*
D45*
X190071800Y-73566800D03*
X190071800Y-77526800D03*
X190071800Y-81486800D03*
X190071800Y-85446800D03*
X190071800Y-89406800D03*
X190071800Y-93366800D03*
X190071800Y-97326800D03*
X190071800Y-101286800D03*
X190071800Y-105246800D03*
D24*
X179300900Y-74183200D03*
X179300900Y-76083200D03*
X181175900Y-75133200D03*
D26*
X178943000Y-62420000D03*
X178943000Y-60770000D03*
X140411200Y-104761800D03*
X140411200Y-103111800D03*
D20*
X143725400Y-103886000D03*
X142075400Y-103886000D03*
D30*
X121993900Y-72755800D03*
X121993900Y-70855800D03*
X120118900Y-71805800D03*
D20*
X125439700Y-81442600D03*
X123789700Y-81442600D03*
D24*
X180875700Y-77637600D03*
X180875700Y-79537600D03*
X182750700Y-78587600D03*
D20*
X140017000Y-72517000D03*
X138367000Y-72517000D03*
D49*
X152857200Y-96113600D03*
D50*
X155397200Y-96113600D03*
X157937200Y-96113600D03*
D37*
X136868000Y-61564000D03*
X135848000Y-61564000D03*
D22*
X174409400Y-95707200D03*
X172859400Y-95707200D03*
D24*
X164213300Y-100446800D03*
X164213300Y-102346800D03*
X166088300Y-101396800D03*
D20*
X125439700Y-88351400D03*
X123789700Y-88351400D03*
D22*
X174409400Y-74472800D03*
X172859400Y-74472800D03*
D20*
X139769000Y-61564000D03*
X138119000Y-61564000D03*
D21*
X135382000Y-66485000D03*
X135382000Y-68135000D03*
D28*
X160196800Y-105538400D03*
D29*
X160109300Y-104038400D03*
D28*
X160196800Y-102538400D03*
D26*
X177596800Y-104406200D03*
X177596800Y-102756200D03*
D20*
X125437400Y-74396600D03*
X123787400Y-74396600D03*
D51*
X134008400Y-102514400D03*
X135028400Y-102514400D03*
D52*
X160352000Y-86246000D03*
X160352000Y-92446000D03*
X156652000Y-86246000D03*
X156652000Y-92446000D03*
D53*
X142110500Y-85476000D03*
X142110500Y-85876000D03*
X142110500Y-86276000D03*
X142110500Y-86676000D03*
X142110500Y-87076000D03*
X142110500Y-87476000D03*
X142110500Y-87876000D03*
X142110500Y-88276000D03*
X142110500Y-88676000D03*
X142110500Y-89076000D03*
X142110500Y-89476000D03*
X142110500Y-89876000D03*
X142110500Y-90276000D03*
X142110500Y-90676000D03*
D54*
X142948000Y-91513500D03*
X143348000Y-91513500D03*
X143748000Y-91513500D03*
X144148000Y-91513500D03*
X144548000Y-91513500D03*
X144948000Y-91513500D03*
X145348000Y-91513500D03*
X145748000Y-91513500D03*
X146148000Y-91513500D03*
X146548000Y-91513500D03*
X146948000Y-91513500D03*
X147348000Y-91513500D03*
X147748000Y-91513500D03*
X148148000Y-91513500D03*
D53*
X148985500Y-90676000D03*
X148985500Y-90276000D03*
X148985500Y-89876000D03*
X148985500Y-89476000D03*
X148985500Y-89076000D03*
X148985500Y-88676000D03*
X148985500Y-88276000D03*
X148985500Y-87876000D03*
X148985500Y-87476000D03*
X148985500Y-87076000D03*
X148985500Y-86676000D03*
X148985500Y-86276000D03*
X148985500Y-85876000D03*
X148985500Y-85476000D03*
D54*
X148148000Y-84638500D03*
X147748000Y-84638500D03*
X147348000Y-84638500D03*
X146948000Y-84638500D03*
X146548000Y-84638500D03*
X146148000Y-84638500D03*
X145748000Y-84638500D03*
X145348000Y-84638500D03*
X144948000Y-84638500D03*
X144548000Y-84638500D03*
X144148000Y-84638500D03*
X143748000Y-84638500D03*
X143348000Y-84638500D03*
X142948000Y-84638500D03*
D55*
X145548000Y-88076000D03*
D56*
X168145000Y-60071000D03*
X170945000Y-60071000D03*
D26*
X136906000Y-73977000D03*
X136906000Y-72327000D03*
D22*
X159261000Y-61341000D03*
X157711000Y-61341000D03*
D21*
X162560000Y-64148200D03*
X162560000Y-65798200D03*
D47*
X146794000Y-80677000D03*
X146794000Y-81697000D03*
D57*
X138495000Y-66979800D03*
X138495000Y-68249800D03*
X138495000Y-69519800D03*
X138495000Y-70789800D03*
X143445000Y-70789800D03*
X143445000Y-69519800D03*
X143445000Y-68249800D03*
X143445000Y-66979800D03*
D26*
X179019200Y-100799400D03*
X179019200Y-99149400D03*
D32*
X133732000Y-103835200D03*
X135382000Y-103835200D03*
D22*
X175933400Y-60604400D03*
X174383400Y-60604400D03*
D18*
X147326000Y-94180000D03*
X147326000Y-95140000D03*
D35*
X177444400Y-107861400D03*
X177444400Y-106311400D03*
D24*
X179250100Y-81142800D03*
X179250100Y-83042800D03*
X181125100Y-82092800D03*
D20*
X125437400Y-72567800D03*
X123787400Y-72567800D03*
D24*
X179250100Y-95366800D03*
X179250100Y-97266800D03*
X181125100Y-96316800D03*
D30*
X121993900Y-76235600D03*
X121993900Y-74335600D03*
X120118900Y-75285600D03*
D58*
X144011000Y-75884000D03*
X145561000Y-75884000D03*
D30*
X121993900Y-79700200D03*
X121993900Y-77800200D03*
X120118900Y-78750200D03*
D20*
X125437400Y-70916800D03*
X123787400Y-70916800D03*
D19*
X136518000Y-54280000D03*
X136518000Y-49280000D03*
X133018000Y-54280000D03*
X133018000Y-49280000D03*
X129518000Y-54280000D03*
X129518000Y-49280000D03*
X126018000Y-54280000D03*
X126018000Y-49280000D03*
X122518000Y-49280000D03*
X122518000Y-54280000D03*
X119018000Y-49280000D03*
X119018000Y-54280000D03*
D52*
X160480000Y-71926000D03*
X160480000Y-78126000D03*
X156780000Y-78126000D03*
X156780000Y-71926000D03*
D20*
X125439700Y-83093600D03*
X123789700Y-83093600D03*
D30*
X121996200Y-90063400D03*
X121996200Y-88163400D03*
X120121200Y-89113400D03*
D34*
X150571200Y-106375200D03*
D30*
X121996200Y-86609000D03*
X121996200Y-84709000D03*
X120121200Y-85659000D03*
D46*
X139424000Y-74360000D03*
X138464000Y-74360000D03*
D26*
X179019200Y-79615800D03*
X179019200Y-77965800D03*
D32*
X136780000Y-105410000D03*
X138430000Y-105410000D03*
D24*
X180824900Y-105933200D03*
X180824900Y-107833200D03*
X182699900Y-106883200D03*
X180926500Y-84648000D03*
X180926500Y-86548000D03*
X182801500Y-85598000D03*
D30*
X121993900Y-93507600D03*
X121993900Y-91607600D03*
X120118900Y-92557600D03*
D20*
X125437400Y-76047600D03*
X123787400Y-76047600D03*
D47*
X145778000Y-80677000D03*
X145778000Y-81697000D03*
D59*
X152332000Y-56510000D03*
X152332000Y-54410000D03*
D20*
X125437400Y-93319600D03*
X123787400Y-93319600D03*
D30*
X121993900Y-69301400D03*
X121993900Y-67401400D03*
X120118900Y-68351400D03*
D60*
X106446000Y-99314000D03*
D61*
X106446000Y-96774000D03*
X106446000Y-94234000D03*
X106446000Y-91694000D03*
X106446000Y-89154000D03*
X106446000Y-86614000D03*
X106446000Y-84074000D03*
X106446000Y-81534000D03*
X106446000Y-78994000D03*
D17*
X147824000Y-82302000D03*
X147824000Y-81342000D03*
D30*
X121996200Y-83154600D03*
X121996200Y-81254600D03*
X120121200Y-82204600D03*
D26*
X179019200Y-107911400D03*
X179019200Y-106261400D03*
D27*
X187419000Y-61722000D03*
X192819000Y-61722000D03*
D35*
X177444400Y-100749400D03*
X177444400Y-99199400D03*
D28*
X175436800Y-79274800D03*
D29*
X175349300Y-77774800D03*
D28*
X175436800Y-76274800D03*
D17*
X144762000Y-80682000D03*
X144762000Y-79722000D03*
D20*
X125437400Y-77861200D03*
X123787400Y-77861200D03*
D24*
X180672500Y-60264000D03*
X180672500Y-62164000D03*
X182547500Y-61214000D03*
D30*
X121993900Y-62341800D03*
X121993900Y-60441800D03*
X120118900Y-61391800D03*
D26*
X177940000Y-69278000D03*
X177940000Y-67628000D03*
D21*
X151620000Y-81505000D03*
X151620000Y-83155000D03*
D15*
X150124000Y-84370000D03*
X151084000Y-84370000D03*
D26*
X177444400Y-83121000D03*
X177444400Y-81471000D03*
D21*
X135382000Y-69685400D03*
X135382000Y-71335400D03*
D35*
X177444400Y-93739000D03*
X177444400Y-92189000D03*
D20*
X125437400Y-67462400D03*
X123787400Y-67462400D03*
D33*
X154432000Y-87062000D03*
X154432000Y-86042000D03*
D26*
X177444400Y-76212200D03*
X177444400Y-74562200D03*
D49*
X135178800Y-95808800D03*
D50*
X132638800Y-95808800D03*
X130098800Y-95808800D03*
D20*
X125437400Y-60807600D03*
X123787400Y-60807600D03*
D22*
X174409400Y-81584800D03*
X172859400Y-81584800D03*
D18*
X146310000Y-94708000D03*
X146310000Y-95668000D03*
D26*
X180467000Y-65468000D03*
X180467000Y-63818000D03*
D62*
X122885200Y-107937000D03*
X125425200Y-107937000D03*
X127965200Y-107937000D03*
X130505200Y-107937000D03*
X130505200Y-99327000D03*
X127965200Y-99327000D03*
X125425200Y-99327000D03*
X122885200Y-99327000D03*
D59*
X169545000Y-62069000D03*
X169545000Y-64169000D03*
D17*
X140698000Y-96148000D03*
X140698000Y-95188000D03*
D20*
X125439700Y-86548000D03*
X123789700Y-86548000D03*
D28*
X175399000Y-72112000D03*
D29*
X175311500Y-70612000D03*
D28*
X175399000Y-69112000D03*
D20*
X125437400Y-69113400D03*
X123787400Y-69113400D03*
D37*
X141948000Y-61564000D03*
X140928000Y-61564000D03*
D34*
X190000000Y-49780000D03*
D21*
X146564000Y-54993000D03*
X146564000Y-56643000D03*
D38*
X163271200Y-83616800D03*
D28*
X175436800Y-93448000D03*
D29*
X175349300Y-91948000D03*
D28*
X175436800Y-90448000D03*
D26*
X177393600Y-90283800D03*
X177393600Y-88633800D03*
D24*
X182247300Y-63693000D03*
X182247300Y-65593000D03*
X184122300Y-64643000D03*
D35*
X177444400Y-79565800D03*
X177444400Y-78015800D03*
D16*
X155073000Y-83504000D03*
D63*
X143898000Y-97177000D03*
X143898000Y-94977000D03*
X142198000Y-94977000D03*
X142198000Y-97177000D03*
D17*
X148826000Y-82302000D03*
X148826000Y-81342000D03*
D46*
X139178000Y-89473000D03*
X138218000Y-89473000D03*
D64*
X134304000Y-75853000D03*
X134304000Y-77123000D03*
X134304000Y-78393000D03*
X134304000Y-79663000D03*
X141504000Y-79663000D03*
X141504000Y-78393000D03*
X141504000Y-77123000D03*
X141504000Y-75853000D03*
D17*
X140722000Y-84238000D03*
X140722000Y-83278000D03*
D35*
X177495200Y-86627000D03*
X177495200Y-85077000D03*
D32*
X133744200Y-106934000D03*
X135394200Y-106934000D03*
D22*
X174397000Y-67360800D03*
X172847000Y-67360800D03*
M02*
