%TF.GenerationSoftware,KiCad,Pcbnew,6.0.11+dfsg-1~bpo11+1*%
%TF.CreationDate,2023-10-22T15:16:06+02:00*%
%TF.ProjectId,Out_8x10,4f75745f-3878-4313-902e-6b696361645f,0.2.0*%
%TF.SameCoordinates,Original*%
%TF.FileFunction,Legend,Bot*%
%TF.FilePolarity,Positive*%
%FSLAX46Y46*%
G04 Gerber Fmt 4.6, Leading zero omitted, Abs format (unit mm)*
G04 Created by KiCad (PCBNEW 6.0.11+dfsg-1~bpo11+1) date 2023-10-22 15:16:06*
%MOMM*%
%LPD*%
G01*
G04 APERTURE LIST*
G04 Aperture macros list*
%AMRoundRect*
0 Rectangle with rounded corners*
0 $1 Rounding radius*
0 $2 $3 $4 $5 $6 $7 $8 $9 X,Y pos of 4 corners*
0 Add a 4 corners polygon primitive as box body*
4,1,4,$2,$3,$4,$5,$6,$7,$8,$9,$2,$3,0*
0 Add four circle primitives for the rounded corners*
1,1,$1+$1,$2,$3*
1,1,$1+$1,$4,$5*
1,1,$1+$1,$6,$7*
1,1,$1+$1,$8,$9*
0 Add four rect primitives between the rounded corners*
20,1,$1+$1,$2,$3,$4,$5,0*
20,1,$1+$1,$4,$5,$6,$7,0*
20,1,$1+$1,$6,$7,$8,$9,0*
20,1,$1+$1,$8,$9,$2,$3,0*%
G04 Aperture macros list end*
%ADD10C,2.000000*%
%ADD11C,2.400000*%
%ADD12C,5.500000*%
%ADD13C,0.650000*%
%ADD14O,1.000000X2.100000*%
%ADD15O,1.000000X1.600000*%
%ADD16RoundRect,0.250000X1.850000X-1.330000X1.850000X1.330000X-1.850000X1.330000X-1.850000X-1.330000X0*%
%ADD17O,4.200000X3.160000*%
%ADD18RoundRect,0.250000X-1.850000X1.330000X-1.850000X-1.330000X1.850000X-1.330000X1.850000X1.330000X0*%
%ADD19R,1.700000X1.700000*%
%ADD20O,1.700000X1.700000*%
%ADD21RoundRect,0.250000X0.845000X-0.620000X0.845000X0.620000X-0.845000X0.620000X-0.845000X-0.620000X0*%
%ADD22O,2.190000X1.740000*%
G04 APERTURE END LIST*
%LPC*%
D10*
X142500000Y-46674000D03*
D11*
X178292000Y-54280000D03*
X178292000Y-49280000D03*
X174792000Y-49280000D03*
X174792000Y-54280000D03*
X171292000Y-49280000D03*
X171292000Y-54280000D03*
X167792000Y-54280000D03*
X167792000Y-49280000D03*
X164292000Y-54280000D03*
X164292000Y-49280000D03*
X160792000Y-54280000D03*
X160792000Y-49280000D03*
D12*
X108200000Y-49744000D03*
D13*
X152502000Y-51565000D03*
X146722000Y-51565000D03*
D14*
X145292000Y-52065000D03*
X153932000Y-52065000D03*
D15*
X145292000Y-47885000D03*
X153932000Y-47885000D03*
D16*
X113001000Y-105346000D03*
D17*
X113001000Y-101386000D03*
X113001000Y-97426000D03*
X113001000Y-93466000D03*
X113001000Y-89506000D03*
X113001000Y-85546000D03*
X113001000Y-81586000D03*
X113001000Y-77626000D03*
X113001000Y-73666000D03*
X113001000Y-69706000D03*
X113001000Y-65746000D03*
X113001000Y-61786000D03*
D18*
X190071800Y-69606800D03*
D17*
X190071800Y-73566800D03*
X190071800Y-77526800D03*
X190071800Y-81486800D03*
X190071800Y-85446800D03*
X190071800Y-89406800D03*
X190071800Y-93366800D03*
X190071800Y-97326800D03*
X190071800Y-101286800D03*
X190071800Y-105246800D03*
D19*
X152857200Y-96113600D03*
D20*
X155397200Y-96113600D03*
X157937200Y-96113600D03*
D11*
X136518000Y-54280000D03*
X136518000Y-49280000D03*
X133018000Y-54280000D03*
X133018000Y-49280000D03*
X129518000Y-54280000D03*
X129518000Y-49280000D03*
X126018000Y-54280000D03*
X126018000Y-49280000D03*
X122518000Y-49280000D03*
X122518000Y-54280000D03*
X119018000Y-49280000D03*
X119018000Y-54280000D03*
D12*
X150571200Y-106375200D03*
D21*
X106446000Y-99314000D03*
D22*
X106446000Y-96774000D03*
X106446000Y-94234000D03*
X106446000Y-91694000D03*
X106446000Y-89154000D03*
X106446000Y-86614000D03*
X106446000Y-84074000D03*
X106446000Y-81534000D03*
X106446000Y-78994000D03*
D19*
X135178800Y-95808800D03*
D20*
X132638800Y-95808800D03*
X130098800Y-95808800D03*
D12*
X190000000Y-49780000D03*
D10*
X155073000Y-83504000D03*
M02*
