%TF.GenerationSoftware,KiCad,Pcbnew,6.0.11+dfsg-1~bpo11+1*%
%TF.CreationDate,2023-10-22T15:16:06+02:00*%
%TF.ProjectId,Out_8x10,4f75745f-3878-4313-902e-6b696361645f,0.2.0*%
%TF.SameCoordinates,Original*%
%TF.FileFunction,Soldermask,Top*%
%TF.FilePolarity,Negative*%
%FSLAX46Y46*%
G04 Gerber Fmt 4.6, Leading zero omitted, Abs format (unit mm)*
G04 Created by KiCad (PCBNEW 6.0.11+dfsg-1~bpo11+1) date 2023-10-22 15:16:06*
%MOMM*%
%LPD*%
G01*
G04 APERTURE LIST*
G04 Aperture macros list*
%AMRoundRect*
0 Rectangle with rounded corners*
0 $1 Rounding radius*
0 $2 $3 $4 $5 $6 $7 $8 $9 X,Y pos of 4 corners*
0 Add a 4 corners polygon primitive as box body*
4,1,4,$2,$3,$4,$5,$6,$7,$8,$9,$2,$3,0*
0 Add four circle primitives for the rounded corners*
1,1,$1+$1,$2,$3*
1,1,$1+$1,$4,$5*
1,1,$1+$1,$6,$7*
1,1,$1+$1,$8,$9*
0 Add four rect primitives between the rounded corners*
20,1,$1+$1,$2,$3,$4,$5,0*
20,1,$1+$1,$4,$5,$6,$7,0*
20,1,$1+$1,$6,$7,$8,$9,0*
20,1,$1+$1,$8,$9,$2,$3,0*%
%AMFreePoly0*
4,1,9,3.862500,-0.866500,0.737500,-0.866500,0.737500,-0.450000,-0.737500,-0.450000,-0.737500,0.450000,0.737500,0.450000,0.737500,0.866500,3.862500,0.866500,3.862500,-0.866500,3.862500,-0.866500,$1*%
G04 Aperture macros list end*
%ADD10RoundRect,0.140000X-0.140000X-0.170000X0.140000X-0.170000X0.140000X0.170000X-0.140000X0.170000X0*%
%ADD11C,2.000000*%
%ADD12RoundRect,0.140000X0.170000X-0.140000X0.170000X0.140000X-0.170000X0.140000X-0.170000X-0.140000X0*%
%ADD13RoundRect,0.140000X-0.170000X0.140000X-0.170000X-0.140000X0.170000X-0.140000X0.170000X0.140000X0*%
%ADD14C,2.400000*%
%ADD15RoundRect,0.200000X0.200000X0.275000X-0.200000X0.275000X-0.200000X-0.275000X0.200000X-0.275000X0*%
%ADD16RoundRect,0.200000X-0.275000X0.200000X-0.275000X-0.200000X0.275000X-0.200000X0.275000X0.200000X0*%
%ADD17RoundRect,0.225000X0.225000X0.250000X-0.225000X0.250000X-0.225000X-0.250000X0.225000X-0.250000X0*%
%ADD18R,0.600000X0.450000*%
%ADD19RoundRect,0.150000X-0.587500X-0.150000X0.587500X-0.150000X0.587500X0.150000X-0.587500X0.150000X0*%
%ADD20RoundRect,0.150000X-0.512500X-0.150000X0.512500X-0.150000X0.512500X0.150000X-0.512500X0.150000X0*%
%ADD21RoundRect,0.200000X0.275000X-0.200000X0.275000X0.200000X-0.275000X0.200000X-0.275000X-0.200000X0*%
%ADD22RoundRect,0.250000X-1.500000X-0.550000X1.500000X-0.550000X1.500000X0.550000X-1.500000X0.550000X0*%
%ADD23R,1.300000X0.900000*%
%ADD24FreePoly0,180.000000*%
%ADD25RoundRect,0.150000X0.587500X0.150000X-0.587500X0.150000X-0.587500X-0.150000X0.587500X-0.150000X0*%
%ADD26RoundRect,0.150000X-0.150000X0.512500X-0.150000X-0.512500X0.150000X-0.512500X0.150000X0.512500X0*%
%ADD27RoundRect,0.200000X-0.200000X-0.275000X0.200000X-0.275000X0.200000X0.275000X-0.200000X0.275000X0*%
%ADD28RoundRect,0.135000X0.185000X-0.135000X0.185000X0.135000X-0.185000X0.135000X-0.185000X-0.135000X0*%
%ADD29C,5.500000*%
%ADD30RoundRect,0.225000X0.250000X-0.225000X0.250000X0.225000X-0.250000X0.225000X-0.250000X-0.225000X0*%
%ADD31R,2.500000X1.800000*%
%ADD32RoundRect,0.135000X0.135000X0.185000X-0.135000X0.185000X-0.135000X-0.185000X0.135000X-0.185000X0*%
%ADD33C,1.000000*%
%ADD34RoundRect,0.243750X0.243750X0.456250X-0.243750X0.456250X-0.243750X-0.456250X0.243750X-0.456250X0*%
%ADD35C,0.650000*%
%ADD36R,0.300000X1.150000*%
%ADD37O,1.000000X2.100000*%
%ADD38O,1.000000X1.600000*%
%ADD39RoundRect,0.250000X1.850000X-1.330000X1.850000X1.330000X-1.850000X1.330000X-1.850000X-1.330000X0*%
%ADD40O,4.200000X3.160000*%
%ADD41RoundRect,0.140000X0.140000X0.170000X-0.140000X0.170000X-0.140000X-0.170000X0.140000X-0.170000X0*%
%ADD42RoundRect,0.135000X-0.185000X0.135000X-0.185000X-0.135000X0.185000X-0.135000X0.185000X0.135000X0*%
%ADD43RoundRect,0.250000X-1.850000X1.330000X-1.850000X-1.330000X1.850000X-1.330000X1.850000X1.330000X0*%
%ADD44R,1.700000X1.700000*%
%ADD45O,1.700000X1.700000*%
%ADD46RoundRect,0.135000X-0.135000X-0.185000X0.135000X-0.185000X0.135000X0.185000X-0.135000X0.185000X0*%
%ADD47R,1.100000X1.800000*%
%ADD48RoundRect,0.050000X-0.387500X-0.050000X0.387500X-0.050000X0.387500X0.050000X-0.387500X0.050000X0*%
%ADD49RoundRect,0.050000X-0.050000X-0.387500X0.050000X-0.387500X0.050000X0.387500X-0.050000X0.387500X0*%
%ADD50R,3.200000X3.200000*%
%ADD51RoundRect,0.250000X-0.375000X-0.625000X0.375000X-0.625000X0.375000X0.625000X-0.375000X0.625000X0*%
%ADD52RoundRect,0.150000X-0.825000X-0.150000X0.825000X-0.150000X0.825000X0.150000X-0.825000X0.150000X0*%
%ADD53RoundRect,0.225000X-0.225000X-0.250000X0.225000X-0.250000X0.225000X0.250000X-0.225000X0.250000X0*%
%ADD54R,0.450000X0.600000*%
%ADD55RoundRect,0.250000X0.845000X-0.620000X0.845000X0.620000X-0.845000X0.620000X-0.845000X-0.620000X0*%
%ADD56O,2.190000X1.740000*%
%ADD57R,1.120000X2.440000*%
%ADD58R,1.200000X1.400000*%
%ADD59RoundRect,0.150000X-0.650000X-0.150000X0.650000X-0.150000X0.650000X0.150000X-0.650000X0.150000X0*%
G04 APERTURE END LIST*
D10*
X151418000Y-89434000D03*
X152378000Y-89434000D03*
D11*
X142500000Y-46674000D03*
D12*
X145270000Y-97034000D03*
X145270000Y-96074000D03*
D13*
X155933600Y-62376800D03*
X155933600Y-63336800D03*
D14*
X178292000Y-54280000D03*
X178292000Y-49280000D03*
X174792000Y-49280000D03*
X174792000Y-54280000D03*
X171292000Y-49280000D03*
X171292000Y-54280000D03*
X167792000Y-54280000D03*
X167792000Y-49280000D03*
X164292000Y-54280000D03*
X164292000Y-49280000D03*
X160792000Y-54280000D03*
X160792000Y-49280000D03*
D15*
X125437400Y-64109600D03*
X123787400Y-64109600D03*
D16*
X150374000Y-54485000D03*
X150374000Y-56135000D03*
D17*
X174409400Y-102819200D03*
X172859400Y-102819200D03*
D18*
X135816000Y-59786000D03*
X137916000Y-59786000D03*
D19*
X179402500Y-102428000D03*
X179402500Y-104328000D03*
X181277500Y-103378000D03*
D20*
X164465000Y-64124800D03*
X164465000Y-65074800D03*
X164465000Y-66024800D03*
X166740000Y-66024800D03*
X166740000Y-64124800D03*
D21*
X154692000Y-77725000D03*
X154692000Y-76075000D03*
X162356800Y-102475800D03*
X162356800Y-100825800D03*
D22*
X144874000Y-62738000D03*
X150274000Y-62738000D03*
D12*
X143746000Y-80682000D03*
X143746000Y-79722000D03*
D23*
X175436800Y-86336000D03*
D24*
X175349300Y-84836000D03*
D23*
X175436800Y-83336000D03*
D21*
X178956000Y-72605400D03*
X178956000Y-70955400D03*
D17*
X159401000Y-67310000D03*
X157851000Y-67310000D03*
D25*
X121993900Y-65821600D03*
X121993900Y-63921600D03*
X120118900Y-64871600D03*
D21*
X179019200Y-93789000D03*
X179019200Y-92139000D03*
D19*
X179250100Y-88254800D03*
X179250100Y-90154800D03*
X181125100Y-89204800D03*
D26*
X159598400Y-63276900D03*
X158648400Y-63276900D03*
X157698400Y-63276900D03*
X157698400Y-65551900D03*
X159598400Y-65551900D03*
D27*
X136792200Y-106934000D03*
X138442200Y-106934000D03*
D15*
X125439700Y-89875400D03*
X123789700Y-89875400D03*
D19*
X179796500Y-67172800D03*
X179796500Y-69072800D03*
X181671500Y-68122800D03*
D28*
X145294000Y-94951000D03*
X145294000Y-93931000D03*
D27*
X133732000Y-105410000D03*
X135382000Y-105410000D03*
D13*
X144786000Y-54322000D03*
X144786000Y-55282000D03*
D29*
X108200000Y-49744000D03*
D19*
X180824900Y-70627200D03*
X180824900Y-72527200D03*
X182699900Y-71577200D03*
D23*
X175436800Y-100458400D03*
D24*
X175349300Y-98958400D03*
D23*
X175436800Y-97458400D03*
D17*
X174409400Y-88696800D03*
X172859400Y-88696800D03*
D16*
X134326000Y-59469000D03*
X134326000Y-61119000D03*
D13*
X145294000Y-68546000D03*
X145294000Y-69506000D03*
D30*
X162052000Y-105829400D03*
X162052000Y-104279400D03*
D31*
X165576000Y-60579000D03*
X161576000Y-60579000D03*
D30*
X178943000Y-65418000D03*
X178943000Y-63868000D03*
X150096000Y-83080000D03*
X150096000Y-81530000D03*
D19*
X180875700Y-98821200D03*
X180875700Y-100721200D03*
X182750700Y-99771200D03*
D18*
X139372000Y-59786000D03*
X141472000Y-59786000D03*
D19*
X180926500Y-91810800D03*
X180926500Y-93710800D03*
X182801500Y-92760800D03*
D32*
X138635200Y-108661200D03*
X137615200Y-108661200D03*
D13*
X132802000Y-59814000D03*
X132802000Y-60774000D03*
D33*
X150672800Y-92456000D03*
D34*
X159185500Y-81980000D03*
X157310500Y-81980000D03*
D35*
X152502000Y-51565000D03*
X146722000Y-51565000D03*
D36*
X152962000Y-52630000D03*
X152162000Y-52630000D03*
X150862000Y-52630000D03*
X149862000Y-52630000D03*
X149362000Y-52630000D03*
X148362000Y-52630000D03*
X147062000Y-52630000D03*
X146262000Y-52630000D03*
X146562000Y-52630000D03*
X147362000Y-52630000D03*
X147862000Y-52630000D03*
X148862000Y-52630000D03*
X150362000Y-52630000D03*
X151362000Y-52630000D03*
X151862000Y-52630000D03*
X152662000Y-52630000D03*
D37*
X145292000Y-52065000D03*
X153932000Y-52065000D03*
D38*
X145292000Y-47885000D03*
X153932000Y-47885000D03*
D15*
X125437400Y-62331600D03*
X123787400Y-62331600D03*
D39*
X113001000Y-105346000D03*
D40*
X113001000Y-101386000D03*
X113001000Y-97426000D03*
X113001000Y-93466000D03*
X113001000Y-89506000D03*
X113001000Y-85546000D03*
X113001000Y-81586000D03*
X113001000Y-77626000D03*
X113001000Y-73666000D03*
X113001000Y-69706000D03*
X113001000Y-65746000D03*
X113001000Y-61786000D03*
D23*
X177037000Y-65381000D03*
D24*
X176949500Y-63881000D03*
D23*
X177037000Y-62381000D03*
D15*
X125437400Y-91795600D03*
X123787400Y-91795600D03*
D17*
X139459000Y-65379600D03*
X137909000Y-65379600D03*
D30*
X177342800Y-72555400D03*
X177342800Y-71005400D03*
D27*
X157677000Y-84012000D03*
X159327000Y-84012000D03*
D20*
X140238900Y-106746000D03*
X140238900Y-107696000D03*
X140238900Y-108646000D03*
X142513900Y-108646000D03*
X142513900Y-106746000D03*
D21*
X177393600Y-97345000D03*
X177393600Y-95695000D03*
D23*
X175436800Y-107570400D03*
D24*
X175349300Y-106070400D03*
D23*
X175436800Y-104570400D03*
D21*
X163626800Y-105879400D03*
X163626800Y-104229400D03*
D19*
X165534100Y-103901200D03*
X165534100Y-105801200D03*
X167409100Y-104851200D03*
D15*
X125439700Y-84770000D03*
X123789700Y-84770000D03*
D41*
X167112000Y-62839600D03*
X166152000Y-62839600D03*
D15*
X125437400Y-65633600D03*
X123787400Y-65633600D03*
D21*
X179070000Y-86677000D03*
X179070000Y-85027000D03*
D33*
X163271200Y-85648800D03*
D17*
X159207200Y-100736400D03*
X157657200Y-100736400D03*
D42*
X154438000Y-72834000D03*
X154438000Y-73854000D03*
D41*
X143024800Y-105359200D03*
X142064800Y-105359200D03*
D15*
X125437400Y-79512200D03*
X123787400Y-79512200D03*
D43*
X190071800Y-69606800D03*
D40*
X190071800Y-73566800D03*
X190071800Y-77526800D03*
X190071800Y-81486800D03*
X190071800Y-85446800D03*
X190071800Y-89406800D03*
X190071800Y-93366800D03*
X190071800Y-97326800D03*
X190071800Y-101286800D03*
X190071800Y-105246800D03*
D19*
X179300900Y-74183200D03*
X179300900Y-76083200D03*
X181175900Y-75133200D03*
D21*
X178943000Y-62420000D03*
X178943000Y-60770000D03*
X140411200Y-104761800D03*
X140411200Y-103111800D03*
D15*
X143725400Y-103886000D03*
X142075400Y-103886000D03*
D25*
X121993900Y-72755800D03*
X121993900Y-70855800D03*
X120118900Y-71805800D03*
D15*
X125439700Y-81442600D03*
X123789700Y-81442600D03*
D19*
X180875700Y-77637600D03*
X180875700Y-79537600D03*
X182750700Y-78587600D03*
D15*
X140017000Y-72517000D03*
X138367000Y-72517000D03*
D44*
X152857200Y-96113600D03*
D45*
X155397200Y-96113600D03*
X157937200Y-96113600D03*
D32*
X136868000Y-61564000D03*
X135848000Y-61564000D03*
D17*
X174409400Y-95707200D03*
X172859400Y-95707200D03*
D19*
X164213300Y-100446800D03*
X164213300Y-102346800D03*
X166088300Y-101396800D03*
D15*
X125439700Y-88351400D03*
X123789700Y-88351400D03*
D17*
X174409400Y-74472800D03*
X172859400Y-74472800D03*
D15*
X139769000Y-61564000D03*
X138119000Y-61564000D03*
D16*
X135382000Y-66485000D03*
X135382000Y-68135000D03*
D23*
X160196800Y-105538400D03*
D24*
X160109300Y-104038400D03*
D23*
X160196800Y-102538400D03*
D21*
X177596800Y-104406200D03*
X177596800Y-102756200D03*
D15*
X125437400Y-74396600D03*
X123787400Y-74396600D03*
D46*
X134008400Y-102514400D03*
X135028400Y-102514400D03*
D47*
X160352000Y-86246000D03*
X160352000Y-92446000D03*
X156652000Y-86246000D03*
X156652000Y-92446000D03*
D48*
X142110500Y-85476000D03*
X142110500Y-85876000D03*
X142110500Y-86276000D03*
X142110500Y-86676000D03*
X142110500Y-87076000D03*
X142110500Y-87476000D03*
X142110500Y-87876000D03*
X142110500Y-88276000D03*
X142110500Y-88676000D03*
X142110500Y-89076000D03*
X142110500Y-89476000D03*
X142110500Y-89876000D03*
X142110500Y-90276000D03*
X142110500Y-90676000D03*
D49*
X142948000Y-91513500D03*
X143348000Y-91513500D03*
X143748000Y-91513500D03*
X144148000Y-91513500D03*
X144548000Y-91513500D03*
X144948000Y-91513500D03*
X145348000Y-91513500D03*
X145748000Y-91513500D03*
X146148000Y-91513500D03*
X146548000Y-91513500D03*
X146948000Y-91513500D03*
X147348000Y-91513500D03*
X147748000Y-91513500D03*
X148148000Y-91513500D03*
D48*
X148985500Y-90676000D03*
X148985500Y-90276000D03*
X148985500Y-89876000D03*
X148985500Y-89476000D03*
X148985500Y-89076000D03*
X148985500Y-88676000D03*
X148985500Y-88276000D03*
X148985500Y-87876000D03*
X148985500Y-87476000D03*
X148985500Y-87076000D03*
X148985500Y-86676000D03*
X148985500Y-86276000D03*
X148985500Y-85876000D03*
X148985500Y-85476000D03*
D49*
X148148000Y-84638500D03*
X147748000Y-84638500D03*
X147348000Y-84638500D03*
X146948000Y-84638500D03*
X146548000Y-84638500D03*
X146148000Y-84638500D03*
X145748000Y-84638500D03*
X145348000Y-84638500D03*
X144948000Y-84638500D03*
X144548000Y-84638500D03*
X144148000Y-84638500D03*
X143748000Y-84638500D03*
X143348000Y-84638500D03*
X142948000Y-84638500D03*
D50*
X145548000Y-88076000D03*
D51*
X168145000Y-60071000D03*
X170945000Y-60071000D03*
D21*
X136906000Y-73977000D03*
X136906000Y-72327000D03*
D17*
X159261000Y-61341000D03*
X157711000Y-61341000D03*
D16*
X162560000Y-64148200D03*
X162560000Y-65798200D03*
D42*
X146794000Y-80677000D03*
X146794000Y-81697000D03*
D52*
X138495000Y-66979800D03*
X138495000Y-68249800D03*
X138495000Y-69519800D03*
X138495000Y-70789800D03*
X143445000Y-70789800D03*
X143445000Y-69519800D03*
X143445000Y-68249800D03*
X143445000Y-66979800D03*
D21*
X179019200Y-100799400D03*
X179019200Y-99149400D03*
D27*
X133732000Y-103835200D03*
X135382000Y-103835200D03*
D17*
X175933400Y-60604400D03*
X174383400Y-60604400D03*
D13*
X147326000Y-94180000D03*
X147326000Y-95140000D03*
D30*
X177444400Y-107861400D03*
X177444400Y-106311400D03*
D19*
X179250100Y-81142800D03*
X179250100Y-83042800D03*
X181125100Y-82092800D03*
D15*
X125437400Y-72567800D03*
X123787400Y-72567800D03*
D19*
X179250100Y-95366800D03*
X179250100Y-97266800D03*
X181125100Y-96316800D03*
D25*
X121993900Y-76235600D03*
X121993900Y-74335600D03*
X120118900Y-75285600D03*
D53*
X144011000Y-75884000D03*
X145561000Y-75884000D03*
D25*
X121993900Y-79700200D03*
X121993900Y-77800200D03*
X120118900Y-78750200D03*
D15*
X125437400Y-70916800D03*
X123787400Y-70916800D03*
D14*
X136518000Y-54280000D03*
X136518000Y-49280000D03*
X133018000Y-54280000D03*
X133018000Y-49280000D03*
X129518000Y-54280000D03*
X129518000Y-49280000D03*
X126018000Y-54280000D03*
X126018000Y-49280000D03*
X122518000Y-49280000D03*
X122518000Y-54280000D03*
X119018000Y-49280000D03*
X119018000Y-54280000D03*
D47*
X160480000Y-71926000D03*
X160480000Y-78126000D03*
X156780000Y-78126000D03*
X156780000Y-71926000D03*
D15*
X125439700Y-83093600D03*
X123789700Y-83093600D03*
D25*
X121996200Y-90063400D03*
X121996200Y-88163400D03*
X120121200Y-89113400D03*
D29*
X150571200Y-106375200D03*
D25*
X121996200Y-86609000D03*
X121996200Y-84709000D03*
X120121200Y-85659000D03*
D41*
X139424000Y-74360000D03*
X138464000Y-74360000D03*
D21*
X179019200Y-79615800D03*
X179019200Y-77965800D03*
D27*
X136780000Y-105410000D03*
X138430000Y-105410000D03*
D19*
X180824900Y-105933200D03*
X180824900Y-107833200D03*
X182699900Y-106883200D03*
X180926500Y-84648000D03*
X180926500Y-86548000D03*
X182801500Y-85598000D03*
D25*
X121993900Y-93507600D03*
X121993900Y-91607600D03*
X120118900Y-92557600D03*
D15*
X125437400Y-76047600D03*
X123787400Y-76047600D03*
D42*
X145778000Y-80677000D03*
X145778000Y-81697000D03*
D54*
X152332000Y-56510000D03*
X152332000Y-54410000D03*
D15*
X125437400Y-93319600D03*
X123787400Y-93319600D03*
D25*
X121993900Y-69301400D03*
X121993900Y-67401400D03*
X120118900Y-68351400D03*
D55*
X106446000Y-99314000D03*
D56*
X106446000Y-96774000D03*
X106446000Y-94234000D03*
X106446000Y-91694000D03*
X106446000Y-89154000D03*
X106446000Y-86614000D03*
X106446000Y-84074000D03*
X106446000Y-81534000D03*
X106446000Y-78994000D03*
D12*
X147824000Y-82302000D03*
X147824000Y-81342000D03*
D25*
X121996200Y-83154600D03*
X121996200Y-81254600D03*
X120121200Y-82204600D03*
D21*
X179019200Y-107911400D03*
X179019200Y-106261400D03*
D22*
X187419000Y-61722000D03*
X192819000Y-61722000D03*
D30*
X177444400Y-100749400D03*
X177444400Y-99199400D03*
D23*
X175436800Y-79274800D03*
D24*
X175349300Y-77774800D03*
D23*
X175436800Y-76274800D03*
D12*
X144762000Y-80682000D03*
X144762000Y-79722000D03*
D15*
X125437400Y-77861200D03*
X123787400Y-77861200D03*
D19*
X180672500Y-60264000D03*
X180672500Y-62164000D03*
X182547500Y-61214000D03*
D25*
X121993900Y-62341800D03*
X121993900Y-60441800D03*
X120118900Y-61391800D03*
D21*
X177940000Y-69278000D03*
X177940000Y-67628000D03*
D16*
X151620000Y-81505000D03*
X151620000Y-83155000D03*
D10*
X150124000Y-84370000D03*
X151084000Y-84370000D03*
D21*
X177444400Y-83121000D03*
X177444400Y-81471000D03*
D16*
X135382000Y-69685400D03*
X135382000Y-71335400D03*
D30*
X177444400Y-93739000D03*
X177444400Y-92189000D03*
D15*
X125437400Y-67462400D03*
X123787400Y-67462400D03*
D28*
X154432000Y-87062000D03*
X154432000Y-86042000D03*
D21*
X177444400Y-76212200D03*
X177444400Y-74562200D03*
D44*
X135178800Y-95808800D03*
D45*
X132638800Y-95808800D03*
X130098800Y-95808800D03*
D15*
X125437400Y-60807600D03*
X123787400Y-60807600D03*
D17*
X174409400Y-81584800D03*
X172859400Y-81584800D03*
D13*
X146310000Y-94708000D03*
X146310000Y-95668000D03*
D21*
X180467000Y-65468000D03*
X180467000Y-63818000D03*
D57*
X122885200Y-107937000D03*
X125425200Y-107937000D03*
X127965200Y-107937000D03*
X130505200Y-107937000D03*
X130505200Y-99327000D03*
X127965200Y-99327000D03*
X125425200Y-99327000D03*
X122885200Y-99327000D03*
D54*
X169545000Y-62069000D03*
X169545000Y-64169000D03*
D12*
X140698000Y-96148000D03*
X140698000Y-95188000D03*
D15*
X125439700Y-86548000D03*
X123789700Y-86548000D03*
D23*
X175399000Y-72112000D03*
D24*
X175311500Y-70612000D03*
D23*
X175399000Y-69112000D03*
D15*
X125437400Y-69113400D03*
X123787400Y-69113400D03*
D32*
X141948000Y-61564000D03*
X140928000Y-61564000D03*
D29*
X190000000Y-49780000D03*
D16*
X146564000Y-54993000D03*
X146564000Y-56643000D03*
D33*
X163271200Y-83616800D03*
D23*
X175436800Y-93448000D03*
D24*
X175349300Y-91948000D03*
D23*
X175436800Y-90448000D03*
D21*
X177393600Y-90283800D03*
X177393600Y-88633800D03*
D19*
X182247300Y-63693000D03*
X182247300Y-65593000D03*
X184122300Y-64643000D03*
D30*
X177444400Y-79565800D03*
X177444400Y-78015800D03*
D11*
X155073000Y-83504000D03*
D58*
X143898000Y-97177000D03*
X143898000Y-94977000D03*
X142198000Y-94977000D03*
X142198000Y-97177000D03*
D12*
X148826000Y-82302000D03*
X148826000Y-81342000D03*
D41*
X139178000Y-89473000D03*
X138218000Y-89473000D03*
D59*
X134304000Y-75853000D03*
X134304000Y-77123000D03*
X134304000Y-78393000D03*
X134304000Y-79663000D03*
X141504000Y-79663000D03*
X141504000Y-78393000D03*
X141504000Y-77123000D03*
X141504000Y-75853000D03*
D12*
X140722000Y-84238000D03*
X140722000Y-83278000D03*
D30*
X177495200Y-86627000D03*
X177495200Y-85077000D03*
D27*
X133744200Y-106934000D03*
X135394200Y-106934000D03*
D17*
X174397000Y-67360800D03*
X172847000Y-67360800D03*
M02*
